%FSLAX25Y25*%
%MOIN*%
G70*
G01*
G75*
G04 Layer_Physical_Order=2*
G04 Layer_Color=16711680*
%ADD10R,0.02953X0.02362*%
%ADD11R,0.03937X0.04724*%
%ADD12R,0.04724X0.03937*%
%ADD13R,0.07087X0.09843*%
%ADD14C,0.05000*%
%ADD15C,0.01000*%
%ADD16C,0.07000*%
%ADD17C,0.00500*%
%ADD18C,0.00787*%
%ADD19C,0.10630*%
%ADD20C,0.23622*%
%ADD21C,0.07087*%
%ADD22R,0.10630X0.10630*%
%ADD23C,0.02400*%
%ADD24C,0.10000*%
G36*
X645669Y177165D02*
Y0D01*
X645669Y0D01*
X0D01*
Y176165D01*
X1000Y177165D01*
X645669Y177165D01*
D02*
G37*
%LPC*%
G36*
X125484Y54618D02*
X123841D01*
X123912Y54260D01*
X124398Y53532D01*
X125126Y53046D01*
X125484Y52974D01*
Y54618D01*
D02*
G37*
G36*
X128128D02*
X126484D01*
Y52974D01*
X126843Y53046D01*
X127570Y53532D01*
X128057Y54260D01*
X128128Y54618D01*
D02*
G37*
G36*
X58555D02*
X56911D01*
X56983Y54260D01*
X57469Y53532D01*
X58197Y53046D01*
X58555Y52974D01*
Y54618D01*
D02*
G37*
G36*
X61199D02*
X59555D01*
Y52974D01*
X59913Y53046D01*
X60641Y53532D01*
X61128Y54260D01*
X61199Y54618D01*
D02*
G37*
G36*
X58555Y57262D02*
X58197Y57191D01*
X57469Y56704D01*
X56983Y55976D01*
X56911Y55618D01*
X58555D01*
Y57262D01*
D02*
G37*
G36*
X59555D02*
Y55618D01*
X61199D01*
X61128Y55976D01*
X60641Y56704D01*
X59913Y57191D01*
X59555Y57262D01*
D02*
G37*
G36*
X200287Y54618D02*
X198644D01*
X198715Y54260D01*
X199201Y53532D01*
X199929Y53046D01*
X200287Y52974D01*
Y54618D01*
D02*
G37*
G36*
X202931D02*
X201287D01*
Y52974D01*
X201646Y53046D01*
X202374Y53532D01*
X202860Y54260D01*
X202931Y54618D01*
D02*
G37*
G36*
X629421Y48713D02*
X627778D01*
X627849Y48354D01*
X628335Y47627D01*
X629063Y47140D01*
X629421Y47069D01*
Y48713D01*
D02*
G37*
G36*
X632065D02*
X630421D01*
Y47069D01*
X630780Y47140D01*
X631507Y47627D01*
X631994Y48354D01*
X632065Y48713D01*
D02*
G37*
G36*
X19185D02*
X17541D01*
X17613Y48354D01*
X18099Y47627D01*
X18827Y47140D01*
X19185Y47069D01*
Y48713D01*
D02*
G37*
G36*
X21829D02*
X20185D01*
Y47069D01*
X20543Y47140D01*
X21271Y47627D01*
X21757Y48354D01*
X21829Y48713D01*
D02*
G37*
G36*
X629421Y51356D02*
X629063Y51285D01*
X628335Y50799D01*
X627849Y50071D01*
X627778Y49713D01*
X629421D01*
Y51356D01*
D02*
G37*
G36*
X630421D02*
Y49713D01*
X632065D01*
X631994Y50071D01*
X631507Y50799D01*
X630780Y51285D01*
X630421Y51356D01*
D02*
G37*
G36*
X19185D02*
X18827Y51285D01*
X18099Y50799D01*
X17613Y50071D01*
X17541Y49713D01*
X19185D01*
Y51356D01*
D02*
G37*
G36*
X20185D02*
Y49713D01*
X21829D01*
X21757Y50071D01*
X21271Y50799D01*
X20543Y51285D01*
X20185Y51356D01*
D02*
G37*
G36*
X298713Y62492D02*
X297069D01*
X297140Y62134D01*
X297626Y61406D01*
X298354Y60920D01*
X298713Y60848D01*
Y62492D01*
D02*
G37*
G36*
X301356D02*
X299713D01*
Y60848D01*
X300071Y60920D01*
X300799Y61406D01*
X301285Y62134D01*
X301356Y62492D01*
D02*
G37*
G36*
X227847D02*
X226203D01*
X226274Y62134D01*
X226760Y61406D01*
X227488Y60920D01*
X227847Y60848D01*
Y62492D01*
D02*
G37*
G36*
X230490D02*
X228847D01*
Y60848D01*
X229205Y60920D01*
X229933Y61406D01*
X230419Y62134D01*
X230490Y62492D01*
D02*
G37*
G36*
X440445D02*
X438801D01*
X438872Y62134D01*
X439359Y61406D01*
X440087Y60920D01*
X440445Y60848D01*
Y62492D01*
D02*
G37*
G36*
X443088D02*
X441445D01*
Y60848D01*
X441803Y60920D01*
X442531Y61406D01*
X443017Y62134D01*
X443088Y62492D01*
D02*
G37*
G36*
X369579D02*
X367935D01*
X368006Y62134D01*
X368493Y61406D01*
X369220Y60920D01*
X369579Y60848D01*
Y62492D01*
D02*
G37*
G36*
X372222D02*
X370579D01*
Y60848D01*
X370937Y60920D01*
X371665Y61406D01*
X372151Y62134D01*
X372222Y62492D01*
D02*
G37*
G36*
X200287Y57262D02*
X199929Y57191D01*
X199201Y56704D01*
X198715Y55976D01*
X198644Y55618D01*
X200287D01*
Y57262D01*
D02*
G37*
G36*
X201287D02*
Y55618D01*
X202931D01*
X202860Y55976D01*
X202374Y56704D01*
X201646Y57191D01*
X201287Y57262D01*
D02*
G37*
G36*
X125484D02*
X125126Y57191D01*
X124398Y56704D01*
X123912Y55976D01*
X123841Y55618D01*
X125484D01*
Y57262D01*
D02*
G37*
G36*
X126484D02*
Y55618D01*
X128128D01*
X128057Y55976D01*
X127570Y56704D01*
X126843Y57191D01*
X126484Y57262D01*
D02*
G37*
G36*
X156980Y62492D02*
X155337D01*
X155408Y62134D01*
X155894Y61406D01*
X156622Y60920D01*
X156980Y60848D01*
Y62492D01*
D02*
G37*
G36*
X159624D02*
X157980D01*
Y60848D01*
X158339Y60920D01*
X159066Y61406D01*
X159553Y62134D01*
X159624Y62492D01*
D02*
G37*
G36*
X86114D02*
X84470D01*
X84542Y62134D01*
X85028Y61406D01*
X85756Y60920D01*
X86114Y60848D01*
Y62492D01*
D02*
G37*
G36*
X88758D02*
X87114D01*
Y60848D01*
X87473Y60920D01*
X88200Y61406D01*
X88687Y62134D01*
X88758Y62492D01*
D02*
G37*
G36*
X322835Y145173D02*
X320925Y144922D01*
X319146Y144185D01*
X317618Y143012D01*
X316445Y141484D01*
X315708Y139705D01*
X315457Y137795D01*
X315708Y135886D01*
X315774Y135726D01*
Y112582D01*
X315367Y112414D01*
X313905Y111292D01*
X312783Y109829D01*
X312078Y108127D01*
X311837Y106299D01*
X312078Y104472D01*
X312783Y102769D01*
X313905Y101307D01*
X315367Y100185D01*
X315774Y100016D01*
Y41515D01*
X314843Y41280D01*
X314106Y43059D01*
X312934Y44587D01*
X311406Y45760D01*
X309626Y46497D01*
X307717Y46748D01*
X305807Y46497D01*
X304028Y45760D01*
X302500Y44587D01*
X301327Y43059D01*
X300590Y41280D01*
X300339Y39370D01*
X300590Y37461D01*
X301327Y35681D01*
X302500Y34153D01*
X304028Y32980D01*
X305807Y32243D01*
X307717Y31992D01*
X309626Y32243D01*
X311406Y32980D01*
X312934Y34153D01*
X314106Y35681D01*
X314843Y37461D01*
X315774Y37225D01*
Y29760D01*
X294777D01*
Y37301D01*
X294843Y37461D01*
X295095Y39370D01*
X294843Y41280D01*
X294106Y43059D01*
X292934Y44587D01*
X291406Y45760D01*
X289626Y46497D01*
X287717Y46748D01*
X285807Y46497D01*
X284028Y45760D01*
X282500Y44587D01*
X281327Y43059D01*
X280590Y41280D01*
X280339Y39370D01*
X280590Y37461D01*
X280656Y37301D01*
Y29760D01*
X223596D01*
Y37301D01*
X223662Y37461D01*
X223914Y39370D01*
X223662Y41280D01*
X222925Y43059D01*
X221753Y44587D01*
X220224Y45760D01*
X218445Y46497D01*
X216535Y46748D01*
X214626Y46497D01*
X212846Y45760D01*
X211318Y44587D01*
X210146Y43059D01*
X209409Y41280D01*
X209157Y39370D01*
X209409Y37461D01*
X209475Y37301D01*
Y29760D01*
X152730D01*
Y37301D01*
X152796Y37461D01*
X153047Y39370D01*
X152796Y41280D01*
X152059Y43059D01*
X150886Y44587D01*
X149358Y45760D01*
X147579Y46497D01*
X145669Y46748D01*
X143760Y46497D01*
X141980Y45760D01*
X140452Y44587D01*
X139280Y43059D01*
X138543Y41280D01*
X138291Y39370D01*
X138543Y37461D01*
X138609Y37301D01*
Y29760D01*
X83125D01*
X81470Y31415D01*
Y37694D01*
X81536Y37854D01*
X81788Y39764D01*
X81536Y41673D01*
X80799Y43453D01*
X79627Y44981D01*
X78099Y46153D01*
X76319Y46891D01*
X74410Y47142D01*
X72500Y46891D01*
X70720Y46153D01*
X69192Y44981D01*
X68020Y43453D01*
X67283Y41673D01*
X67031Y39764D01*
X67283Y37854D01*
X67349Y37694D01*
Y28490D01*
X67590Y26663D01*
X68295Y24960D01*
X69417Y23498D01*
X75208Y17707D01*
X76670Y16586D01*
X77169Y16379D01*
X78373Y15880D01*
X80200Y15640D01*
X80200Y15640D01*
X217500D01*
X217500Y15640D01*
X217500Y15640D01*
X287900D01*
X287900Y15640D01*
X287900Y15640D01*
X429700D01*
X429700Y15640D01*
X429700Y15640D01*
X567700D01*
X569527Y15880D01*
X571230Y16586D01*
X572692Y17707D01*
X576174Y21189D01*
X577296Y22651D01*
X577502Y23150D01*
X578001Y24354D01*
X578242Y26181D01*
X578242Y26181D01*
Y37301D01*
X578308Y37461D01*
X578559Y39370D01*
X578308Y41280D01*
X577571Y43059D01*
X576398Y44587D01*
X574870Y45760D01*
X573091Y46497D01*
X571181Y46748D01*
X569272Y46497D01*
X567492Y45760D01*
X565964Y44587D01*
X564792Y43059D01*
X564054Y41280D01*
X563803Y39370D01*
X564054Y37461D01*
X564121Y37301D01*
Y29760D01*
X507375D01*
Y37301D01*
X507442Y37461D01*
X507693Y39370D01*
X507442Y41280D01*
X506705Y43059D01*
X505532Y44587D01*
X504004Y45760D01*
X502225Y46497D01*
X500315Y46748D01*
X498405Y46497D01*
X496626Y45760D01*
X495098Y44587D01*
X493925Y43059D01*
X493188Y41280D01*
X492937Y39370D01*
X493188Y37461D01*
X493255Y37301D01*
Y29760D01*
X436509D01*
Y37301D01*
X436576Y37461D01*
X436827Y39370D01*
X436576Y41280D01*
X435839Y43059D01*
X434666Y44587D01*
X433138Y45760D01*
X431358Y46497D01*
X429449Y46748D01*
X427539Y46497D01*
X425760Y45760D01*
X424232Y44587D01*
X423059Y43059D01*
X422322Y41280D01*
X422071Y39370D01*
X422322Y37461D01*
X422389Y37301D01*
Y29760D01*
X365643D01*
Y37301D01*
X365709Y37461D01*
X365961Y39370D01*
X365709Y41280D01*
X364972Y43059D01*
X363800Y44587D01*
X362272Y45760D01*
X360492Y46497D01*
X358583Y46748D01*
X356673Y46497D01*
X354894Y45760D01*
X353366Y44587D01*
X352193Y43059D01*
X351456Y41280D01*
X351205Y39370D01*
X351456Y37461D01*
X351522Y37301D01*
Y29760D01*
X329895D01*
Y105900D01*
X329895Y105900D01*
X329895Y105900D01*
Y135726D01*
X329961Y135886D01*
X330213Y137795D01*
X329961Y139705D01*
X329224Y141484D01*
X328052Y143012D01*
X326524Y144185D01*
X324744Y144922D01*
X322835Y145173D01*
D02*
G37*
G36*
X479815Y38870D02*
X474011D01*
X474163Y37722D01*
X474799Y36185D01*
X475811Y34866D01*
X477130Y33854D01*
X478666Y33218D01*
X479815Y33066D01*
Y38870D01*
D02*
G37*
G36*
X486619D02*
X480815D01*
Y33066D01*
X481964Y33218D01*
X483500Y33854D01*
X484819Y34866D01*
X485831Y36185D01*
X486467Y37722D01*
X486619Y38870D01*
D02*
G37*
G36*
X408949D02*
X403145D01*
X403297Y37722D01*
X403933Y36185D01*
X404945Y34866D01*
X406264Y33854D01*
X407800Y33218D01*
X408949Y33066D01*
Y38870D01*
D02*
G37*
G36*
X415753D02*
X409949D01*
Y33066D01*
X411097Y33218D01*
X412634Y33854D01*
X413953Y34866D01*
X414965Y36185D01*
X415601Y37722D01*
X415753Y38870D01*
D02*
G37*
G36*
X53909Y39264D02*
X48106D01*
X48257Y38115D01*
X48893Y36579D01*
X49906Y35260D01*
X51225Y34248D01*
X52761Y33611D01*
X53909Y33460D01*
Y39264D01*
D02*
G37*
G36*
X60713D02*
X54909D01*
Y33460D01*
X56058Y33611D01*
X57594Y34248D01*
X58913Y35260D01*
X59926Y36579D01*
X60562Y38115D01*
X60713Y39264D01*
D02*
G37*
G36*
X550681Y38870D02*
X544877D01*
X545029Y37722D01*
X545665Y36185D01*
X546677Y34866D01*
X547997Y33854D01*
X549533Y33218D01*
X550681Y33066D01*
Y38870D01*
D02*
G37*
G36*
X557485D02*
X551681D01*
Y33066D01*
X552830Y33218D01*
X554366Y33854D01*
X555685Y34866D01*
X556697Y36185D01*
X557334Y37722D01*
X557485Y38870D01*
D02*
G37*
G36*
X196036D02*
X190232D01*
X190383Y37722D01*
X191019Y36185D01*
X192032Y34866D01*
X193351Y33854D01*
X194887Y33218D01*
X196036Y33066D01*
Y38870D01*
D02*
G37*
G36*
X202839D02*
X197036D01*
Y33066D01*
X198184Y33218D01*
X199720Y33854D01*
X201039Y34866D01*
X202052Y36185D01*
X202688Y37722D01*
X202839Y38870D01*
D02*
G37*
G36*
X125169D02*
X119366D01*
X119517Y37722D01*
X120153Y36185D01*
X121166Y34866D01*
X122485Y33854D01*
X124021Y33218D01*
X125169Y33066D01*
Y38870D01*
D02*
G37*
G36*
X131973D02*
X126169D01*
Y33066D01*
X127318Y33218D01*
X128854Y33854D01*
X130173Y34866D01*
X131185Y36185D01*
X131822Y37722D01*
X131973Y38870D01*
D02*
G37*
G36*
X338083D02*
X332279D01*
X332430Y37722D01*
X333067Y36185D01*
X334079Y34866D01*
X335398Y33854D01*
X336934Y33218D01*
X338083Y33066D01*
Y38870D01*
D02*
G37*
G36*
X344886D02*
X339083D01*
Y33066D01*
X340231Y33218D01*
X341768Y33854D01*
X343087Y34866D01*
X344099Y36185D01*
X344735Y37722D01*
X344886Y38870D01*
D02*
G37*
G36*
X267217D02*
X261413D01*
X261564Y37722D01*
X262200Y36185D01*
X263213Y34866D01*
X264532Y33854D01*
X266068Y33218D01*
X267217Y33066D01*
Y38870D01*
D02*
G37*
G36*
X274020D02*
X268217D01*
Y33066D01*
X269365Y33218D01*
X270901Y33854D01*
X272220Y34866D01*
X273233Y36185D01*
X273869Y37722D01*
X274020Y38870D01*
D02*
G37*
G36*
X479815Y45674D02*
X478666Y45523D01*
X477130Y44886D01*
X475811Y43874D01*
X474799Y42555D01*
X474163Y41019D01*
X474011Y39870D01*
X479815D01*
Y45674D01*
D02*
G37*
G36*
X480815D02*
Y39870D01*
X486619D01*
X486467Y41019D01*
X485831Y42555D01*
X484819Y43874D01*
X483500Y44886D01*
X481964Y45523D01*
X480815Y45674D01*
D02*
G37*
G36*
X408949D02*
X407800Y45523D01*
X406264Y44886D01*
X404945Y43874D01*
X403933Y42555D01*
X403297Y41019D01*
X403145Y39870D01*
X408949D01*
Y45674D01*
D02*
G37*
G36*
X409949D02*
Y39870D01*
X415753D01*
X415601Y41019D01*
X414965Y42555D01*
X413953Y43874D01*
X412634Y44886D01*
X411097Y45523D01*
X409949Y45674D01*
D02*
G37*
G36*
X53909Y46068D02*
X52761Y45916D01*
X51225Y45280D01*
X49906Y44268D01*
X48893Y42949D01*
X48257Y41412D01*
X48106Y40264D01*
X53909D01*
Y46068D01*
D02*
G37*
G36*
X54909D02*
Y40264D01*
X60713D01*
X60562Y41412D01*
X59926Y42949D01*
X58913Y44268D01*
X57594Y45280D01*
X56058Y45916D01*
X54909Y46068D01*
D02*
G37*
G36*
X550681Y45674D02*
X549533Y45523D01*
X547997Y44886D01*
X546677Y43874D01*
X545665Y42555D01*
X545029Y41019D01*
X544877Y39870D01*
X550681D01*
Y45674D01*
D02*
G37*
G36*
X551681D02*
Y39870D01*
X557485D01*
X557334Y41019D01*
X556697Y42555D01*
X555685Y43874D01*
X554366Y44886D01*
X552830Y45523D01*
X551681Y45674D01*
D02*
G37*
G36*
X196036D02*
X194887Y45523D01*
X193351Y44886D01*
X192032Y43874D01*
X191019Y42555D01*
X190383Y41019D01*
X190232Y39870D01*
X196036D01*
Y45674D01*
D02*
G37*
G36*
X197036D02*
Y39870D01*
X202839D01*
X202688Y41019D01*
X202052Y42555D01*
X201039Y43874D01*
X199720Y44886D01*
X198184Y45523D01*
X197036Y45674D01*
D02*
G37*
G36*
X125169D02*
X124021Y45523D01*
X122485Y44886D01*
X121166Y43874D01*
X120153Y42555D01*
X119517Y41019D01*
X119366Y39870D01*
X125169D01*
Y45674D01*
D02*
G37*
G36*
X126169D02*
Y39870D01*
X131973D01*
X131822Y41019D01*
X131185Y42555D01*
X130173Y43874D01*
X128854Y44886D01*
X127318Y45523D01*
X126169Y45674D01*
D02*
G37*
G36*
X338083D02*
X336934Y45523D01*
X335398Y44886D01*
X334079Y43874D01*
X333067Y42555D01*
X332430Y41019D01*
X332279Y39870D01*
X338083D01*
Y45674D01*
D02*
G37*
G36*
X339083D02*
Y39870D01*
X344886D01*
X344735Y41019D01*
X344099Y42555D01*
X343087Y43874D01*
X341768Y44886D01*
X340231Y45523D01*
X339083Y45674D01*
D02*
G37*
G36*
X267217D02*
X266068Y45523D01*
X264532Y44886D01*
X263213Y43874D01*
X262200Y42555D01*
X261564Y41019D01*
X261413Y39870D01*
X267217D01*
Y45674D01*
D02*
G37*
G36*
X268217D02*
Y39870D01*
X274020D01*
X273869Y41019D01*
X273233Y42555D01*
X272220Y43874D01*
X270901Y44886D01*
X269365Y45523D01*
X268217Y45674D01*
D02*
G37*
G36*
X344988Y90726D02*
Y89083D01*
X346632D01*
X346561Y89441D01*
X346074Y90169D01*
X345347Y90655D01*
X344988Y90726D01*
D02*
G37*
G36*
X393201D02*
X392842Y90655D01*
X392115Y90169D01*
X391628Y89441D01*
X391557Y89083D01*
X393201D01*
Y90726D01*
D02*
G37*
G36*
X197350D02*
Y89083D01*
X198994D01*
X198923Y89441D01*
X198436Y90169D01*
X197709Y90655D01*
X197350Y90726D01*
D02*
G37*
G36*
X343988D02*
X343630Y90655D01*
X342902Y90169D01*
X342416Y89441D01*
X342344Y89083D01*
X343988D01*
Y90726D01*
D02*
G37*
G36*
X413886D02*
Y89083D01*
X415529D01*
X415458Y89441D01*
X414972Y90169D01*
X414244Y90655D01*
X413886Y90726D01*
D02*
G37*
G36*
X206193Y97925D02*
X204549D01*
X204621Y97567D01*
X205107Y96839D01*
X205835Y96353D01*
X206193Y96282D01*
Y97925D01*
D02*
G37*
G36*
X394201Y90726D02*
Y89083D01*
X395844D01*
X395773Y89441D01*
X395287Y90169D01*
X394559Y90655D01*
X394201Y90726D01*
D02*
G37*
G36*
X412886D02*
X412527Y90655D01*
X411800Y90169D01*
X411313Y89441D01*
X411242Y89083D01*
X412886D01*
Y90726D01*
D02*
G37*
G36*
X346632Y88083D02*
X344988D01*
Y86439D01*
X345347Y86510D01*
X346074Y86997D01*
X346561Y87724D01*
X346632Y88083D01*
D02*
G37*
G36*
X393201D02*
X391557D01*
X391628Y87724D01*
X392115Y86997D01*
X392842Y86510D01*
X393201Y86439D01*
Y88083D01*
D02*
G37*
G36*
X198994D02*
X197350D01*
Y86439D01*
X197709Y86510D01*
X198436Y86997D01*
X198923Y87724D01*
X198994Y88083D01*
D02*
G37*
G36*
X343988D02*
X342344D01*
X342416Y87724D01*
X342902Y86997D01*
X343630Y86510D01*
X343988Y86439D01*
Y88083D01*
D02*
G37*
G36*
X415529D02*
X413886D01*
Y86439D01*
X414244Y86510D01*
X414972Y86997D01*
X415458Y87724D01*
X415529Y88083D01*
D02*
G37*
G36*
X196350Y90726D02*
X195992Y90655D01*
X195264Y90169D01*
X194778Y89441D01*
X194707Y89083D01*
X196350D01*
Y90726D01*
D02*
G37*
G36*
X395844Y88083D02*
X394201D01*
Y86439D01*
X394559Y86510D01*
X395287Y86997D01*
X395773Y87724D01*
X395844Y88083D01*
D02*
G37*
G36*
X412886D02*
X411242D01*
X411313Y87724D01*
X411800Y86997D01*
X412527Y86510D01*
X412886Y86439D01*
Y88083D01*
D02*
G37*
G36*
X246563Y100569D02*
Y98925D01*
X248207D01*
X248135Y99284D01*
X247649Y100011D01*
X246921Y100498D01*
X246563Y100569D01*
D02*
G37*
G36*
X265248D02*
X264890Y100498D01*
X264162Y100011D01*
X263676Y99284D01*
X263604Y98925D01*
X265248D01*
Y100569D01*
D02*
G37*
G36*
X207193D02*
Y98925D01*
X208837D01*
X208765Y99284D01*
X208279Y100011D01*
X207551Y100498D01*
X207193Y100569D01*
D02*
G37*
G36*
X245563D02*
X245205Y100498D01*
X244477Y100011D01*
X243991Y99284D01*
X243919Y98925D01*
X245563D01*
Y100569D01*
D02*
G37*
G36*
X531996D02*
Y98925D01*
X533640D01*
X533568Y99284D01*
X533082Y100011D01*
X532354Y100498D01*
X531996Y100569D01*
D02*
G37*
G36*
X298713Y105799D02*
X294680D01*
X294933Y104526D01*
X295937Y103024D01*
X297440Y102020D01*
X298713Y101766D01*
Y105799D01*
D02*
G37*
G36*
X266248Y100569D02*
Y98925D01*
X267892D01*
X267820Y99284D01*
X267334Y100011D01*
X266606Y100498D01*
X266248Y100569D01*
D02*
G37*
G36*
X530996D02*
X530638Y100498D01*
X529910Y100011D01*
X529424Y99284D01*
X529352Y98925D01*
X530996D01*
Y100569D01*
D02*
G37*
G36*
X248207Y97925D02*
X246563D01*
Y96282D01*
X246921Y96353D01*
X247649Y96839D01*
X248135Y97567D01*
X248207Y97925D01*
D02*
G37*
G36*
X265248D02*
X263604D01*
X263676Y97567D01*
X264162Y96839D01*
X264890Y96353D01*
X265248Y96282D01*
Y97925D01*
D02*
G37*
G36*
X208837D02*
X207193D01*
Y96282D01*
X207551Y96353D01*
X208279Y96839D01*
X208765Y97567D01*
X208837Y97925D01*
D02*
G37*
G36*
X245563D02*
X243919D01*
X243991Y97567D01*
X244477Y96839D01*
X245205Y96353D01*
X245563Y96282D01*
Y97925D01*
D02*
G37*
G36*
X533640D02*
X531996D01*
Y96282D01*
X532354Y96353D01*
X533082Y96839D01*
X533568Y97567D01*
X533640Y97925D01*
D02*
G37*
G36*
X206193Y100569D02*
X205835Y100498D01*
X205107Y100011D01*
X204621Y99284D01*
X204549Y98925D01*
X206193D01*
Y100569D01*
D02*
G37*
G36*
X267892Y97925D02*
X266248D01*
Y96282D01*
X266606Y96353D01*
X267334Y96839D01*
X267820Y97567D01*
X267892Y97925D01*
D02*
G37*
G36*
X530996D02*
X529352D01*
X529424Y97567D01*
X529910Y96839D01*
X530638Y96353D01*
X530996Y96282D01*
Y97925D01*
D02*
G37*
G36*
X196350Y88083D02*
X194707D01*
X194778Y87724D01*
X195264Y86997D01*
X195992Y86510D01*
X196350Y86439D01*
Y88083D01*
D02*
G37*
G36*
X298713Y65136D02*
X298354Y65065D01*
X297626Y64578D01*
X297140Y63850D01*
X297069Y63492D01*
X298713D01*
Y65136D01*
D02*
G37*
G36*
X299713D02*
Y63492D01*
X301356D01*
X301285Y63850D01*
X300799Y64578D01*
X300071Y65065D01*
X299713Y65136D01*
D02*
G37*
G36*
X227847D02*
X227488Y65065D01*
X226760Y64578D01*
X226274Y63850D01*
X226203Y63492D01*
X227847D01*
Y65136D01*
D02*
G37*
G36*
X228847D02*
Y63492D01*
X230490D01*
X230419Y63850D01*
X229933Y64578D01*
X229205Y65065D01*
X228847Y65136D01*
D02*
G37*
G36*
X440445D02*
X440087Y65065D01*
X439359Y64578D01*
X438872Y63850D01*
X438801Y63492D01*
X440445D01*
Y65136D01*
D02*
G37*
G36*
X441445D02*
Y63492D01*
X443088D01*
X443017Y63850D01*
X442531Y64578D01*
X441803Y65065D01*
X441445Y65136D01*
D02*
G37*
G36*
X369579D02*
X369220Y65065D01*
X368493Y64578D01*
X368006Y63850D01*
X367935Y63492D01*
X369579D01*
Y65136D01*
D02*
G37*
G36*
X370579D02*
Y63492D01*
X372222D01*
X372151Y63850D01*
X371665Y64578D01*
X370937Y65065D01*
X370579Y65136D01*
D02*
G37*
G36*
X582177Y62492D02*
X580534D01*
X580605Y62134D01*
X581091Y61406D01*
X581819Y60920D01*
X582177Y60848D01*
Y62492D01*
D02*
G37*
G36*
X584821D02*
X583177D01*
Y60848D01*
X583536Y60920D01*
X584263Y61406D01*
X584750Y62134D01*
X584821Y62492D01*
D02*
G37*
G36*
X511311D02*
X509667D01*
X509739Y62134D01*
X510225Y61406D01*
X510953Y60920D01*
X511311Y60848D01*
Y62492D01*
D02*
G37*
G36*
X513955D02*
X512311D01*
Y60848D01*
X512669Y60920D01*
X513397Y61406D01*
X513883Y62134D01*
X513955Y62492D01*
D02*
G37*
G36*
X156980Y65136D02*
X156622Y65065D01*
X155894Y64578D01*
X155408Y63850D01*
X155337Y63492D01*
X156980D01*
Y65136D01*
D02*
G37*
G36*
X157980D02*
Y63492D01*
X159624D01*
X159553Y63850D01*
X159066Y64578D01*
X158339Y65065D01*
X157980Y65136D01*
D02*
G37*
G36*
X86114D02*
X85756Y65065D01*
X85028Y64578D01*
X84542Y63850D01*
X84470Y63492D01*
X86114D01*
Y65136D01*
D02*
G37*
G36*
X87114D02*
Y63492D01*
X88758D01*
X88687Y63850D01*
X88200Y64578D01*
X87473Y65065D01*
X87114Y65136D01*
D02*
G37*
G36*
X19185Y80884D02*
X18827Y80813D01*
X18099Y80326D01*
X17613Y79599D01*
X17541Y79240D01*
X19185D01*
Y80884D01*
D02*
G37*
G36*
X20185D02*
Y79240D01*
X21829D01*
X21757Y79599D01*
X21271Y80326D01*
X20543Y80813D01*
X20185Y80884D01*
D02*
G37*
G36*
X629421Y78240D02*
X627778D01*
X627849Y77882D01*
X628335Y77154D01*
X629063Y76668D01*
X629421Y76596D01*
Y78240D01*
D02*
G37*
G36*
X632065D02*
X630421D01*
Y76596D01*
X630780Y76668D01*
X631507Y77154D01*
X631994Y77882D01*
X632065Y78240D01*
D02*
G37*
G36*
X629421Y80884D02*
X629063Y80813D01*
X628335Y80326D01*
X627849Y79599D01*
X627778Y79240D01*
X629421D01*
Y80884D01*
D02*
G37*
G36*
X630421D02*
Y79240D01*
X632065D01*
X631994Y79599D01*
X631507Y80326D01*
X630780Y80813D01*
X630421Y80884D01*
D02*
G37*
G36*
X255405D02*
X255047Y80813D01*
X254319Y80326D01*
X253833Y79599D01*
X253762Y79240D01*
X255405D01*
Y80884D01*
D02*
G37*
G36*
X256405D02*
Y79240D01*
X258049D01*
X257978Y79599D01*
X257492Y80326D01*
X256764Y80813D01*
X256405Y80884D01*
D02*
G37*
G36*
X582177Y65136D02*
X581819Y65065D01*
X581091Y64578D01*
X580605Y63850D01*
X580534Y63492D01*
X582177D01*
Y65136D01*
D02*
G37*
G36*
X583177D02*
Y63492D01*
X584821D01*
X584750Y63850D01*
X584263Y64578D01*
X583536Y65065D01*
X583177Y65136D01*
D02*
G37*
G36*
X511311D02*
X510953Y65065D01*
X510225Y64578D01*
X509739Y63850D01*
X509667Y63492D01*
X511311D01*
Y65136D01*
D02*
G37*
G36*
X512311D02*
Y63492D01*
X513955D01*
X513883Y63850D01*
X513397Y64578D01*
X512669Y65065D01*
X512311Y65136D01*
D02*
G37*
G36*
X255405Y78240D02*
X253762D01*
X253833Y77882D01*
X254319Y77154D01*
X255047Y76668D01*
X255405Y76596D01*
Y78240D01*
D02*
G37*
G36*
X258049D02*
X256405D01*
Y76596D01*
X256764Y76668D01*
X257492Y77154D01*
X257978Y77882D01*
X258049Y78240D01*
D02*
G37*
G36*
X19185D02*
X17541D01*
X17613Y77882D01*
X18099Y77154D01*
X18827Y76668D01*
X19185Y76596D01*
Y78240D01*
D02*
G37*
G36*
X21829D02*
X20185D01*
Y76596D01*
X20543Y76668D01*
X21271Y77154D01*
X21757Y77882D01*
X21829Y78240D01*
D02*
G37*
G36*
X94410Y47142D02*
X92500Y46891D01*
X90720Y46153D01*
X89192Y44981D01*
X88020Y43453D01*
X87283Y41673D01*
X87031Y39764D01*
X87283Y37854D01*
X88020Y36075D01*
X89192Y34547D01*
X90720Y33374D01*
X92500Y32637D01*
X94410Y32386D01*
X96319Y32637D01*
X98099Y33374D01*
X99627Y34547D01*
X100799Y36075D01*
X101536Y37854D01*
X101788Y39764D01*
X101536Y41673D01*
X100799Y43453D01*
X99627Y44981D01*
X98099Y46153D01*
X96319Y46891D01*
X94410Y47142D01*
D02*
G37*
G36*
X415529Y9342D02*
X413886D01*
Y7699D01*
X414244Y7770D01*
X414972Y8256D01*
X415458Y8984D01*
X415529Y9342D01*
D02*
G37*
G36*
X432571D02*
X430927D01*
X430999Y8984D01*
X431485Y8256D01*
X432212Y7770D01*
X432571Y7699D01*
Y9342D01*
D02*
G37*
G36*
X395844D02*
X394201D01*
Y7699D01*
X394559Y7770D01*
X395287Y8256D01*
X395773Y8984D01*
X395844Y9342D01*
D02*
G37*
G36*
X412886D02*
X411242D01*
X411313Y8984D01*
X411800Y8256D01*
X412527Y7770D01*
X412886Y7699D01*
Y9342D01*
D02*
G37*
G36*
X454900D02*
X453256D01*
Y7699D01*
X453614Y7770D01*
X454342Y8256D01*
X454828Y8984D01*
X454900Y9342D01*
D02*
G37*
G36*
X471941D02*
X470297D01*
X470369Y8984D01*
X470855Y8256D01*
X471583Y7770D01*
X471941Y7699D01*
Y9342D01*
D02*
G37*
G36*
X435215D02*
X433571D01*
Y7699D01*
X433929Y7770D01*
X434657Y8256D01*
X435143Y8984D01*
X435215Y9342D01*
D02*
G37*
G36*
X452256D02*
X450612D01*
X450684Y8984D01*
X451170Y8256D01*
X451897Y7770D01*
X452256Y7699D01*
Y9342D01*
D02*
G37*
G36*
X336789D02*
X335146D01*
Y7699D01*
X335504Y7770D01*
X336232Y8256D01*
X336718Y8984D01*
X336789Y9342D01*
D02*
G37*
G36*
X353831D02*
X352187D01*
X352258Y8984D01*
X352745Y8256D01*
X353472Y7770D01*
X353831Y7699D01*
Y9342D01*
D02*
G37*
G36*
X317104D02*
X315461D01*
Y7699D01*
X315819Y7770D01*
X316547Y8256D01*
X317033Y8984D01*
X317104Y9342D01*
D02*
G37*
G36*
X334146D02*
X332502D01*
X332573Y8984D01*
X333060Y8256D01*
X333787Y7770D01*
X334146Y7699D01*
Y9342D01*
D02*
G37*
G36*
X376159D02*
X374516D01*
Y7699D01*
X374874Y7770D01*
X375602Y8256D01*
X376088Y8984D01*
X376159Y9342D01*
D02*
G37*
G36*
X393201D02*
X391557D01*
X391628Y8984D01*
X392115Y8256D01*
X392842Y7770D01*
X393201Y7699D01*
Y9342D01*
D02*
G37*
G36*
X356474D02*
X354831D01*
Y7699D01*
X355189Y7770D01*
X355917Y8256D01*
X356403Y8984D01*
X356474Y9342D01*
D02*
G37*
G36*
X373516D02*
X371872D01*
X371943Y8984D01*
X372430Y8256D01*
X373157Y7770D01*
X373516Y7699D01*
Y9342D01*
D02*
G37*
G36*
X582852D02*
X581209D01*
Y7699D01*
X581567Y7770D01*
X582295Y8256D01*
X582781Y8984D01*
X582852Y9342D01*
D02*
G37*
G36*
X599894D02*
X598250D01*
X598321Y8984D01*
X598808Y8256D01*
X599535Y7770D01*
X599894Y7699D01*
Y9342D01*
D02*
G37*
G36*
X563167D02*
X561524D01*
Y7699D01*
X561882Y7770D01*
X562610Y8256D01*
X563096Y8984D01*
X563167Y9342D01*
D02*
G37*
G36*
X580209D02*
X578565D01*
X578636Y8984D01*
X579122Y8256D01*
X579850Y7770D01*
X580209Y7699D01*
Y9342D01*
D02*
G37*
G36*
X39870Y11986D02*
Y10343D01*
X41514D01*
X41442Y10701D01*
X40956Y11429D01*
X40229Y11915D01*
X39870Y11986D01*
D02*
G37*
G36*
X58555D02*
X58197Y11915D01*
X57469Y11429D01*
X56983Y10701D01*
X56911Y10343D01*
X58555D01*
Y11986D01*
D02*
G37*
G36*
X602537Y9342D02*
X600894D01*
Y7699D01*
X601252Y7770D01*
X601980Y8256D01*
X602466Y8984D01*
X602537Y9342D01*
D02*
G37*
G36*
X38870Y11986D02*
X38512Y11915D01*
X37784Y11429D01*
X37298Y10701D01*
X37226Y10343D01*
X38870D01*
Y11986D01*
D02*
G37*
G36*
X494270Y9342D02*
X492626D01*
Y7699D01*
X492984Y7770D01*
X493712Y8256D01*
X494198Y8984D01*
X494270Y9342D01*
D02*
G37*
G36*
X511311D02*
X509667D01*
X509739Y8984D01*
X510225Y8256D01*
X510953Y7770D01*
X511311Y7699D01*
Y9342D01*
D02*
G37*
G36*
X474585D02*
X472941D01*
Y7699D01*
X473299Y7770D01*
X474027Y8256D01*
X474513Y8984D01*
X474585Y9342D01*
D02*
G37*
G36*
X491626D02*
X489982D01*
X490054Y8984D01*
X490540Y8256D01*
X491268Y7770D01*
X491626Y7699D01*
Y9342D01*
D02*
G37*
G36*
X543482D02*
X541839D01*
Y7699D01*
X542197Y7770D01*
X542925Y8256D01*
X543411Y8984D01*
X543482Y9342D01*
D02*
G37*
G36*
X560524D02*
X558880D01*
X558951Y8984D01*
X559438Y8256D01*
X560165Y7770D01*
X560524Y7699D01*
Y9342D01*
D02*
G37*
G36*
X513955D02*
X512311D01*
Y7699D01*
X512669Y7770D01*
X513397Y8256D01*
X513883Y8984D01*
X513955Y9342D01*
D02*
G37*
G36*
X540839D02*
X539195D01*
X539266Y8984D01*
X539752Y8256D01*
X540480Y7770D01*
X540839Y7699D01*
Y9342D01*
D02*
G37*
G36*
X314461D02*
X312817D01*
X312888Y8984D01*
X313374Y8256D01*
X314102Y7770D01*
X314461Y7699D01*
Y9342D01*
D02*
G37*
G36*
X97925D02*
X96282D01*
X96353Y8984D01*
X96839Y8256D01*
X97567Y7770D01*
X97925Y7699D01*
Y9342D01*
D02*
G37*
G36*
X100569D02*
X98925D01*
Y7699D01*
X99284Y7770D01*
X100011Y8256D01*
X100498Y8984D01*
X100569Y9342D01*
D02*
G37*
G36*
X78240D02*
X76596D01*
X76668Y8984D01*
X77154Y8256D01*
X77882Y7770D01*
X78240Y7699D01*
Y9342D01*
D02*
G37*
G36*
X80884D02*
X79240D01*
Y7699D01*
X79599Y7770D01*
X80326Y8256D01*
X80813Y8984D01*
X80884Y9342D01*
D02*
G37*
G36*
X137295D02*
X135652D01*
X135723Y8984D01*
X136209Y8256D01*
X136937Y7770D01*
X137295Y7699D01*
Y9342D01*
D02*
G37*
G36*
X139939D02*
X138295D01*
Y7699D01*
X138654Y7770D01*
X139381Y8256D01*
X139868Y8984D01*
X139939Y9342D01*
D02*
G37*
G36*
X117610D02*
X115967D01*
X116038Y8984D01*
X116524Y8256D01*
X117252Y7770D01*
X117610Y7699D01*
Y9342D01*
D02*
G37*
G36*
X120254D02*
X118610D01*
Y7699D01*
X118969Y7770D01*
X119696Y8256D01*
X120183Y8984D01*
X120254Y9342D01*
D02*
G37*
G36*
X625484Y19185D02*
X613161D01*
X613359Y17174D01*
X614091Y14759D01*
X615281Y12533D01*
X616882Y10582D01*
X618832Y8981D01*
X621058Y7792D01*
X623473Y7059D01*
X625484Y6861D01*
Y19185D01*
D02*
G37*
G36*
X638808D02*
X626484D01*
Y6861D01*
X628496Y7059D01*
X630910Y7792D01*
X633136Y8981D01*
X635087Y10582D01*
X636688Y12533D01*
X637877Y14759D01*
X638610Y17174D01*
X638808Y19185D01*
D02*
G37*
G36*
X19185D02*
X6861D01*
X7059Y17174D01*
X7792Y14759D01*
X8981Y12533D01*
X10582Y10582D01*
X12533Y8981D01*
X14759Y7792D01*
X17174Y7059D01*
X19185Y6861D01*
Y19185D01*
D02*
G37*
G36*
X32509D02*
X20185D01*
Y6861D01*
X22196Y7059D01*
X24611Y7792D01*
X26837Y8981D01*
X28788Y10582D01*
X30389Y12533D01*
X31578Y14759D01*
X32311Y17174D01*
X32509Y19185D01*
D02*
G37*
G36*
X58555Y9342D02*
X56911D01*
X56983Y8984D01*
X57469Y8256D01*
X58197Y7770D01*
X58555Y7699D01*
Y9342D01*
D02*
G37*
G36*
X61199D02*
X59555D01*
Y7699D01*
X59913Y7770D01*
X60641Y8256D01*
X61128Y8984D01*
X61199Y9342D01*
D02*
G37*
G36*
X38870D02*
X37226D01*
X37298Y8984D01*
X37784Y8256D01*
X38512Y7770D01*
X38870Y7699D01*
Y9342D01*
D02*
G37*
G36*
X41514D02*
X39870D01*
Y7699D01*
X40229Y7770D01*
X40956Y8256D01*
X41442Y8984D01*
X41514Y9342D01*
D02*
G37*
G36*
X255405D02*
X253762D01*
X253833Y8984D01*
X254319Y8256D01*
X255047Y7770D01*
X255405Y7699D01*
Y9342D01*
D02*
G37*
G36*
X258049D02*
X256405D01*
Y7699D01*
X256764Y7770D01*
X257492Y8256D01*
X257978Y8984D01*
X258049Y9342D01*
D02*
G37*
G36*
X235720D02*
X234077D01*
X234148Y8984D01*
X234634Y8256D01*
X235362Y7770D01*
X235720Y7699D01*
Y9342D01*
D02*
G37*
G36*
X238364D02*
X236720D01*
Y7699D01*
X237079Y7770D01*
X237807Y8256D01*
X238293Y8984D01*
X238364Y9342D01*
D02*
G37*
G36*
X294776D02*
X293132D01*
X293203Y8984D01*
X293689Y8256D01*
X294417Y7770D01*
X294776Y7699D01*
Y9342D01*
D02*
G37*
G36*
X297419D02*
X295776D01*
Y7699D01*
X296134Y7770D01*
X296862Y8256D01*
X297348Y8984D01*
X297419Y9342D01*
D02*
G37*
G36*
X275091D02*
X273447D01*
X273518Y8984D01*
X274004Y8256D01*
X274732Y7770D01*
X275091Y7699D01*
Y9342D01*
D02*
G37*
G36*
X277734D02*
X276091D01*
Y7699D01*
X276449Y7770D01*
X277177Y8256D01*
X277663Y8984D01*
X277734Y9342D01*
D02*
G37*
G36*
X176665D02*
X175022D01*
X175093Y8984D01*
X175579Y8256D01*
X176307Y7770D01*
X176665Y7699D01*
Y9342D01*
D02*
G37*
G36*
X179309D02*
X177665D01*
Y7699D01*
X178024Y7770D01*
X178752Y8256D01*
X179238Y8984D01*
X179309Y9342D01*
D02*
G37*
G36*
X156980D02*
X155337D01*
X155408Y8984D01*
X155894Y8256D01*
X156622Y7770D01*
X156980Y7699D01*
Y9342D01*
D02*
G37*
G36*
X159624D02*
X157980D01*
Y7699D01*
X158339Y7770D01*
X159066Y8256D01*
X159553Y8984D01*
X159624Y9342D01*
D02*
G37*
G36*
X216035D02*
X214392D01*
X214463Y8984D01*
X214949Y8256D01*
X215677Y7770D01*
X216035Y7699D01*
Y9342D01*
D02*
G37*
G36*
X218679D02*
X217035D01*
Y7699D01*
X217394Y7770D01*
X218122Y8256D01*
X218608Y8984D01*
X218679Y9342D01*
D02*
G37*
G36*
X196350D02*
X194707D01*
X194778Y8984D01*
X195264Y8256D01*
X195992Y7770D01*
X196350Y7699D01*
Y9342D01*
D02*
G37*
G36*
X198994D02*
X197350D01*
Y7699D01*
X197709Y7770D01*
X198436Y8256D01*
X198923Y8984D01*
X198994Y9342D01*
D02*
G37*
G36*
X491626Y11986D02*
X491268Y11915D01*
X490540Y11429D01*
X490054Y10701D01*
X489982Y10343D01*
X491626D01*
Y11986D01*
D02*
G37*
G36*
X492626D02*
Y10343D01*
X494270D01*
X494198Y10701D01*
X493712Y11429D01*
X492984Y11915D01*
X492626Y11986D01*
D02*
G37*
G36*
X471941D02*
X471583Y11915D01*
X470855Y11429D01*
X470369Y10701D01*
X470297Y10343D01*
X471941D01*
Y11986D01*
D02*
G37*
G36*
X472941D02*
Y10343D01*
X474585D01*
X474513Y10701D01*
X474027Y11429D01*
X473299Y11915D01*
X472941Y11986D01*
D02*
G37*
G36*
X540839D02*
X540480Y11915D01*
X539752Y11429D01*
X539266Y10701D01*
X539195Y10343D01*
X540839D01*
Y11986D01*
D02*
G37*
G36*
X541839D02*
Y10343D01*
X543482D01*
X543411Y10701D01*
X542925Y11429D01*
X542197Y11915D01*
X541839Y11986D01*
D02*
G37*
G36*
X511311D02*
X510953Y11915D01*
X510225Y11429D01*
X509739Y10701D01*
X509667Y10343D01*
X511311D01*
Y11986D01*
D02*
G37*
G36*
X512311D02*
Y10343D01*
X513955D01*
X513883Y10701D01*
X513397Y11429D01*
X512669Y11915D01*
X512311Y11986D01*
D02*
G37*
G36*
X412886D02*
X412527Y11915D01*
X411800Y11429D01*
X411313Y10701D01*
X411242Y10343D01*
X412886D01*
Y11986D01*
D02*
G37*
G36*
X413886D02*
Y10343D01*
X415529D01*
X415458Y10701D01*
X414972Y11429D01*
X414244Y11915D01*
X413886Y11986D01*
D02*
G37*
G36*
X393201D02*
X392842Y11915D01*
X392115Y11429D01*
X391628Y10701D01*
X391557Y10343D01*
X393201D01*
Y11986D01*
D02*
G37*
G36*
X394201D02*
Y10343D01*
X395844D01*
X395773Y10701D01*
X395287Y11429D01*
X394559Y11915D01*
X394201Y11986D01*
D02*
G37*
G36*
X452256D02*
X451897Y11915D01*
X451170Y11429D01*
X450684Y10701D01*
X450612Y10343D01*
X452256D01*
Y11986D01*
D02*
G37*
G36*
X453256D02*
Y10343D01*
X454900D01*
X454828Y10701D01*
X454342Y11429D01*
X453614Y11915D01*
X453256Y11986D01*
D02*
G37*
G36*
X432571D02*
X432212Y11915D01*
X431485Y11429D01*
X430999Y10701D01*
X430927Y10343D01*
X432571D01*
Y11986D01*
D02*
G37*
G36*
X433571D02*
Y10343D01*
X435215D01*
X435143Y10701D01*
X434657Y11429D01*
X433929Y11915D01*
X433571Y11986D01*
D02*
G37*
G36*
X165669Y46748D02*
X163760Y46497D01*
X161980Y45760D01*
X160452Y44587D01*
X159280Y43059D01*
X158543Y41280D01*
X158291Y39370D01*
X158543Y37461D01*
X159280Y35681D01*
X160452Y34153D01*
X161980Y32980D01*
X163760Y32243D01*
X165669Y31992D01*
X167579Y32243D01*
X169358Y32980D01*
X170886Y34153D01*
X172059Y35681D01*
X172796Y37461D01*
X173047Y39370D01*
X172796Y41280D01*
X172059Y43059D01*
X170886Y44587D01*
X169358Y45760D01*
X167579Y46497D01*
X165669Y46748D01*
D02*
G37*
G36*
X236536D02*
X234626Y46497D01*
X232846Y45760D01*
X231318Y44587D01*
X230146Y43059D01*
X229409Y41280D01*
X229157Y39370D01*
X229409Y37461D01*
X230146Y35681D01*
X231318Y34153D01*
X232846Y32980D01*
X234626Y32243D01*
X236536Y31992D01*
X238445Y32243D01*
X240225Y32980D01*
X241753Y34153D01*
X242925Y35681D01*
X243662Y37461D01*
X243914Y39370D01*
X243662Y41280D01*
X242925Y43059D01*
X241753Y44587D01*
X240225Y45760D01*
X238445Y46497D01*
X236536Y46748D01*
D02*
G37*
G36*
X625484Y32509D02*
X623473Y32311D01*
X621058Y31578D01*
X618832Y30389D01*
X616882Y28788D01*
X615281Y26837D01*
X614091Y24611D01*
X613359Y22196D01*
X613161Y20185D01*
X625484D01*
Y32509D01*
D02*
G37*
G36*
X626484D02*
Y20185D01*
X638808D01*
X638610Y22196D01*
X637877Y24611D01*
X636688Y26837D01*
X635087Y28788D01*
X633136Y30389D01*
X630910Y31578D01*
X628496Y32311D01*
X626484Y32509D01*
D02*
G37*
G36*
X520315Y46748D02*
X518405Y46497D01*
X516626Y45760D01*
X515098Y44587D01*
X513925Y43059D01*
X513188Y41280D01*
X512937Y39370D01*
X513188Y37461D01*
X513925Y35681D01*
X515098Y34153D01*
X516626Y32980D01*
X518405Y32243D01*
X520315Y31992D01*
X522225Y32243D01*
X524004Y32980D01*
X525532Y34153D01*
X526705Y35681D01*
X527442Y37461D01*
X527693Y39370D01*
X527442Y41280D01*
X526705Y43059D01*
X525532Y44587D01*
X524004Y45760D01*
X522225Y46497D01*
X520315Y46748D01*
D02*
G37*
G36*
X591181D02*
X589272Y46497D01*
X587492Y45760D01*
X585964Y44587D01*
X584792Y43059D01*
X584055Y41280D01*
X583803Y39370D01*
X584055Y37461D01*
X584792Y35681D01*
X585964Y34153D01*
X587492Y32980D01*
X589272Y32243D01*
X591181Y31992D01*
X593091Y32243D01*
X594870Y32980D01*
X596398Y34153D01*
X597571Y35681D01*
X598308Y37461D01*
X598559Y39370D01*
X598308Y41280D01*
X597571Y43059D01*
X596398Y44587D01*
X594870Y45760D01*
X593091Y46497D01*
X591181Y46748D01*
D02*
G37*
G36*
X378583D02*
X376673Y46497D01*
X374894Y45760D01*
X373366Y44587D01*
X372193Y43059D01*
X371456Y41280D01*
X371205Y39370D01*
X371456Y37461D01*
X372193Y35681D01*
X373366Y34153D01*
X374894Y32980D01*
X376673Y32243D01*
X378583Y31992D01*
X380492Y32243D01*
X382272Y32980D01*
X383800Y34153D01*
X384972Y35681D01*
X385709Y37461D01*
X385961Y39370D01*
X385709Y41280D01*
X384972Y43059D01*
X383800Y44587D01*
X382272Y45760D01*
X380492Y46497D01*
X378583Y46748D01*
D02*
G37*
G36*
X449449D02*
X447539Y46497D01*
X445760Y45760D01*
X444232Y44587D01*
X443059Y43059D01*
X442322Y41280D01*
X442071Y39370D01*
X442322Y37461D01*
X443059Y35681D01*
X444232Y34153D01*
X445760Y32980D01*
X447539Y32243D01*
X449449Y31992D01*
X451359Y32243D01*
X453138Y32980D01*
X454666Y34153D01*
X455838Y35681D01*
X456576Y37461D01*
X456827Y39370D01*
X456576Y41280D01*
X455838Y43059D01*
X454666Y44587D01*
X453138Y45760D01*
X451359Y46497D01*
X449449Y46748D01*
D02*
G37*
G36*
X580209Y11986D02*
X579850Y11915D01*
X579122Y11429D01*
X578636Y10701D01*
X578565Y10343D01*
X580209D01*
Y11986D01*
D02*
G37*
G36*
X581209D02*
Y10343D01*
X582852D01*
X582781Y10701D01*
X582295Y11429D01*
X581567Y11915D01*
X581209Y11986D01*
D02*
G37*
G36*
X560524D02*
X560165Y11915D01*
X559438Y11429D01*
X558951Y10701D01*
X558880Y10343D01*
X560524D01*
Y11986D01*
D02*
G37*
G36*
X561524D02*
Y10343D01*
X563167D01*
X563096Y10701D01*
X562610Y11429D01*
X561882Y11915D01*
X561524Y11986D01*
D02*
G37*
G36*
X19185Y32509D02*
X17174Y32311D01*
X14759Y31578D01*
X12533Y30389D01*
X10582Y28788D01*
X8981Y26837D01*
X7792Y24611D01*
X7059Y22196D01*
X6861Y20185D01*
X19185D01*
Y32509D01*
D02*
G37*
G36*
X20185D02*
Y20185D01*
X32509D01*
X32311Y22196D01*
X31578Y24611D01*
X30389Y26837D01*
X28788Y28788D01*
X26837Y30389D01*
X24611Y31578D01*
X22196Y32311D01*
X20185Y32509D01*
D02*
G37*
G36*
X599894Y11986D02*
X599535Y11915D01*
X598808Y11429D01*
X598321Y10701D01*
X598250Y10343D01*
X599894D01*
Y11986D01*
D02*
G37*
G36*
X600894D02*
Y10343D01*
X602537D01*
X602466Y10701D01*
X601980Y11429D01*
X601252Y11915D01*
X600894Y11986D01*
D02*
G37*
G36*
X374516D02*
Y10343D01*
X376159D01*
X376088Y10701D01*
X375602Y11429D01*
X374874Y11915D01*
X374516Y11986D01*
D02*
G37*
G36*
X157980D02*
Y10343D01*
X159624D01*
X159553Y10701D01*
X159066Y11429D01*
X158339Y11915D01*
X157980Y11986D01*
D02*
G37*
G36*
X176665D02*
X176307Y11915D01*
X175579Y11429D01*
X175093Y10701D01*
X175022Y10343D01*
X176665D01*
Y11986D01*
D02*
G37*
G36*
X138295D02*
Y10343D01*
X139939D01*
X139868Y10701D01*
X139381Y11429D01*
X138654Y11915D01*
X138295Y11986D01*
D02*
G37*
G36*
X156980D02*
X156622Y11915D01*
X155894Y11429D01*
X155408Y10701D01*
X155337Y10343D01*
X156980D01*
Y11986D01*
D02*
G37*
G36*
X197350D02*
Y10343D01*
X198994D01*
X198923Y10701D01*
X198436Y11429D01*
X197709Y11915D01*
X197350Y11986D01*
D02*
G37*
G36*
X216035D02*
X215677Y11915D01*
X214949Y11429D01*
X214463Y10701D01*
X214392Y10343D01*
X216035D01*
Y11986D01*
D02*
G37*
G36*
X177665D02*
Y10343D01*
X179309D01*
X179238Y10701D01*
X178752Y11429D01*
X178024Y11915D01*
X177665Y11986D01*
D02*
G37*
G36*
X196350D02*
X195992Y11915D01*
X195264Y11429D01*
X194778Y10701D01*
X194707Y10343D01*
X196350D01*
Y11986D01*
D02*
G37*
G36*
X79240D02*
Y10343D01*
X80884D01*
X80813Y10701D01*
X80326Y11429D01*
X79599Y11915D01*
X79240Y11986D01*
D02*
G37*
G36*
X97925D02*
X97567Y11915D01*
X96839Y11429D01*
X96353Y10701D01*
X96282Y10343D01*
X97925D01*
Y11986D01*
D02*
G37*
G36*
X59555D02*
Y10343D01*
X61199D01*
X61128Y10701D01*
X60641Y11429D01*
X59913Y11915D01*
X59555Y11986D01*
D02*
G37*
G36*
X78240D02*
X77882Y11915D01*
X77154Y11429D01*
X76668Y10701D01*
X76596Y10343D01*
X78240D01*
Y11986D01*
D02*
G37*
G36*
X118610D02*
Y10343D01*
X120254D01*
X120183Y10701D01*
X119696Y11429D01*
X118969Y11915D01*
X118610Y11986D01*
D02*
G37*
G36*
X137295D02*
X136937Y11915D01*
X136209Y11429D01*
X135723Y10701D01*
X135652Y10343D01*
X137295D01*
Y11986D01*
D02*
G37*
G36*
X98925D02*
Y10343D01*
X100569D01*
X100498Y10701D01*
X100011Y11429D01*
X99284Y11915D01*
X98925Y11986D01*
D02*
G37*
G36*
X117610D02*
X117252Y11915D01*
X116524Y11429D01*
X116038Y10701D01*
X115967Y10343D01*
X117610D01*
Y11986D01*
D02*
G37*
G36*
X315461D02*
Y10343D01*
X317104D01*
X317033Y10701D01*
X316547Y11429D01*
X315819Y11915D01*
X315461Y11986D01*
D02*
G37*
G36*
X334146D02*
X333787Y11915D01*
X333060Y11429D01*
X332573Y10701D01*
X332502Y10343D01*
X334146D01*
Y11986D01*
D02*
G37*
G36*
X295776D02*
Y10343D01*
X297419D01*
X297348Y10701D01*
X296862Y11429D01*
X296134Y11915D01*
X295776Y11986D01*
D02*
G37*
G36*
X314461D02*
X314102Y11915D01*
X313374Y11429D01*
X312888Y10701D01*
X312817Y10343D01*
X314461D01*
Y11986D01*
D02*
G37*
G36*
X354831D02*
Y10343D01*
X356474D01*
X356403Y10701D01*
X355917Y11429D01*
X355189Y11915D01*
X354831Y11986D01*
D02*
G37*
G36*
X373516D02*
X373157Y11915D01*
X372430Y11429D01*
X371943Y10701D01*
X371872Y10343D01*
X373516D01*
Y11986D01*
D02*
G37*
G36*
X335146D02*
Y10343D01*
X336789D01*
X336718Y10701D01*
X336232Y11429D01*
X335504Y11915D01*
X335146Y11986D01*
D02*
G37*
G36*
X353831D02*
X353472Y11915D01*
X352745Y11429D01*
X352258Y10701D01*
X352187Y10343D01*
X353831D01*
Y11986D01*
D02*
G37*
G36*
X236720D02*
Y10343D01*
X238364D01*
X238293Y10701D01*
X237807Y11429D01*
X237079Y11915D01*
X236720Y11986D01*
D02*
G37*
G36*
X255405D02*
X255047Y11915D01*
X254319Y11429D01*
X253833Y10701D01*
X253762Y10343D01*
X255405D01*
Y11986D01*
D02*
G37*
G36*
X217035D02*
Y10343D01*
X218679D01*
X218608Y10701D01*
X218122Y11429D01*
X217394Y11915D01*
X217035Y11986D01*
D02*
G37*
G36*
X235720D02*
X235362Y11915D01*
X234634Y11429D01*
X234148Y10701D01*
X234077Y10343D01*
X235720D01*
Y11986D01*
D02*
G37*
G36*
X276091D02*
Y10343D01*
X277734D01*
X277663Y10701D01*
X277177Y11429D01*
X276449Y11915D01*
X276091Y11986D01*
D02*
G37*
G36*
X294776D02*
X294417Y11915D01*
X293689Y11429D01*
X293203Y10701D01*
X293132Y10343D01*
X294776D01*
Y11986D01*
D02*
G37*
G36*
X256405D02*
Y10343D01*
X258049D01*
X257978Y10701D01*
X257492Y11429D01*
X256764Y11915D01*
X256405Y11986D01*
D02*
G37*
G36*
X275091D02*
X274732Y11915D01*
X274004Y11429D01*
X273518Y10701D01*
X273447Y10343D01*
X275091D01*
Y11986D01*
D02*
G37*
G36*
X303745Y105799D02*
X299713D01*
Y101766D01*
X300985Y102020D01*
X302488Y103024D01*
X303492Y104526D01*
X303745Y105799D01*
D02*
G37*
G36*
X314461Y166823D02*
X312817D01*
X312888Y166464D01*
X313374Y165737D01*
X314102Y165251D01*
X314461Y165179D01*
Y166823D01*
D02*
G37*
G36*
X317104D02*
X315461D01*
Y165179D01*
X315819Y165251D01*
X316547Y165737D01*
X317033Y166464D01*
X317104Y166823D01*
D02*
G37*
G36*
X294776D02*
X293132D01*
X293203Y166464D01*
X293689Y165737D01*
X294417Y165251D01*
X294776Y165179D01*
Y166823D01*
D02*
G37*
G36*
X297419D02*
X295776D01*
Y165179D01*
X296134Y165251D01*
X296862Y165737D01*
X297348Y166464D01*
X297419Y166823D01*
D02*
G37*
G36*
X353831D02*
X352187D01*
X352258Y166464D01*
X352745Y165737D01*
X353472Y165251D01*
X353831Y165179D01*
Y166823D01*
D02*
G37*
G36*
X356474D02*
X354831D01*
Y165179D01*
X355189Y165251D01*
X355917Y165737D01*
X356403Y166464D01*
X356474Y166823D01*
D02*
G37*
G36*
X334146D02*
X332502D01*
X332573Y166464D01*
X333060Y165737D01*
X333787Y165251D01*
X334146Y165179D01*
Y166823D01*
D02*
G37*
G36*
X336789D02*
X335146D01*
Y165179D01*
X335504Y165251D01*
X336232Y165737D01*
X336718Y166464D01*
X336789Y166823D01*
D02*
G37*
G36*
X235720D02*
X234077D01*
X234148Y166464D01*
X234634Y165737D01*
X235362Y165251D01*
X235720Y165179D01*
Y166823D01*
D02*
G37*
G36*
X238364D02*
X236720D01*
Y165179D01*
X237079Y165251D01*
X237807Y165737D01*
X238293Y166464D01*
X238364Y166823D01*
D02*
G37*
G36*
X216035D02*
X214392D01*
X214463Y166464D01*
X214949Y165737D01*
X215677Y165251D01*
X216035Y165179D01*
Y166823D01*
D02*
G37*
G36*
X218679D02*
X217035D01*
Y165179D01*
X217394Y165251D01*
X218122Y165737D01*
X218608Y166464D01*
X218679Y166823D01*
D02*
G37*
G36*
X275091D02*
X273447D01*
X273518Y166464D01*
X274004Y165737D01*
X274732Y165251D01*
X275091Y165179D01*
Y166823D01*
D02*
G37*
G36*
X277734D02*
X276091D01*
Y165179D01*
X276449Y165251D01*
X277177Y165737D01*
X277663Y166464D01*
X277734Y166823D01*
D02*
G37*
G36*
X255405D02*
X253762D01*
X253833Y166464D01*
X254319Y165737D01*
X255047Y165251D01*
X255405Y165179D01*
Y166823D01*
D02*
G37*
G36*
X258049D02*
X256405D01*
Y165179D01*
X256764Y165251D01*
X257492Y165737D01*
X257978Y166464D01*
X258049Y166823D01*
D02*
G37*
G36*
X471941D02*
X470297D01*
X470369Y166464D01*
X470855Y165737D01*
X471583Y165251D01*
X471941Y165179D01*
Y166823D01*
D02*
G37*
G36*
X474585D02*
X472941D01*
Y165179D01*
X473299Y165251D01*
X474027Y165737D01*
X474513Y166464D01*
X474585Y166823D01*
D02*
G37*
G36*
X452256D02*
X450612D01*
X450684Y166464D01*
X451170Y165737D01*
X451897Y165251D01*
X452256Y165179D01*
Y166823D01*
D02*
G37*
G36*
X454900D02*
X453256D01*
Y165179D01*
X453614Y165251D01*
X454342Y165737D01*
X454828Y166464D01*
X454900Y166823D01*
D02*
G37*
G36*
X511311D02*
X509667D01*
X509739Y166464D01*
X510225Y165737D01*
X510953Y165251D01*
X511311Y165179D01*
Y166823D01*
D02*
G37*
G36*
X513955D02*
X512311D01*
Y165179D01*
X512669Y165251D01*
X513397Y165737D01*
X513883Y166464D01*
X513955Y166823D01*
D02*
G37*
G36*
X491626D02*
X489982D01*
X490054Y166464D01*
X490540Y165737D01*
X491268Y165251D01*
X491626Y165179D01*
Y166823D01*
D02*
G37*
G36*
X494270D02*
X492626D01*
Y165179D01*
X492984Y165251D01*
X493712Y165737D01*
X494198Y166464D01*
X494270Y166823D01*
D02*
G37*
G36*
X393201D02*
X391557D01*
X391628Y166464D01*
X392115Y165737D01*
X392842Y165251D01*
X393201Y165179D01*
Y166823D01*
D02*
G37*
G36*
X395844D02*
X394201D01*
Y165179D01*
X394559Y165251D01*
X395287Y165737D01*
X395773Y166464D01*
X395844Y166823D01*
D02*
G37*
G36*
X373516D02*
X371872D01*
X371943Y166464D01*
X372430Y165737D01*
X373157Y165251D01*
X373516Y165179D01*
Y166823D01*
D02*
G37*
G36*
X376159D02*
X374516D01*
Y165179D01*
X374874Y165251D01*
X375602Y165737D01*
X376088Y166464D01*
X376159Y166823D01*
D02*
G37*
G36*
X432571D02*
X430927D01*
X430999Y166464D01*
X431485Y165737D01*
X432212Y165251D01*
X432571Y165179D01*
Y166823D01*
D02*
G37*
G36*
X435215D02*
X433571D01*
Y165179D01*
X433929Y165251D01*
X434657Y165737D01*
X435143Y166464D01*
X435215Y166823D01*
D02*
G37*
G36*
X412886D02*
X411242D01*
X411313Y166464D01*
X411800Y165737D01*
X412527Y165251D01*
X412886Y165179D01*
Y166823D01*
D02*
G37*
G36*
X415529D02*
X413886D01*
Y165179D01*
X414244Y165251D01*
X414972Y165737D01*
X415458Y166464D01*
X415529Y166823D01*
D02*
G37*
G36*
X198994D02*
X197350D01*
Y165179D01*
X197709Y165251D01*
X198436Y165737D01*
X198923Y166464D01*
X198994Y166823D01*
D02*
G37*
G36*
X305618Y159624D02*
Y157980D01*
X307262D01*
X307190Y158339D01*
X306704Y159066D01*
X305977Y159553D01*
X305618Y159624D01*
D02*
G37*
G36*
X412886D02*
X412527Y159553D01*
X411800Y159066D01*
X411313Y158339D01*
X411242Y157980D01*
X412886D01*
Y159624D01*
D02*
G37*
G36*
X226878D02*
Y157980D01*
X228522D01*
X228450Y158339D01*
X227964Y159066D01*
X227236Y159553D01*
X226878Y159624D01*
D02*
G37*
G36*
X304618D02*
X304260Y159553D01*
X303532Y159066D01*
X303046Y158339D01*
X302975Y157980D01*
X304618D01*
Y159624D01*
D02*
G37*
G36*
X626484Y170304D02*
Y157980D01*
X638808D01*
X638610Y159992D01*
X637877Y162407D01*
X636688Y164632D01*
X635087Y166583D01*
X633136Y168184D01*
X630910Y169373D01*
X628496Y170106D01*
X626484Y170304D01*
D02*
G37*
G36*
X38870Y166823D02*
X37226D01*
X37298Y166464D01*
X37784Y165737D01*
X38512Y165251D01*
X38870Y165179D01*
Y166823D01*
D02*
G37*
G36*
X413886Y159624D02*
Y157980D01*
X415529D01*
X415458Y158339D01*
X414972Y159066D01*
X414244Y159553D01*
X413886Y159624D01*
D02*
G37*
G36*
X625484Y170304D02*
X623473Y170106D01*
X621058Y169373D01*
X618832Y168184D01*
X616882Y166583D01*
X615281Y164632D01*
X614091Y162407D01*
X613359Y159992D01*
X613161Y157980D01*
X625484D01*
Y170304D01*
D02*
G37*
G36*
X307262Y156980D02*
X305618D01*
Y155337D01*
X305977Y155408D01*
X306704Y155894D01*
X307190Y156622D01*
X307262Y156980D01*
D02*
G37*
G36*
X412886D02*
X411242D01*
X411313Y156622D01*
X411800Y155894D01*
X412527Y155408D01*
X412886Y155337D01*
Y156980D01*
D02*
G37*
G36*
X228522D02*
X226878D01*
Y155337D01*
X227236Y155408D01*
X227964Y155894D01*
X228450Y156622D01*
X228522Y156980D01*
D02*
G37*
G36*
X304618D02*
X302975D01*
X303046Y156622D01*
X303532Y155894D01*
X304260Y155408D01*
X304618Y155337D01*
Y156980D01*
D02*
G37*
G36*
X20185Y170304D02*
Y157980D01*
X32509D01*
X32311Y159992D01*
X31578Y162407D01*
X30389Y164632D01*
X28788Y166583D01*
X26837Y168184D01*
X24611Y169373D01*
X22196Y170106D01*
X20185Y170304D01*
D02*
G37*
G36*
X225878Y159624D02*
X225519Y159553D01*
X224792Y159066D01*
X224306Y158339D01*
X224234Y157980D01*
X225878D01*
Y159624D01*
D02*
G37*
G36*
X415529Y156980D02*
X413886D01*
Y155337D01*
X414244Y155408D01*
X414972Y155894D01*
X415458Y156622D01*
X415529Y156980D01*
D02*
G37*
G36*
X19185Y170304D02*
X17174Y170106D01*
X14759Y169373D01*
X12533Y168184D01*
X10582Y166583D01*
X8981Y164632D01*
X7792Y162407D01*
X7059Y159992D01*
X6861Y157980D01*
X19185D01*
Y170304D01*
D02*
G37*
G36*
X139939Y166823D02*
X138295D01*
Y165179D01*
X138654Y165251D01*
X139381Y165737D01*
X139868Y166464D01*
X139939Y166823D01*
D02*
G37*
G36*
X156980D02*
X155337D01*
X155408Y166464D01*
X155894Y165737D01*
X156622Y165251D01*
X156980Y165179D01*
Y166823D01*
D02*
G37*
G36*
X120254D02*
X118610D01*
Y165179D01*
X118969Y165251D01*
X119696Y165737D01*
X120183Y166464D01*
X120254Y166823D01*
D02*
G37*
G36*
X137295D02*
X135652D01*
X135723Y166464D01*
X136209Y165737D01*
X136937Y165251D01*
X137295Y165179D01*
Y166823D01*
D02*
G37*
G36*
X179309D02*
X177665D01*
Y165179D01*
X178024Y165251D01*
X178752Y165737D01*
X179238Y166464D01*
X179309Y166823D01*
D02*
G37*
G36*
X196350D02*
X194707D01*
X194778Y166464D01*
X195264Y165737D01*
X195992Y165251D01*
X196350Y165179D01*
Y166823D01*
D02*
G37*
G36*
X159624D02*
X157980D01*
Y165179D01*
X158339Y165251D01*
X159066Y165737D01*
X159553Y166464D01*
X159624Y166823D01*
D02*
G37*
G36*
X176665D02*
X175022D01*
X175093Y166464D01*
X175579Y165737D01*
X176307Y165251D01*
X176665Y165179D01*
Y166823D01*
D02*
G37*
G36*
X61199D02*
X59555D01*
Y165179D01*
X59913Y165251D01*
X60641Y165737D01*
X61128Y166464D01*
X61199Y166823D01*
D02*
G37*
G36*
X78240D02*
X76596D01*
X76668Y166464D01*
X77154Y165737D01*
X77882Y165251D01*
X78240Y165179D01*
Y166823D01*
D02*
G37*
G36*
X41514D02*
X39870D01*
Y165179D01*
X40229Y165251D01*
X40956Y165737D01*
X41442Y166464D01*
X41514Y166823D01*
D02*
G37*
G36*
X58555D02*
X56911D01*
X56983Y166464D01*
X57469Y165737D01*
X58197Y165251D01*
X58555Y165179D01*
Y166823D01*
D02*
G37*
G36*
X100569D02*
X98925D01*
Y165179D01*
X99284Y165251D01*
X100011Y165737D01*
X100498Y166464D01*
X100569Y166823D01*
D02*
G37*
G36*
X117610D02*
X115967D01*
X116038Y166464D01*
X116524Y165737D01*
X117252Y165251D01*
X117610Y165179D01*
Y166823D01*
D02*
G37*
G36*
X80884D02*
X79240D01*
Y165179D01*
X79599Y165251D01*
X80326Y165737D01*
X80813Y166464D01*
X80884Y166823D01*
D02*
G37*
G36*
X97925D02*
X96282D01*
X96353Y166464D01*
X96839Y165737D01*
X97567Y165251D01*
X97925Y165179D01*
Y166823D01*
D02*
G37*
G36*
X540839D02*
X539195D01*
X539266Y166464D01*
X539752Y165737D01*
X540480Y165251D01*
X540839Y165179D01*
Y166823D01*
D02*
G37*
G36*
X393201Y169466D02*
X392842Y169395D01*
X392115Y168909D01*
X391628Y168181D01*
X391557Y167823D01*
X393201D01*
Y169466D01*
D02*
G37*
G36*
X394201D02*
Y167823D01*
X395844D01*
X395773Y168181D01*
X395287Y168909D01*
X394559Y169395D01*
X394201Y169466D01*
D02*
G37*
G36*
X373516D02*
X373157Y169395D01*
X372430Y168909D01*
X371943Y168181D01*
X371872Y167823D01*
X373516D01*
Y169466D01*
D02*
G37*
G36*
X374516D02*
Y167823D01*
X376159D01*
X376088Y168181D01*
X375602Y168909D01*
X374874Y169395D01*
X374516Y169466D01*
D02*
G37*
G36*
X432571D02*
X432212Y169395D01*
X431485Y168909D01*
X430999Y168181D01*
X430927Y167823D01*
X432571D01*
Y169466D01*
D02*
G37*
G36*
X433571D02*
Y167823D01*
X435215D01*
X435143Y168181D01*
X434657Y168909D01*
X433929Y169395D01*
X433571Y169466D01*
D02*
G37*
G36*
X412886D02*
X412527Y169395D01*
X411800Y168909D01*
X411313Y168181D01*
X411242Y167823D01*
X412886D01*
Y169466D01*
D02*
G37*
G36*
X413886D02*
Y167823D01*
X415529D01*
X415458Y168181D01*
X414972Y168909D01*
X414244Y169395D01*
X413886Y169466D01*
D02*
G37*
G36*
X314461D02*
X314102Y169395D01*
X313374Y168909D01*
X312888Y168181D01*
X312817Y167823D01*
X314461D01*
Y169466D01*
D02*
G37*
G36*
X315461D02*
Y167823D01*
X317104D01*
X317033Y168181D01*
X316547Y168909D01*
X315819Y169395D01*
X315461Y169466D01*
D02*
G37*
G36*
X294776D02*
X294417Y169395D01*
X293689Y168909D01*
X293203Y168181D01*
X293132Y167823D01*
X294776D01*
Y169466D01*
D02*
G37*
G36*
X295776D02*
Y167823D01*
X297419D01*
X297348Y168181D01*
X296862Y168909D01*
X296134Y169395D01*
X295776Y169466D01*
D02*
G37*
G36*
X353831D02*
X353472Y169395D01*
X352745Y168909D01*
X352258Y168181D01*
X352187Y167823D01*
X353831D01*
Y169466D01*
D02*
G37*
G36*
X354831D02*
Y167823D01*
X356474D01*
X356403Y168181D01*
X355917Y168909D01*
X355189Y169395D01*
X354831Y169466D01*
D02*
G37*
G36*
X334146D02*
X333787Y169395D01*
X333060Y168909D01*
X332573Y168181D01*
X332502Y167823D01*
X334146D01*
Y169466D01*
D02*
G37*
G36*
X335146D02*
Y167823D01*
X336789D01*
X336718Y168181D01*
X336232Y168909D01*
X335504Y169395D01*
X335146Y169466D01*
D02*
G37*
G36*
X560524D02*
X560165Y169395D01*
X559438Y168909D01*
X558951Y168181D01*
X558880Y167823D01*
X560524D01*
Y169466D01*
D02*
G37*
G36*
X561524D02*
Y167823D01*
X563167D01*
X563096Y168181D01*
X562610Y168909D01*
X561882Y169395D01*
X561524Y169466D01*
D02*
G37*
G36*
X540839D02*
X540480Y169395D01*
X539752Y168909D01*
X539266Y168181D01*
X539195Y167823D01*
X540839D01*
Y169466D01*
D02*
G37*
G36*
X541839D02*
Y167823D01*
X543482D01*
X543411Y168181D01*
X542925Y168909D01*
X542197Y169395D01*
X541839Y169466D01*
D02*
G37*
G36*
X599894D02*
X599535Y169395D01*
X598808Y168909D01*
X598321Y168181D01*
X598250Y167823D01*
X599894D01*
Y169466D01*
D02*
G37*
G36*
X600894D02*
Y167823D01*
X602537D01*
X602466Y168181D01*
X601980Y168909D01*
X601252Y169395D01*
X600894Y169466D01*
D02*
G37*
G36*
X580209D02*
X579850Y169395D01*
X579122Y168909D01*
X578636Y168181D01*
X578565Y167823D01*
X580209D01*
Y169466D01*
D02*
G37*
G36*
X581209D02*
Y167823D01*
X582852D01*
X582781Y168181D01*
X582295Y168909D01*
X581567Y169395D01*
X581209Y169466D01*
D02*
G37*
G36*
X471941D02*
X471583Y169395D01*
X470855Y168909D01*
X470369Y168181D01*
X470297Y167823D01*
X471941D01*
Y169466D01*
D02*
G37*
G36*
X472941D02*
Y167823D01*
X474585D01*
X474513Y168181D01*
X474027Y168909D01*
X473299Y169395D01*
X472941Y169466D01*
D02*
G37*
G36*
X452256D02*
X451897Y169395D01*
X451170Y168909D01*
X450684Y168181D01*
X450612Y167823D01*
X452256D01*
Y169466D01*
D02*
G37*
G36*
X453256D02*
Y167823D01*
X454900D01*
X454828Y168181D01*
X454342Y168909D01*
X453614Y169395D01*
X453256Y169466D01*
D02*
G37*
G36*
X511311D02*
X510953Y169395D01*
X510225Y168909D01*
X509739Y168181D01*
X509667Y167823D01*
X511311D01*
Y169466D01*
D02*
G37*
G36*
X512311D02*
Y167823D01*
X513955D01*
X513883Y168181D01*
X513397Y168909D01*
X512669Y169395D01*
X512311Y169466D01*
D02*
G37*
G36*
X491626D02*
X491268Y169395D01*
X490540Y168909D01*
X490054Y168181D01*
X489982Y167823D01*
X491626D01*
Y169466D01*
D02*
G37*
G36*
X492626D02*
Y167823D01*
X494270D01*
X494198Y168181D01*
X493712Y168909D01*
X492984Y169395D01*
X492626Y169466D01*
D02*
G37*
G36*
X276091D02*
Y167823D01*
X277734D01*
X277663Y168181D01*
X277177Y168909D01*
X276449Y169395D01*
X276091Y169466D01*
D02*
G37*
G36*
X59555D02*
Y167823D01*
X61199D01*
X61128Y168181D01*
X60641Y168909D01*
X59913Y169395D01*
X59555Y169466D01*
D02*
G37*
G36*
X78240D02*
X77882Y169395D01*
X77154Y168909D01*
X76668Y168181D01*
X76596Y167823D01*
X78240D01*
Y169466D01*
D02*
G37*
G36*
X39870D02*
Y167823D01*
X41514D01*
X41442Y168181D01*
X40956Y168909D01*
X40229Y169395D01*
X39870Y169466D01*
D02*
G37*
G36*
X58555D02*
X58197Y169395D01*
X57469Y168909D01*
X56983Y168181D01*
X56911Y167823D01*
X58555D01*
Y169466D01*
D02*
G37*
G36*
X98925D02*
Y167823D01*
X100569D01*
X100498Y168181D01*
X100011Y168909D01*
X99284Y169395D01*
X98925Y169466D01*
D02*
G37*
G36*
X117610D02*
X117252Y169395D01*
X116524Y168909D01*
X116038Y168181D01*
X115967Y167823D01*
X117610D01*
Y169466D01*
D02*
G37*
G36*
X79240D02*
Y167823D01*
X80884D01*
X80813Y168181D01*
X80326Y168909D01*
X79599Y169395D01*
X79240Y169466D01*
D02*
G37*
G36*
X97925D02*
X97567Y169395D01*
X96839Y168909D01*
X96353Y168181D01*
X96282Y167823D01*
X97925D01*
Y169466D01*
D02*
G37*
G36*
X563167Y166823D02*
X561524D01*
Y165179D01*
X561882Y165251D01*
X562610Y165737D01*
X563096Y166464D01*
X563167Y166823D01*
D02*
G37*
G36*
X580209D02*
X578565D01*
X578636Y166464D01*
X579122Y165737D01*
X579850Y165251D01*
X580209Y165179D01*
Y166823D01*
D02*
G37*
G36*
X543482D02*
X541839D01*
Y165179D01*
X542197Y165251D01*
X542925Y165737D01*
X543411Y166464D01*
X543482Y166823D01*
D02*
G37*
G36*
X560524D02*
X558880D01*
X558951Y166464D01*
X559438Y165737D01*
X560165Y165251D01*
X560524Y165179D01*
Y166823D01*
D02*
G37*
G36*
X602537D02*
X600894D01*
Y165179D01*
X601252Y165251D01*
X601980Y165737D01*
X602466Y166464D01*
X602537Y166823D01*
D02*
G37*
G36*
X38870Y169466D02*
X38512Y169395D01*
X37784Y168909D01*
X37298Y168181D01*
X37226Y167823D01*
X38870D01*
Y169466D01*
D02*
G37*
G36*
X582852Y166823D02*
X581209D01*
Y165179D01*
X581567Y165251D01*
X582295Y165737D01*
X582781Y166464D01*
X582852Y166823D01*
D02*
G37*
G36*
X599894D02*
X598250D01*
X598321Y166464D01*
X598808Y165737D01*
X599535Y165251D01*
X599894Y165179D01*
Y166823D01*
D02*
G37*
G36*
X217035Y169466D02*
Y167823D01*
X218679D01*
X218608Y168181D01*
X218122Y168909D01*
X217394Y169395D01*
X217035Y169466D01*
D02*
G37*
G36*
X235720D02*
X235362Y169395D01*
X234634Y168909D01*
X234148Y168181D01*
X234077Y167823D01*
X235720D01*
Y169466D01*
D02*
G37*
G36*
X197350D02*
Y167823D01*
X198994D01*
X198923Y168181D01*
X198436Y168909D01*
X197709Y169395D01*
X197350Y169466D01*
D02*
G37*
G36*
X216035D02*
X215677Y169395D01*
X214949Y168909D01*
X214463Y168181D01*
X214392Y167823D01*
X216035D01*
Y169466D01*
D02*
G37*
G36*
X256405D02*
Y167823D01*
X258049D01*
X257978Y168181D01*
X257492Y168909D01*
X256764Y169395D01*
X256405Y169466D01*
D02*
G37*
G36*
X275091D02*
X274732Y169395D01*
X274004Y168909D01*
X273518Y168181D01*
X273447Y167823D01*
X275091D01*
Y169466D01*
D02*
G37*
G36*
X236720D02*
Y167823D01*
X238364D01*
X238293Y168181D01*
X237807Y168909D01*
X237079Y169395D01*
X236720Y169466D01*
D02*
G37*
G36*
X255405D02*
X255047Y169395D01*
X254319Y168909D01*
X253833Y168181D01*
X253762Y167823D01*
X255405D01*
Y169466D01*
D02*
G37*
G36*
X138295D02*
Y167823D01*
X139939D01*
X139868Y168181D01*
X139381Y168909D01*
X138654Y169395D01*
X138295Y169466D01*
D02*
G37*
G36*
X156980D02*
X156622Y169395D01*
X155894Y168909D01*
X155408Y168181D01*
X155337Y167823D01*
X156980D01*
Y169466D01*
D02*
G37*
G36*
X118610D02*
Y167823D01*
X120254D01*
X120183Y168181D01*
X119696Y168909D01*
X118969Y169395D01*
X118610Y169466D01*
D02*
G37*
G36*
X137295D02*
X136937Y169395D01*
X136209Y168909D01*
X135723Y168181D01*
X135652Y167823D01*
X137295D01*
Y169466D01*
D02*
G37*
G36*
X177665D02*
Y167823D01*
X179309D01*
X179238Y168181D01*
X178752Y168909D01*
X178024Y169395D01*
X177665Y169466D01*
D02*
G37*
G36*
X196350D02*
X195992Y169395D01*
X195264Y168909D01*
X194778Y168181D01*
X194707Y167823D01*
X196350D01*
Y169466D01*
D02*
G37*
G36*
X157980D02*
Y167823D01*
X159624D01*
X159553Y168181D01*
X159066Y168909D01*
X158339Y169395D01*
X157980Y169466D01*
D02*
G37*
G36*
X176665D02*
X176307Y169395D01*
X175579Y168909D01*
X175093Y168181D01*
X175022Y167823D01*
X176665D01*
Y169466D01*
D02*
G37*
G36*
X287577Y117610D02*
X285933D01*
Y115967D01*
X286292Y116038D01*
X287019Y116524D01*
X287505Y117252D01*
X287577Y117610D01*
D02*
G37*
G36*
X452256D02*
X450612D01*
X450684Y117252D01*
X451170Y116524D01*
X451897Y116038D01*
X452256Y115967D01*
Y117610D01*
D02*
G37*
G36*
X228522D02*
X226878D01*
Y115967D01*
X227236Y116038D01*
X227964Y116524D01*
X228450Y117252D01*
X228522Y117610D01*
D02*
G37*
G36*
X284933D02*
X283289D01*
X283361Y117252D01*
X283847Y116524D01*
X284575Y116038D01*
X284933Y115967D01*
Y117610D01*
D02*
G37*
G36*
X474585D02*
X472941D01*
Y115967D01*
X473299Y116038D01*
X474027Y116524D01*
X474513Y117252D01*
X474585Y117610D01*
D02*
G37*
G36*
X511311D02*
X509667D01*
X509739Y117252D01*
X510225Y116524D01*
X510953Y116038D01*
X511311Y115967D01*
Y117610D01*
D02*
G37*
G36*
X454900D02*
X453256D01*
Y115967D01*
X453614Y116038D01*
X454342Y116524D01*
X454828Y117252D01*
X454900Y117610D01*
D02*
G37*
G36*
X471941D02*
X470297D01*
X470369Y117252D01*
X470855Y116524D01*
X471583Y116038D01*
X471941Y115967D01*
Y117610D01*
D02*
G37*
G36*
X433571Y110411D02*
Y108768D01*
X435215D01*
X435143Y109126D01*
X434657Y109854D01*
X433929Y110340D01*
X433571Y110411D01*
D02*
G37*
G36*
X629421D02*
X629063Y110340D01*
X628335Y109854D01*
X627849Y109126D01*
X627778Y108768D01*
X629421D01*
Y110411D01*
D02*
G37*
G36*
X404043D02*
Y108768D01*
X405687D01*
X405616Y109126D01*
X405129Y109854D01*
X404402Y110340D01*
X404043Y110411D01*
D02*
G37*
G36*
X432571D02*
X432212Y110340D01*
X431485Y109854D01*
X430999Y109126D01*
X430927Y108768D01*
X432571D01*
Y110411D01*
D02*
G37*
G36*
X189152Y117610D02*
X187508D01*
Y115967D01*
X187866Y116038D01*
X188594Y116524D01*
X189080Y117252D01*
X189152Y117610D01*
D02*
G37*
G36*
X225878D02*
X224234D01*
X224306Y117252D01*
X224792Y116524D01*
X225519Y116038D01*
X225878Y115967D01*
Y117610D01*
D02*
G37*
G36*
X630421Y110411D02*
Y108768D01*
X632065D01*
X631994Y109126D01*
X631507Y109854D01*
X630780Y110340D01*
X630421Y110411D01*
D02*
G37*
G36*
X186508Y117610D02*
X184864D01*
X184935Y117252D01*
X185422Y116524D01*
X186150Y116038D01*
X186508Y115967D01*
Y117610D01*
D02*
G37*
G36*
X226878Y120254D02*
Y118610D01*
X228522D01*
X228450Y118969D01*
X227964Y119696D01*
X227236Y120183D01*
X226878Y120254D01*
D02*
G37*
G36*
X284933D02*
X284575Y120183D01*
X283847Y119696D01*
X283361Y118969D01*
X283289Y118610D01*
X284933D01*
Y120254D01*
D02*
G37*
G36*
X187508D02*
Y118610D01*
X189152D01*
X189080Y118969D01*
X188594Y119696D01*
X187866Y120183D01*
X187508Y120254D01*
D02*
G37*
G36*
X225878D02*
X225519Y120183D01*
X224792Y119696D01*
X224306Y118969D01*
X224234Y118610D01*
X225878D01*
Y120254D01*
D02*
G37*
G36*
X453256D02*
Y118610D01*
X454900D01*
X454828Y118969D01*
X454342Y119696D01*
X453614Y120183D01*
X453256Y120254D01*
D02*
G37*
G36*
X471941D02*
X471583Y120183D01*
X470855Y119696D01*
X470369Y118969D01*
X470297Y118610D01*
X471941D01*
Y120254D01*
D02*
G37*
G36*
X285933D02*
Y118610D01*
X287577D01*
X287505Y118969D01*
X287019Y119696D01*
X286292Y120183D01*
X285933Y120254D01*
D02*
G37*
G36*
X452256D02*
X451897Y120183D01*
X451170Y119696D01*
X450684Y118969D01*
X450612Y118610D01*
X452256D01*
Y120254D01*
D02*
G37*
G36*
X543482Y117610D02*
X541839D01*
Y115967D01*
X542197Y116038D01*
X542925Y116524D01*
X543411Y117252D01*
X543482Y117610D01*
D02*
G37*
G36*
X570366D02*
X568722D01*
X568794Y117252D01*
X569280Y116524D01*
X570008Y116038D01*
X570366Y115967D01*
Y117610D01*
D02*
G37*
G36*
X513955D02*
X512311D01*
Y115967D01*
X512669Y116038D01*
X513397Y116524D01*
X513883Y117252D01*
X513955Y117610D01*
D02*
G37*
G36*
X540839D02*
X539195D01*
X539266Y117252D01*
X539752Y116524D01*
X540480Y116038D01*
X540839Y115967D01*
Y117610D01*
D02*
G37*
G36*
X602537D02*
X600894D01*
Y115967D01*
X601252Y116038D01*
X601980Y116524D01*
X602466Y117252D01*
X602537Y117610D01*
D02*
G37*
G36*
X186508Y120254D02*
X186150Y120183D01*
X185422Y119696D01*
X184935Y118969D01*
X184864Y118610D01*
X186508D01*
Y120254D01*
D02*
G37*
G36*
X573010Y117610D02*
X571366D01*
Y115967D01*
X571725Y116038D01*
X572452Y116524D01*
X572938Y117252D01*
X573010Y117610D01*
D02*
G37*
G36*
X599894D02*
X598250D01*
X598321Y117252D01*
X598808Y116524D01*
X599535Y116038D01*
X599894Y115967D01*
Y117610D01*
D02*
G37*
G36*
X403043Y110411D02*
X402685Y110340D01*
X401957Y109854D01*
X401471Y109126D01*
X401400Y108768D01*
X403043D01*
Y110411D01*
D02*
G37*
G36*
X216035Y107768D02*
X214392D01*
X214463Y107409D01*
X214949Y106682D01*
X215677Y106195D01*
X216035Y106124D01*
Y107768D01*
D02*
G37*
G36*
X218679D02*
X217035D01*
Y106124D01*
X217394Y106195D01*
X218122Y106682D01*
X218608Y107409D01*
X218679Y107768D01*
D02*
G37*
G36*
X166823D02*
X165179D01*
X165251Y107409D01*
X165737Y106682D01*
X166464Y106195D01*
X166823Y106124D01*
Y107768D01*
D02*
G37*
G36*
X169466D02*
X167823D01*
Y106124D01*
X168181Y106195D01*
X168909Y106682D01*
X169395Y107409D01*
X169466Y107768D01*
D02*
G37*
G36*
X432571D02*
X430927D01*
X430999Y107409D01*
X431485Y106682D01*
X432212Y106195D01*
X432571Y106124D01*
Y107768D01*
D02*
G37*
G36*
X435215D02*
X433571D01*
Y106124D01*
X433929Y106195D01*
X434657Y106682D01*
X435143Y107409D01*
X435215Y107768D01*
D02*
G37*
G36*
X403043D02*
X401400D01*
X401471Y107409D01*
X401957Y106682D01*
X402685Y106195D01*
X403043Y106124D01*
Y107768D01*
D02*
G37*
G36*
X405687D02*
X404043D01*
Y106124D01*
X404402Y106195D01*
X405129Y106682D01*
X405616Y107409D01*
X405687Y107768D01*
D02*
G37*
G36*
X48713D02*
X47069D01*
X47140Y107409D01*
X47627Y106682D01*
X48354Y106195D01*
X48713Y106124D01*
Y107768D01*
D02*
G37*
G36*
X51356D02*
X49713D01*
Y106124D01*
X50071Y106195D01*
X50799Y106682D01*
X51285Y107409D01*
X51356Y107768D01*
D02*
G37*
G36*
X19185D02*
X17541D01*
X17613Y107409D01*
X18099Y106682D01*
X18827Y106195D01*
X19185Y106124D01*
Y107768D01*
D02*
G37*
G36*
X21829D02*
X20185D01*
Y106124D01*
X20543Y106195D01*
X21271Y106682D01*
X21757Y107409D01*
X21829Y107768D01*
D02*
G37*
G36*
X117610D02*
X115967D01*
X116038Y107409D01*
X116524Y106682D01*
X117252Y106195D01*
X117610Y106124D01*
Y107768D01*
D02*
G37*
G36*
X120254D02*
X118610D01*
Y106124D01*
X118969Y106195D01*
X119696Y106682D01*
X120183Y107409D01*
X120254Y107768D01*
D02*
G37*
G36*
X88083D02*
X86439D01*
X86510Y107409D01*
X86997Y106682D01*
X87724Y106195D01*
X88083Y106124D01*
Y107768D01*
D02*
G37*
G36*
X90726D02*
X89083D01*
Y106124D01*
X89441Y106195D01*
X90169Y106682D01*
X90655Y107409D01*
X90726Y107768D01*
D02*
G37*
G36*
X117610Y110411D02*
X117252Y110340D01*
X116524Y109854D01*
X116038Y109126D01*
X115967Y108768D01*
X117610D01*
Y110411D01*
D02*
G37*
G36*
X118610D02*
Y108768D01*
X120254D01*
X120183Y109126D01*
X119696Y109854D01*
X118969Y110340D01*
X118610Y110411D01*
D02*
G37*
G36*
X88083D02*
X87724Y110340D01*
X86997Y109854D01*
X86510Y109126D01*
X86439Y108768D01*
X88083D01*
Y110411D01*
D02*
G37*
G36*
X89083D02*
Y108768D01*
X90726D01*
X90655Y109126D01*
X90169Y109854D01*
X89441Y110340D01*
X89083Y110411D01*
D02*
G37*
G36*
X216035D02*
X215677Y110340D01*
X214949Y109854D01*
X214463Y109126D01*
X214392Y108768D01*
X216035D01*
Y110411D01*
D02*
G37*
G36*
X217035D02*
Y108768D01*
X218679D01*
X218608Y109126D01*
X218122Y109854D01*
X217394Y110340D01*
X217035Y110411D01*
D02*
G37*
G36*
X166823D02*
X166464Y110340D01*
X165737Y109854D01*
X165251Y109126D01*
X165179Y108768D01*
X166823D01*
Y110411D01*
D02*
G37*
G36*
X167823D02*
Y108768D01*
X169466D01*
X169395Y109126D01*
X168909Y109854D01*
X168181Y110340D01*
X167823Y110411D01*
D02*
G37*
G36*
X298713Y110832D02*
X297440Y110579D01*
X295937Y109575D01*
X294933Y108072D01*
X294680Y106799D01*
X298713D01*
Y110832D01*
D02*
G37*
G36*
X299713D02*
Y106799D01*
X303745D01*
X303492Y108072D01*
X302488Y109575D01*
X300985Y110579D01*
X299713Y110832D01*
D02*
G37*
G36*
X629421Y107768D02*
X627778D01*
X627849Y107409D01*
X628335Y106682D01*
X629063Y106195D01*
X629421Y106124D01*
Y107768D01*
D02*
G37*
G36*
X632065D02*
X630421D01*
Y106124D01*
X630780Y106195D01*
X631507Y106682D01*
X631994Y107409D01*
X632065Y107768D01*
D02*
G37*
G36*
X48713Y110411D02*
X48354Y110340D01*
X47627Y109854D01*
X47140Y109126D01*
X47069Y108768D01*
X48713D01*
Y110411D01*
D02*
G37*
G36*
X49713D02*
Y108768D01*
X51356D01*
X51285Y109126D01*
X50799Y109854D01*
X50071Y110340D01*
X49713Y110411D01*
D02*
G37*
G36*
X19185D02*
X18827Y110340D01*
X18099Y109854D01*
X17613Y109126D01*
X17541Y108768D01*
X19185D01*
Y110411D01*
D02*
G37*
G36*
X20185D02*
Y108768D01*
X21829D01*
X21757Y109126D01*
X21271Y109854D01*
X20543Y110340D01*
X20185Y110411D01*
D02*
G37*
G36*
X472941Y120254D02*
Y118610D01*
X474585D01*
X474513Y118969D01*
X474027Y119696D01*
X473299Y120183D01*
X472941Y120254D01*
D02*
G37*
G36*
X474585Y147138D02*
X472941D01*
Y145494D01*
X473299Y145565D01*
X474027Y146052D01*
X474513Y146779D01*
X474585Y147138D01*
D02*
G37*
G36*
X501469D02*
X499825D01*
X499896Y146779D01*
X500382Y146052D01*
X501110Y145565D01*
X501469Y145494D01*
Y147138D01*
D02*
G37*
G36*
X287577D02*
X285933D01*
Y145494D01*
X286292Y145565D01*
X287019Y146052D01*
X287505Y146779D01*
X287577Y147138D01*
D02*
G37*
G36*
X471941D02*
X470297D01*
X470369Y146779D01*
X470855Y146052D01*
X471583Y145565D01*
X471941Y145494D01*
Y147138D01*
D02*
G37*
G36*
X543482D02*
X541839D01*
Y145494D01*
X542197Y145565D01*
X542925Y146052D01*
X543411Y146779D01*
X543482Y147138D01*
D02*
G37*
G36*
X570366D02*
X568722D01*
X568794Y146779D01*
X569280Y146052D01*
X570008Y145565D01*
X570366Y145494D01*
Y147138D01*
D02*
G37*
G36*
X504112D02*
X502468D01*
Y145494D01*
X502827Y145565D01*
X503555Y146052D01*
X504041Y146779D01*
X504112Y147138D01*
D02*
G37*
G36*
X540839D02*
X539195D01*
X539266Y146779D01*
X539752Y146052D01*
X540480Y145565D01*
X540839Y145494D01*
Y147138D01*
D02*
G37*
G36*
X638808Y156980D02*
X626484D01*
Y144657D01*
X628496Y144855D01*
X630910Y145587D01*
X633136Y146777D01*
X635087Y148378D01*
X636688Y150328D01*
X637877Y152554D01*
X638610Y154969D01*
X638808Y156980D01*
D02*
G37*
G36*
X68398Y147138D02*
X66754D01*
X66825Y146779D01*
X67312Y146052D01*
X68039Y145565D01*
X68398Y145494D01*
Y147138D01*
D02*
G37*
G36*
X32509Y156980D02*
X20185D01*
Y144657D01*
X22196Y144855D01*
X24611Y145587D01*
X26837Y146777D01*
X28788Y148378D01*
X30389Y150328D01*
X31578Y152554D01*
X32311Y154969D01*
X32509Y156980D01*
D02*
G37*
G36*
X625484D02*
X613161D01*
X613359Y154969D01*
X614091Y152554D01*
X615281Y150328D01*
X616882Y148378D01*
X618832Y146777D01*
X621058Y145587D01*
X623473Y144855D01*
X625484Y144657D01*
Y156980D01*
D02*
G37*
G36*
X139939Y147138D02*
X138295D01*
Y145494D01*
X138654Y145565D01*
X139381Y146052D01*
X139868Y146779D01*
X139939Y147138D01*
D02*
G37*
G36*
X284933D02*
X283289D01*
X283361Y146779D01*
X283847Y146052D01*
X284575Y145565D01*
X284933Y145494D01*
Y147138D01*
D02*
G37*
G36*
X71041D02*
X69398D01*
Y145494D01*
X69756Y145565D01*
X70484Y146052D01*
X70970Y146779D01*
X71041Y147138D01*
D02*
G37*
G36*
X137295D02*
X135652D01*
X135723Y146779D01*
X136209Y146052D01*
X136937Y145565D01*
X137295Y145494D01*
Y147138D01*
D02*
G37*
G36*
X502468Y149781D02*
Y148138D01*
X504112D01*
X504041Y148496D01*
X503555Y149224D01*
X502827Y149710D01*
X502468Y149781D01*
D02*
G37*
G36*
X540839D02*
X540480Y149710D01*
X539752Y149224D01*
X539266Y148496D01*
X539195Y148138D01*
X540839D01*
Y149781D01*
D02*
G37*
G36*
X472941D02*
Y148138D01*
X474585D01*
X474513Y148496D01*
X474027Y149224D01*
X473299Y149710D01*
X472941Y149781D01*
D02*
G37*
G36*
X501469D02*
X501110Y149710D01*
X500382Y149224D01*
X499896Y148496D01*
X499825Y148138D01*
X501469D01*
Y149781D01*
D02*
G37*
G36*
X571366D02*
Y148138D01*
X573010D01*
X572938Y148496D01*
X572452Y149224D01*
X571725Y149710D01*
X571366Y149781D01*
D02*
G37*
G36*
X225878Y156980D02*
X224234D01*
X224306Y156622D01*
X224792Y155894D01*
X225519Y155408D01*
X225878Y155337D01*
Y156980D01*
D02*
G37*
G36*
X541839Y149781D02*
Y148138D01*
X543482D01*
X543411Y148496D01*
X542925Y149224D01*
X542197Y149710D01*
X541839Y149781D01*
D02*
G37*
G36*
X570366D02*
X570008Y149710D01*
X569280Y149224D01*
X568794Y148496D01*
X568722Y148138D01*
X570366D01*
Y149781D01*
D02*
G37*
G36*
X69398D02*
Y148138D01*
X71041D01*
X70970Y148496D01*
X70484Y149224D01*
X69756Y149710D01*
X69398Y149781D01*
D02*
G37*
G36*
X137295D02*
X136937Y149710D01*
X136209Y149224D01*
X135723Y148496D01*
X135652Y148138D01*
X137295D01*
Y149781D01*
D02*
G37*
G36*
X573010Y147138D02*
X571366D01*
Y145494D01*
X571725Y145565D01*
X572452Y146052D01*
X572938Y146779D01*
X573010Y147138D01*
D02*
G37*
G36*
X68398Y149781D02*
X68039Y149710D01*
X67312Y149224D01*
X66825Y148496D01*
X66754Y148138D01*
X68398D01*
Y149781D01*
D02*
G37*
G36*
X285933D02*
Y148138D01*
X287577D01*
X287505Y148496D01*
X287019Y149224D01*
X286292Y149710D01*
X285933Y149781D01*
D02*
G37*
G36*
X471941D02*
X471583Y149710D01*
X470855Y149224D01*
X470369Y148496D01*
X470297Y148138D01*
X471941D01*
Y149781D01*
D02*
G37*
G36*
X138295D02*
Y148138D01*
X139939D01*
X139868Y148496D01*
X139381Y149224D01*
X138654Y149710D01*
X138295Y149781D01*
D02*
G37*
G36*
X284933D02*
X284575Y149710D01*
X283847Y149224D01*
X283361Y148496D01*
X283289Y148138D01*
X284933D01*
Y149781D01*
D02*
G37*
G36*
X19185Y156980D02*
X6861D01*
X7059Y154969D01*
X7792Y152554D01*
X8981Y150328D01*
X10582Y148378D01*
X12533Y146777D01*
X14759Y145587D01*
X17174Y144855D01*
X19185Y144657D01*
Y156980D01*
D02*
G37*
G36*
X38870Y130096D02*
X38512Y130025D01*
X37784Y129539D01*
X37298Y128811D01*
X37226Y128453D01*
X38870D01*
Y130096D01*
D02*
G37*
G36*
X39870D02*
Y128453D01*
X41514D01*
X41442Y128811D01*
X40956Y129539D01*
X40229Y130025D01*
X39870Y130096D01*
D02*
G37*
G36*
X38870Y127453D02*
X37226D01*
X37298Y127094D01*
X37784Y126367D01*
X38512Y125880D01*
X38870Y125809D01*
Y127453D01*
D02*
G37*
G36*
X41514D02*
X39870D01*
Y125809D01*
X40229Y125880D01*
X40956Y126367D01*
X41442Y127094D01*
X41514Y127453D01*
D02*
G37*
G36*
X263779Y145173D02*
X261870Y144922D01*
X260090Y144185D01*
X258562Y143012D01*
X257390Y141484D01*
X256653Y139705D01*
X256401Y137795D01*
X256653Y135886D01*
X257390Y134106D01*
X258562Y132578D01*
X260090Y131406D01*
X261870Y130669D01*
X263779Y130417D01*
X265689Y130669D01*
X267469Y131406D01*
X268997Y132578D01*
X270169Y134106D01*
X270906Y135886D01*
X271158Y137795D01*
X270906Y139705D01*
X270169Y141484D01*
X268997Y143012D01*
X267469Y144185D01*
X265689Y144922D01*
X263779Y145173D01*
D02*
G37*
G36*
X401575D02*
X399665Y144922D01*
X397886Y144185D01*
X396358Y143012D01*
X395185Y141484D01*
X394448Y139705D01*
X394197Y137795D01*
X394448Y135886D01*
X395185Y134106D01*
X396358Y132578D01*
X397886Y131406D01*
X399665Y130669D01*
X401575Y130417D01*
X403484Y130669D01*
X405264Y131406D01*
X406792Y132578D01*
X407964Y134106D01*
X408702Y135886D01*
X408953Y137795D01*
X408702Y139705D01*
X407964Y141484D01*
X406792Y143012D01*
X405264Y144185D01*
X403484Y144922D01*
X401575Y145173D01*
D02*
G37*
G36*
X223780D02*
X221870Y144922D01*
X220091Y144185D01*
X218562Y143012D01*
X217390Y141484D01*
X216653Y139705D01*
X216402Y137795D01*
X216653Y135886D01*
X217390Y134106D01*
X218562Y132578D01*
X220091Y131406D01*
X221870Y130669D01*
X223780Y130417D01*
X225689Y130669D01*
X227469Y131406D01*
X228997Y132578D01*
X230169Y134106D01*
X230906Y135886D01*
X231158Y137795D01*
X230906Y139705D01*
X230169Y141484D01*
X228997Y143012D01*
X227469Y144185D01*
X225689Y144922D01*
X223780Y145173D01*
D02*
G37*
G36*
X243779D02*
X241870Y144922D01*
X240090Y144185D01*
X238562Y143012D01*
X237390Y141484D01*
X236653Y139705D01*
X236402Y137795D01*
X236653Y135886D01*
X237390Y134106D01*
X238562Y132578D01*
X240090Y131406D01*
X241870Y130669D01*
X243779Y130417D01*
X245689Y130669D01*
X247469Y131406D01*
X248997Y132578D01*
X250169Y134106D01*
X250906Y135886D01*
X251158Y137795D01*
X250906Y139705D01*
X250169Y141484D01*
X248997Y143012D01*
X247469Y144185D01*
X245689Y144922D01*
X243779Y145173D01*
D02*
G37*
G36*
X540839Y120254D02*
X540480Y120183D01*
X539752Y119696D01*
X539266Y118969D01*
X539195Y118610D01*
X540839D01*
Y120254D01*
D02*
G37*
G36*
X541839D02*
Y118610D01*
X543482D01*
X543411Y118969D01*
X542925Y119696D01*
X542197Y120183D01*
X541839Y120254D01*
D02*
G37*
G36*
X511311D02*
X510953Y120183D01*
X510225Y119696D01*
X509739Y118969D01*
X509667Y118610D01*
X511311D01*
Y120254D01*
D02*
G37*
G36*
X512311D02*
Y118610D01*
X513955D01*
X513883Y118969D01*
X513397Y119696D01*
X512669Y120183D01*
X512311Y120254D01*
D02*
G37*
G36*
X599894D02*
X599535Y120183D01*
X598808Y119696D01*
X598321Y118969D01*
X598250Y118610D01*
X599894D01*
Y120254D01*
D02*
G37*
G36*
X600894D02*
Y118610D01*
X602537D01*
X602466Y118969D01*
X601980Y119696D01*
X601252Y120183D01*
X600894Y120254D01*
D02*
G37*
G36*
X570366D02*
X570008Y120183D01*
X569280Y119696D01*
X568794Y118969D01*
X568722Y118610D01*
X570366D01*
Y120254D01*
D02*
G37*
G36*
X571366D02*
Y118610D01*
X573010D01*
X572938Y118969D01*
X572452Y119696D01*
X571725Y120183D01*
X571366Y120254D01*
D02*
G37*
G36*
X97925Y139939D02*
X97567Y139868D01*
X96839Y139381D01*
X96353Y138654D01*
X96282Y138295D01*
X97925D01*
Y139939D01*
D02*
G37*
G36*
X98925D02*
Y138295D01*
X100569D01*
X100498Y138654D01*
X100011Y139381D01*
X99284Y139868D01*
X98925Y139939D01*
D02*
G37*
G36*
X97925Y137295D02*
X96282D01*
X96353Y136937D01*
X96839Y136209D01*
X97567Y135723D01*
X97925Y135652D01*
Y137295D01*
D02*
G37*
G36*
X100569D02*
X98925D01*
Y135652D01*
X99284Y135723D01*
X100011Y136209D01*
X100498Y136937D01*
X100569Y137295D01*
D02*
G37*
G36*
X342335Y144099D02*
X341186Y143948D01*
X339650Y143311D01*
X338331Y142299D01*
X337318Y140980D01*
X336682Y139444D01*
X336531Y138295D01*
X342335D01*
Y144099D01*
D02*
G37*
G36*
X343335D02*
Y138295D01*
X349138D01*
X348987Y139444D01*
X348351Y140980D01*
X347339Y142299D01*
X346019Y143311D01*
X344483Y143948D01*
X343335Y144099D01*
D02*
G37*
G36*
X302335D02*
X301186Y143948D01*
X299650Y143311D01*
X298331Y142299D01*
X297319Y140980D01*
X296682Y139444D01*
X296531Y138295D01*
X302335D01*
Y144099D01*
D02*
G37*
G36*
X303335D02*
Y138295D01*
X309138D01*
X308987Y139444D01*
X308351Y140980D01*
X307339Y142299D01*
X306019Y143311D01*
X304483Y143948D01*
X303335Y144099D01*
D02*
G37*
G36*
X211094Y145110D02*
X196465D01*
Y130480D01*
X211094D01*
Y145110D01*
D02*
G37*
G36*
X388890D02*
X374260D01*
Y130480D01*
X388890D01*
Y145110D01*
D02*
G37*
G36*
X421575Y145173D02*
X419665Y144922D01*
X417886Y144185D01*
X416358Y143012D01*
X415185Y141484D01*
X414448Y139705D01*
X414197Y137795D01*
X414448Y135886D01*
X415185Y134106D01*
X416358Y132578D01*
X417886Y131406D01*
X419665Y130669D01*
X421575Y130417D01*
X423484Y130669D01*
X425264Y131406D01*
X426792Y132578D01*
X427964Y134106D01*
X428701Y135886D01*
X428953Y137795D01*
X428701Y139705D01*
X427964Y141484D01*
X426792Y143012D01*
X425264Y144185D01*
X423484Y144922D01*
X421575Y145173D01*
D02*
G37*
G36*
X441575D02*
X439665Y144922D01*
X437886Y144185D01*
X436358Y143012D01*
X435185Y141484D01*
X434448Y139705D01*
X434197Y137795D01*
X434448Y135886D01*
X435185Y134106D01*
X436358Y132578D01*
X437886Y131406D01*
X439665Y130669D01*
X441575Y130417D01*
X443484Y130669D01*
X445264Y131406D01*
X446792Y132578D01*
X447964Y134106D01*
X448701Y135886D01*
X448953Y137795D01*
X448701Y139705D01*
X447964Y141484D01*
X446792Y143012D01*
X445264Y144185D01*
X443484Y144922D01*
X441575Y145173D01*
D02*
G37*
G36*
X342335Y137295D02*
X336531D01*
X336682Y136147D01*
X337318Y134611D01*
X338331Y133291D01*
X339650Y132279D01*
X341186Y131643D01*
X342335Y131492D01*
Y137295D01*
D02*
G37*
G36*
X349138D02*
X343335D01*
Y131492D01*
X344483Y131643D01*
X346019Y132279D01*
X347339Y133291D01*
X348351Y134611D01*
X348987Y136147D01*
X349138Y137295D01*
D02*
G37*
G36*
X302335D02*
X296531D01*
X296682Y136147D01*
X297319Y134611D01*
X298331Y133291D01*
X299650Y132279D01*
X301186Y131643D01*
X302335Y131492D01*
Y137295D01*
D02*
G37*
G36*
X309138D02*
X303335D01*
Y131492D01*
X304483Y131643D01*
X306019Y132279D01*
X307339Y133291D01*
X308351Y134611D01*
X308987Y136147D01*
X309138Y137295D01*
D02*
G37*
%LPD*%
D17*
X0Y0D02*
Y177165D01*
X645669D01*
Y0D02*
Y177165D01*
X0Y0D02*
X645669D01*
D18*
X2385Y19685D02*
X36085D01*
X19685Y3785D02*
Y36285D01*
X608684Y19685D02*
X642384D01*
X625984Y3785D02*
Y36285D01*
X608684Y157480D02*
X642384D01*
X625984Y141580D02*
Y174080D01*
X2385Y157480D02*
X36085D01*
X19685Y141580D02*
Y174080D01*
D19*
X74410Y39764D02*
D03*
X94410D02*
D03*
X54409D02*
D03*
X145669Y39370D02*
D03*
X165669D02*
D03*
X125669D02*
D03*
X216535D02*
D03*
X236536D02*
D03*
X196536D02*
D03*
X287717D02*
D03*
X307717D02*
D03*
X267717D02*
D03*
X358583D02*
D03*
X378583D02*
D03*
X338583D02*
D03*
X429449D02*
D03*
X449449D02*
D03*
X409449D02*
D03*
X571181D02*
D03*
X591181D02*
D03*
X551181D02*
D03*
X322835Y137795D02*
D03*
X302835D02*
D03*
X342835D02*
D03*
X441575D02*
D03*
X421575D02*
D03*
X401575D02*
D03*
X263779D02*
D03*
X243779D02*
D03*
X223780D02*
D03*
X500315Y39370D02*
D03*
X520315D02*
D03*
X480315D02*
D03*
D20*
X19685Y19685D02*
D03*
X625984D02*
D03*
Y157480D02*
D03*
X19685D02*
D03*
D21*
X318898Y106299D02*
D03*
X299213D02*
D03*
D22*
X381575Y137795D02*
D03*
X203780D02*
D03*
D23*
X39370Y9843D02*
D03*
X59055D02*
D03*
X78740D02*
D03*
X98425D02*
D03*
X118110D02*
D03*
X137795D02*
D03*
X157480D02*
D03*
X177165D02*
D03*
X196850D02*
D03*
X216535D02*
D03*
X236221D02*
D03*
X255906D02*
D03*
X275590D02*
D03*
X295276D02*
D03*
X314961D02*
D03*
X334646D02*
D03*
X354331D02*
D03*
X374016D02*
D03*
X393701D02*
D03*
X413386D02*
D03*
X433071D02*
D03*
X452756D02*
D03*
X472441D02*
D03*
X492126D02*
D03*
X511811D02*
D03*
X541339D02*
D03*
X561024D02*
D03*
X580709D02*
D03*
X600394D02*
D03*
Y167323D02*
D03*
X580709D02*
D03*
X561024D02*
D03*
X541339D02*
D03*
X511811D02*
D03*
X492126D02*
D03*
X472441D02*
D03*
X452756D02*
D03*
X433071D02*
D03*
X413386D02*
D03*
X393701D02*
D03*
X374016D02*
D03*
X354331D02*
D03*
X334646D02*
D03*
X314961D02*
D03*
X295276D02*
D03*
X275590D02*
D03*
X255906D02*
D03*
X236221D02*
D03*
X216535D02*
D03*
X196850D02*
D03*
X177165D02*
D03*
X157480D02*
D03*
X137795D02*
D03*
X118110D02*
D03*
X98425D02*
D03*
X78740D02*
D03*
X59055D02*
D03*
X39370D02*
D03*
X629921Y49213D02*
D03*
Y78740D02*
D03*
Y108268D02*
D03*
X600394Y118110D02*
D03*
X570866D02*
D03*
Y147638D02*
D03*
X541339D02*
D03*
X501968D02*
D03*
X472441D02*
D03*
Y118110D02*
D03*
X511811D02*
D03*
X541339D02*
D03*
X433071Y108268D02*
D03*
X531496Y98425D02*
D03*
X452756Y118110D02*
D03*
X403543Y108268D02*
D03*
X393701Y88583D02*
D03*
X413386D02*
D03*
X344488D02*
D03*
X285433Y118110D02*
D03*
Y147638D02*
D03*
X265748Y98425D02*
D03*
X246063D02*
D03*
X255906Y78740D02*
D03*
X216535Y108268D02*
D03*
X196850Y88583D02*
D03*
X226378Y118110D02*
D03*
X206693Y98425D02*
D03*
X187008Y118110D02*
D03*
X167323Y108268D02*
D03*
X118110D02*
D03*
X88583D02*
D03*
X49213D02*
D03*
X19685D02*
D03*
Y78740D02*
D03*
Y49213D02*
D03*
X39370Y127953D02*
D03*
X68898Y147638D02*
D03*
X98425Y137795D02*
D03*
X137795Y147638D02*
D03*
X226378Y157480D02*
D03*
X305118D02*
D03*
X413386D02*
D03*
X200787Y55118D02*
D03*
X125984D02*
D03*
X59055D02*
D03*
X86614Y62992D02*
D03*
X157480D02*
D03*
X228346D02*
D03*
X299213D02*
D03*
X370079D02*
D03*
X440945D02*
D03*
X511811D02*
D03*
X582677D02*
D03*
D24*
X571181Y26181D02*
Y39370D01*
X567700Y22700D02*
X571181Y26181D01*
X74410Y28490D02*
Y39764D01*
Y28490D02*
X80200Y22700D01*
X145669Y23469D02*
Y39370D01*
X144900Y22700D02*
X145669Y23469D01*
X80200Y22700D02*
X144900D01*
X216535Y23664D02*
Y39370D01*
Y23664D02*
X217500Y22700D01*
X144900D02*
X217500D01*
X287717Y22883D02*
Y39370D01*
Y22883D02*
X287900Y22700D01*
X217500D02*
X287900D01*
X358583Y23883D02*
Y39370D01*
X357400Y22700D02*
X358583Y23883D01*
X429449Y22951D02*
Y39370D01*
Y22951D02*
X429700Y22700D01*
X357400D02*
X429700D01*
X500315Y22915D02*
Y39370D01*
X500100Y22700D02*
X500315Y22915D01*
X429700Y22700D02*
X500100D01*
X567700D01*
X322700D02*
X322835Y22835D01*
X287900Y22700D02*
X322700D01*
X357400D01*
X318898Y106299D02*
X322435D01*
X322835Y105900D01*
Y22835D02*
Y105900D01*
Y137795D01*
M02*
