M48
;Layer_Color=9474304
;FILE_FORMAT=2:5
INCH,LZ
;TYPE=PLATED
T1F00S00C0.01200
T2F00S00C0.03937
T3F00S00C0.05906
T4F00S00C0.12598
%
T01
X003937Y0009843
X0059055
X007874
X0059055Y0055118
X0019685Y0049213
X0125984Y0055118
X011811Y0009843
X0098425
X0137795
X015748
X0177165
X019685
X0216535
X0200787Y0055118
X0236221Y0009843
X0255906
X027559
X0295276
X0314961
X0334646
X0354331
X0374016
X0393701
X0413386
X0433071
X0452756
X0472441
X0492126
X0511811
X0541339
X0561024
X0580709
X0600394
X0629921Y0049213
Y007874
Y0108268
X0600394Y011811
X0570866
Y0147638
X0580709Y0167323
X0600394
X0561024
X0582677Y0062992
X0511811
Y011811
X0541339
Y0147638
Y0167323
X0511811
X0492126
X0472441
X0452756
X0433071
X0413386
Y015748
X0393701Y0167323
X0403543Y0108268
X0433071
X0452756Y011811
X0472441
Y0147638
X0501968
X0531496Y0098425
X0440945Y0062992
X0413386Y0088583
X0393701
X0344488
X0370079Y0062992
X0299213
X0255906Y007874
X0265748Y0098425
X0246063
X0285433Y011811
Y0147638
X0295276Y0167323
X0314961
X0334646
X0354331
X0374016
X0305118Y015748
X027559Y0167323
X0255906
X0236221
X0216535
X019685
X0177165
X015748
X0137795
Y0147638
X011811Y0167323
X0098425
Y0137795
X0088583Y0108268
X011811
X0167323
X0187008Y011811
X0216535Y0108268
X0226378Y011811
Y015748
X0206693Y0098425
X019685Y0088583
X0228346Y0062992
X015748
X0086614
X0049213Y0108268
X0019685
Y007874
X003937Y0127953
Y0167323
X0059055
X007874
X0068898Y0147638
T02
X0299213Y0106299
X0318898
T03
X0054409Y0039764
X007441
X009441
X0125669Y003937
X0145669
X0165669
X0196536
X0216535
X0236536
X0267717
X0287717
X0307717
X0338583
X0358583
X0378583
X0409449
X0429449
X0449449
X0480315
X0500315
X0520315
X0551181
X0571181
X0591181
X0441575Y0137795
X0421575
X0401575
X0381575
X0342835
X0322835
X0302835
X0263779
X0243779
X022378
X020378
T04
X0019685Y0019685
X0625984
Y015748
X0019685
M30
