%FSLAX25Y25*%
%MOIN*%
G70*
G01*
G75*
G04 Layer_Color=65535*
%ADD10R,0.02953X0.02362*%
%ADD11R,0.03937X0.04724*%
%ADD12R,0.04724X0.03937*%
%ADD13R,0.07087X0.09843*%
%ADD14C,0.05000*%
%ADD15C,0.01000*%
%ADD16C,0.07000*%
%ADD17C,0.00500*%
%ADD18C,0.00787*%
%ADD19C,0.10630*%
%ADD20C,0.23622*%
%ADD21C,0.07087*%
%ADD22R,0.10630X0.10630*%
%ADD23C,0.02400*%
%ADD24C,0.10000*%
%ADD25C,0.00984*%
%ADD26C,0.03000*%
%ADD27C,0.00394*%
G36*
X100080Y145166D02*
X100275Y145147D01*
X100529Y145088D01*
X100822Y144990D01*
X101134Y144834D01*
X101447Y144619D01*
X101603Y144502D01*
X101740Y144346D01*
X101779Y144307D01*
X101857Y144209D01*
X101974Y144014D01*
X102130Y143780D01*
X102267Y143487D01*
X102384Y143135D01*
X102462Y142744D01*
X102501Y142315D01*
Y142295D01*
Y142237D01*
X102482Y142158D01*
Y142041D01*
X102443Y141885D01*
X102423Y141729D01*
X102287Y141358D01*
X102208Y141163D01*
X102091Y140948D01*
X101954Y140752D01*
X101798Y140538D01*
X101603Y140342D01*
X101388Y140166D01*
X101134Y140010D01*
X100841Y139854D01*
X100861D01*
X100919Y139834D01*
X101017Y139795D01*
X101115Y139737D01*
X101251Y139659D01*
X101408Y139561D01*
X101564Y139444D01*
X101740Y139288D01*
X101915Y139112D01*
X102072Y138917D01*
X102228Y138682D01*
X102365Y138428D01*
X102482Y138116D01*
X102560Y137803D01*
X102619Y137432D01*
X102638Y137022D01*
Y137003D01*
Y136963D01*
Y136885D01*
X102619Y136788D01*
Y136671D01*
X102599Y136534D01*
X102540Y136202D01*
X102443Y135831D01*
X102287Y135440D01*
X102072Y135030D01*
X101954Y134835D01*
X101798Y134640D01*
Y134620D01*
X101759Y134600D01*
X101662Y134483D01*
X101466Y134327D01*
X101232Y134151D01*
X100939Y133976D01*
X100587Y133819D01*
X100197Y133702D01*
X99982Y133683D01*
X99767Y133663D01*
X99650D01*
X99533Y133683D01*
X99357Y133702D01*
X99123Y133761D01*
X98869Y133819D01*
X98556Y133917D01*
X98224Y134034D01*
Y135694D01*
X98244D01*
X98263Y135675D01*
X98361Y135635D01*
X98537Y135577D01*
X98732Y135518D01*
X98947Y135440D01*
X99181Y135382D01*
X99396Y135343D01*
X99591Y135323D01*
X99689D01*
X99787Y135343D01*
X99923Y135382D01*
X100060Y135440D01*
X100216Y135538D01*
X100373Y135655D01*
X100509Y135811D01*
X100529Y135831D01*
X100568Y135909D01*
X100626Y136007D01*
X100705Y136163D01*
X100763Y136358D01*
X100822Y136573D01*
X100861Y136846D01*
X100880Y137139D01*
Y137159D01*
Y137217D01*
Y137296D01*
X100861Y137393D01*
X100841Y137510D01*
X100802Y137667D01*
X100705Y137979D01*
X100626Y138135D01*
X100529Y138292D01*
X100412Y138448D01*
X100275Y138584D01*
X100119Y138721D01*
X99923Y138838D01*
X99708Y138917D01*
X99455Y138975D01*
Y140616D01*
X99474D01*
X99513Y140635D01*
X99572D01*
X99650Y140674D01*
X99865Y140752D01*
X100099Y140889D01*
X100333Y141065D01*
X100548Y141319D01*
X100626Y141475D01*
X100685Y141651D01*
X100724Y141866D01*
X100744Y142080D01*
Y142120D01*
Y142198D01*
X100724Y142315D01*
X100705Y142471D01*
X100665Y142647D01*
X100607Y142823D01*
X100529Y142979D01*
X100412Y143135D01*
X100392Y143155D01*
X100353Y143194D01*
X100294Y143252D01*
X100197Y143330D01*
X100080Y143408D01*
X99943Y143467D01*
X99767Y143506D01*
X99591Y143526D01*
X99513D01*
X99435Y143506D01*
X99298Y143487D01*
X99142Y143447D01*
X98966Y143408D01*
X98732Y143330D01*
X98478Y143233D01*
Y144854D01*
X98517Y144873D01*
X98595Y144912D01*
X98732Y144951D01*
X98908Y145029D01*
X99123Y145088D01*
X99357Y145127D01*
X99611Y145166D01*
X99884Y145186D01*
X100002D01*
X100080Y145166D01*
D02*
G37*
G36*
X85667Y143467D02*
X83577D01*
Y140518D01*
X83596D01*
X83674Y140498D01*
X83811Y140459D01*
X83967Y140420D01*
X84143Y140362D01*
X84358Y140264D01*
X84573Y140147D01*
X84807Y139991D01*
X85022Y139815D01*
X85237Y139581D01*
X85452Y139327D01*
X85647Y139014D01*
X85784Y138663D01*
X85920Y138272D01*
X85998Y137803D01*
X86018Y137296D01*
Y137276D01*
Y137237D01*
Y137139D01*
X85998Y137042D01*
Y136905D01*
X85979Y136749D01*
X85901Y136397D01*
X85803Y135987D01*
X85647Y135557D01*
X85432Y135108D01*
X85295Y134893D01*
X85139Y134698D01*
Y134678D01*
X85100Y134659D01*
X84983Y134542D01*
X84807Y134366D01*
X84553Y134190D01*
X84241Y133995D01*
X83870Y133819D01*
X83460Y133702D01*
X83225Y133683D01*
X82991Y133663D01*
X82874D01*
X82717Y133683D01*
X82542Y133702D01*
X82307Y133741D01*
X82053Y133800D01*
X81780Y133878D01*
X81487Y133995D01*
Y135577D01*
X81507D01*
X81526Y135557D01*
X81624Y135538D01*
X81780Y135499D01*
X81956Y135460D01*
X82366Y135362D01*
X82561Y135343D01*
X82737Y135323D01*
X82854D01*
X82971Y135343D01*
X83128Y135382D01*
X83303Y135440D01*
X83479Y135538D01*
X83674Y135655D01*
X83831Y135831D01*
X83850Y135850D01*
X83889Y135928D01*
X83967Y136046D01*
X84045Y136202D01*
X84124Y136397D01*
X84202Y136632D01*
X84241Y136925D01*
X84260Y137237D01*
Y137257D01*
Y137276D01*
Y137374D01*
X84241Y137549D01*
X84202Y137745D01*
X84143Y137960D01*
X84065Y138194D01*
X83967Y138409D01*
X83811Y138604D01*
X83792Y138624D01*
X83733Y138682D01*
X83635Y138760D01*
X83499Y138858D01*
X83323Y138936D01*
X83108Y139014D01*
X82874Y139073D01*
X82600Y139092D01*
X82385D01*
X82151Y139073D01*
X81878Y139034D01*
Y145049D01*
X85667D01*
Y143467D01*
D02*
G37*
G36*
X118321Y133858D02*
X116582D01*
Y145049D01*
X118321D01*
Y133858D01*
D02*
G37*
G36*
X528146Y141690D02*
X528419Y141612D01*
X528732Y141455D01*
X529122Y141260D01*
X529513Y140987D01*
X529903Y140635D01*
X530294Y140166D01*
X530685Y139580D01*
X531036Y138877D01*
X531349Y138018D01*
X531505Y137549D01*
X531622Y137002D01*
X531739Y136456D01*
X531817Y135831D01*
X531895Y135206D01*
X531935Y134503D01*
X531974Y133721D01*
Y132940D01*
X526661D01*
Y132901D01*
Y132784D01*
Y132589D01*
X526700Y132315D01*
X526740Y132003D01*
X526779Y131651D01*
X526935Y130948D01*
X527208Y130206D01*
X527404Y129855D01*
X527599Y129542D01*
X527872Y129308D01*
X528146Y129073D01*
X528497Y128956D01*
X528888Y128917D01*
X528927D01*
X529122Y128956D01*
X529357Y128995D01*
X529708Y129112D01*
X530138Y129269D01*
X530607Y129503D01*
X531153Y129855D01*
X531739Y130323D01*
Y127355D01*
X531661Y127277D01*
X531466Y127120D01*
X531153Y126886D01*
X530724Y126652D01*
X530216Y126378D01*
X529669Y126144D01*
X529044Y125988D01*
X528380Y125909D01*
X528146D01*
X527989Y125949D01*
X527560Y126027D01*
X527013Y126183D01*
X526427Y126417D01*
X525841Y126769D01*
X525529Y127003D01*
X525255Y127316D01*
X524982Y127628D01*
X524709Y127980D01*
Y128019D01*
X524669Y128058D01*
X524591Y128214D01*
X524513Y128370D01*
X524435Y128566D01*
X524318Y128839D01*
X524201Y129151D01*
X524084Y129503D01*
X523966Y129894D01*
X523849Y130323D01*
X523732Y130792D01*
X523654Y131339D01*
X523576Y131886D01*
X523498Y132510D01*
X523458Y133135D01*
Y133839D01*
Y133878D01*
Y133995D01*
Y134190D01*
Y134464D01*
X523498Y134737D01*
X523537Y135128D01*
Y135518D01*
X523615Y135948D01*
X523732Y136846D01*
X523927Y137823D01*
X524201Y138760D01*
X524552Y139620D01*
Y139658D01*
X524591Y139698D01*
X524748Y139932D01*
X525021Y140284D01*
X525373Y140674D01*
X525841Y141065D01*
X526388Y141416D01*
X527013Y141651D01*
X527364Y141690D01*
X527755Y141729D01*
X527950D01*
X528146Y141690D01*
D02*
G37*
G36*
X489750Y148642D02*
X490101Y148603D01*
X490609Y148525D01*
X491195Y148330D01*
X491859Y148096D01*
X492562Y147744D01*
X493304Y147275D01*
X494046Y146689D01*
X494398Y146338D01*
X494749Y145947D01*
X495062Y145518D01*
X495413Y145049D01*
X495687Y144541D01*
X495999Y143955D01*
X496273Y143369D01*
X496507Y142705D01*
X496702Y141963D01*
X496859Y141182D01*
X497015Y140362D01*
X497132Y139463D01*
X497171Y138526D01*
X497210Y137510D01*
Y137432D01*
Y137276D01*
Y137002D01*
X497171Y136612D01*
Y136143D01*
X497093Y135635D01*
X497054Y135049D01*
X496976Y134385D01*
X496741Y133057D01*
X496390Y131651D01*
X496156Y130987D01*
X495921Y130323D01*
X495609Y129698D01*
X495257Y129151D01*
X495218Y129112D01*
X495179Y129034D01*
X495062Y128878D01*
X494906Y128722D01*
X494710Y128487D01*
X494476Y128253D01*
X494164Y127980D01*
X493851Y127745D01*
X493500Y127472D01*
X493070Y127198D01*
X492640Y126964D01*
X492132Y126730D01*
X491625Y126573D01*
X491039Y126417D01*
X490453Y126339D01*
X489789Y126300D01*
X486000D01*
Y148681D01*
X489594D01*
X489750Y148642D01*
D02*
G37*
G36*
X582713Y141651D02*
X583103Y141572D01*
X583572Y141455D01*
X584080Y141221D01*
X584587Y140947D01*
X585056Y140557D01*
X585095Y140518D01*
X585252Y140362D01*
X585447Y140088D01*
X585681Y139776D01*
X585916Y139307D01*
X586111Y138799D01*
X586267Y138213D01*
X586306Y137549D01*
Y129425D01*
Y129386D01*
Y129347D01*
Y129190D01*
Y128995D01*
X586345Y128956D01*
Y128917D01*
X586384D01*
X586462Y128956D01*
X586580Y128995D01*
X586736Y129073D01*
X586970Y129229D01*
X587283Y129386D01*
X587712Y129620D01*
Y127237D01*
X587634Y127198D01*
X587478Y127042D01*
X587205Y126847D01*
X586892Y126612D01*
X586540Y126378D01*
X586150Y126183D01*
X585759Y126027D01*
X585369Y125988D01*
X585290D01*
X585095Y126027D01*
X584822Y126066D01*
X584470Y126222D01*
X584119Y126417D01*
X583806Y126730D01*
X583533Y127198D01*
X583416Y127472D01*
X583337Y127784D01*
Y127745D01*
X583298Y127706D01*
X583142Y127511D01*
X582908Y127198D01*
X582634Y126847D01*
X582244Y126495D01*
X581775Y126222D01*
X581267Y125988D01*
X580994Y125949D01*
X580721Y125909D01*
X580681D01*
X580525Y125949D01*
X580252Y125988D01*
X579978Y126066D01*
X579627Y126183D01*
X579236Y126417D01*
X578846Y126691D01*
X578494Y127081D01*
X578455Y127120D01*
X578338Y127277D01*
X578221Y127550D01*
X578064Y127862D01*
X577869Y128292D01*
X577752Y128761D01*
X577635Y129269D01*
X577596Y129855D01*
Y129894D01*
Y129933D01*
X577635Y130167D01*
X577674Y130518D01*
X577752Y130948D01*
X577908Y131417D01*
X578103Y131925D01*
X578416Y132432D01*
X578807Y132940D01*
X578885Y132979D01*
X579041Y133175D01*
X579353Y133409D01*
X579822Y133800D01*
X580408Y134229D01*
X581150Y134737D01*
X581580Y135010D01*
X582049Y135284D01*
X582556Y135596D01*
X583103Y135909D01*
Y137120D01*
Y137198D01*
Y137354D01*
X583025Y137627D01*
X582947Y137940D01*
X582791Y138213D01*
X582595Y138487D01*
X582283Y138643D01*
X581892Y138721D01*
X581814D01*
X581658Y138682D01*
X581306Y138604D01*
X580877Y138409D01*
X580330Y138135D01*
X580017Y137940D01*
X579666Y137706D01*
X579275Y137432D01*
X578846Y137081D01*
X578416Y136729D01*
X577947Y136299D01*
Y139658D01*
X577986Y139698D01*
X578025Y139737D01*
X578142Y139854D01*
X578299Y139971D01*
X578728Y140322D01*
X579275Y140713D01*
X579900Y141065D01*
X580603Y141416D01*
X581346Y141651D01*
X581697Y141690D01*
X582088Y141729D01*
X582400D01*
X582713Y141651D01*
D02*
G37*
G36*
X571346Y141690D02*
X571737Y141612D01*
X572245Y141455D01*
X572830Y141182D01*
X573416Y140791D01*
X573690Y140557D01*
X574002Y140284D01*
X574276Y139932D01*
X574510Y139541D01*
Y139502D01*
X574549Y139424D01*
X574627Y139307D01*
X574705Y139151D01*
X574822Y138916D01*
X574940Y138682D01*
X575057Y138370D01*
X575174Y138018D01*
X575291Y137627D01*
X575408Y137198D01*
X575526Y136729D01*
X575643Y136221D01*
X575799Y135089D01*
X575838Y133800D01*
Y133760D01*
Y133643D01*
Y133448D01*
Y133214D01*
X575799Y132901D01*
X575760Y132550D01*
X575721Y132159D01*
X575682Y131729D01*
X575526Y130792D01*
X575291Y129815D01*
X574940Y128878D01*
X574510Y128019D01*
Y127980D01*
X574471Y127940D01*
X574276Y127706D01*
X574002Y127355D01*
X573572Y126964D01*
X573065Y126573D01*
X572479Y126222D01*
X571776Y125988D01*
X571385Y125949D01*
X570956Y125909D01*
X570721D01*
X570565Y125949D01*
X570174Y126027D01*
X569666Y126183D01*
X569081Y126417D01*
X568495Y126808D01*
X568221Y127042D01*
X567909Y127316D01*
X567635Y127667D01*
X567401Y128019D01*
Y128058D01*
X567362Y128136D01*
X567284Y128253D01*
X567206Y128409D01*
X567128Y128644D01*
X567010Y128878D01*
X566893Y129190D01*
X566776Y129542D01*
X566659Y129933D01*
X566542Y130362D01*
X566425Y130831D01*
X566346Y131378D01*
X566190Y132510D01*
X566151Y133800D01*
Y133839D01*
Y133956D01*
Y134151D01*
X566190Y134385D01*
Y134698D01*
X566229Y135049D01*
X566268Y135440D01*
X566307Y135870D01*
X566464Y136807D01*
X566698Y137784D01*
X566971Y138721D01*
X567401Y139580D01*
Y139620D01*
X567479Y139658D01*
X567635Y139932D01*
X567948Y140244D01*
X568338Y140674D01*
X568846Y141065D01*
X569432Y141377D01*
X570135Y141651D01*
X570526Y141690D01*
X570956Y141729D01*
X571190D01*
X571346Y141690D01*
D02*
G37*
G36*
X88323Y133722D02*
X86877D01*
X90002Y145049D01*
X91467D01*
X88323Y133722D01*
D02*
G37*
G36*
X94728Y145166D02*
X94963Y145107D01*
X95256Y145010D01*
X95412Y144932D01*
X95568Y144834D01*
X95724Y144717D01*
X95881Y144580D01*
X96037Y144424D01*
X96193Y144229D01*
X96330Y144014D01*
X96447Y143760D01*
Y143740D01*
X96466Y143701D01*
X96506Y143604D01*
X96545Y143487D01*
X96584Y143350D01*
X96642Y143155D01*
X96701Y142940D01*
X96759Y142686D01*
X96818Y142393D01*
X96877Y142080D01*
X96935Y141729D01*
X96974Y141338D01*
X97013Y140909D01*
X97052Y140440D01*
X97072Y139932D01*
Y139405D01*
Y139366D01*
Y139288D01*
Y139131D01*
Y138936D01*
X97052Y138702D01*
X97033Y138428D01*
Y138135D01*
X96994Y137803D01*
X96935Y137120D01*
X96818Y136397D01*
X96759Y136046D01*
X96681Y135714D01*
X96584Y135401D01*
X96486Y135108D01*
Y135089D01*
X96466Y135050D01*
X96428Y134971D01*
X96369Y134874D01*
X96232Y134659D01*
X96017Y134386D01*
X95744Y134112D01*
X95412Y133897D01*
X95217Y133800D01*
X95002Y133722D01*
X94767Y133683D01*
X94513Y133663D01*
X94455D01*
X94396Y133683D01*
X94299D01*
X94064Y133741D01*
X93771Y133839D01*
X93615Y133917D01*
X93459Y134014D01*
X93303Y134132D01*
X93147Y134268D01*
X92990Y134425D01*
X92853Y134620D01*
X92717Y134835D01*
X92600Y135089D01*
Y135108D01*
X92580Y135147D01*
X92541Y135245D01*
X92502Y135362D01*
X92463Y135518D01*
X92424Y135694D01*
X92365Y135909D01*
X92307Y136163D01*
X92248Y136456D01*
X92209Y136788D01*
X92150Y137139D01*
X92111Y137510D01*
X92072Y137940D01*
X92033Y138389D01*
X92014Y138877D01*
Y139405D01*
Y139424D01*
Y139463D01*
Y139541D01*
Y139659D01*
X92033Y139776D01*
Y139932D01*
Y140108D01*
X92053Y140303D01*
X92092Y140752D01*
X92150Y141241D01*
X92229Y141748D01*
X92326Y142295D01*
X92463Y142842D01*
X92619Y143350D01*
X92834Y143838D01*
X93068Y144287D01*
X93205Y144483D01*
X93361Y144658D01*
X93518Y144815D01*
X93693Y144932D01*
X93869Y145049D01*
X94084Y145127D01*
X94279Y145166D01*
X94513Y145186D01*
X94650D01*
X94728Y145166D01*
D02*
G37*
G36*
X71820D02*
X72054Y145107D01*
X72347Y145010D01*
X72503Y144932D01*
X72659Y144834D01*
X72816Y144717D01*
X72972Y144580D01*
X73128Y144424D01*
X73284Y144229D01*
X73421Y144014D01*
X73538Y143760D01*
Y143740D01*
X73558Y143701D01*
X73597Y143604D01*
X73636Y143487D01*
X73675Y143350D01*
X73734Y143155D01*
X73792Y142940D01*
X73851Y142686D01*
X73909Y142393D01*
X73968Y142080D01*
X74027Y141729D01*
X74066Y141338D01*
X74105Y140909D01*
X74144Y140440D01*
X74163Y139932D01*
Y139405D01*
Y139366D01*
Y139288D01*
Y139131D01*
Y138936D01*
X74144Y138702D01*
X74124Y138428D01*
Y138135D01*
X74085Y137803D01*
X74027Y137120D01*
X73909Y136397D01*
X73851Y136046D01*
X73773Y135714D01*
X73675Y135401D01*
X73577Y135108D01*
Y135089D01*
X73558Y135050D01*
X73519Y134971D01*
X73460Y134874D01*
X73324Y134659D01*
X73109Y134386D01*
X72835Y134112D01*
X72503Y133897D01*
X72308Y133800D01*
X72093Y133722D01*
X71859Y133683D01*
X71605Y133663D01*
X71546D01*
X71488Y133683D01*
X71390D01*
X71156Y133741D01*
X70863Y133839D01*
X70706Y133917D01*
X70550Y134014D01*
X70394Y134132D01*
X70238Y134268D01*
X70082Y134425D01*
X69945Y134620D01*
X69808Y134835D01*
X69691Y135089D01*
Y135108D01*
X69671Y135147D01*
X69632Y135245D01*
X69593Y135362D01*
X69554Y135518D01*
X69515Y135694D01*
X69457Y135909D01*
X69398Y136163D01*
X69339Y136456D01*
X69300Y136788D01*
X69242Y137139D01*
X69203Y137510D01*
X69164Y137940D01*
X69125Y138389D01*
X69105Y138877D01*
Y139405D01*
Y139424D01*
Y139463D01*
Y139541D01*
Y139659D01*
X69125Y139776D01*
Y139932D01*
Y140108D01*
X69144Y140303D01*
X69183Y140752D01*
X69242Y141241D01*
X69320Y141748D01*
X69418Y142295D01*
X69554Y142842D01*
X69710Y143350D01*
X69925Y143838D01*
X70160Y144287D01*
X70296Y144483D01*
X70453Y144658D01*
X70609Y144815D01*
X70785Y144932D01*
X70960Y145049D01*
X71175Y145127D01*
X71371Y145166D01*
X71605Y145186D01*
X71742D01*
X71820Y145166D01*
D02*
G37*
G36*
X105157Y133722D02*
X103712D01*
X106837Y145049D01*
X108302D01*
X105157Y133722D01*
D02*
G37*
G36*
X112247Y133858D02*
X110509D01*
Y145049D01*
X112247D01*
Y133858D01*
D02*
G37*
G36*
X78577D02*
X76839D01*
Y145049D01*
X78577D01*
Y133858D01*
D02*
G37*
G36*
X65140Y145166D02*
X65375Y145147D01*
X65648Y145069D01*
X65961Y144971D01*
X66293Y144815D01*
X66605Y144600D01*
X66761Y144463D01*
X66898Y144307D01*
X66937Y144268D01*
X66957Y144209D01*
X67015Y144151D01*
X67133Y143955D01*
X67269Y143682D01*
X67386Y143350D01*
X67504Y142940D01*
X67582Y142490D01*
X67621Y141963D01*
Y141944D01*
Y141905D01*
Y141846D01*
Y141748D01*
X67601Y141631D01*
Y141495D01*
X67582Y141338D01*
X67562Y141163D01*
X67484Y140752D01*
X67386Y140284D01*
X67250Y139795D01*
X67074Y139249D01*
Y139229D01*
X67054Y139190D01*
X67015Y139092D01*
X66976Y138995D01*
X66918Y138838D01*
X66839Y138682D01*
X66761Y138467D01*
X66664Y138252D01*
X66547Y137999D01*
X66410Y137706D01*
X66254Y137413D01*
X66097Y137081D01*
X65922Y136729D01*
X65726Y136358D01*
X65531Y135968D01*
X65297Y135557D01*
X67855D01*
Y133858D01*
X62992D01*
Y134268D01*
Y134288D01*
X63031Y134327D01*
X63070Y134386D01*
X63109Y134483D01*
X63187Y134600D01*
X63266Y134718D01*
X63344Y134874D01*
X63441Y135050D01*
X63656Y135460D01*
X63910Y135909D01*
X64164Y136417D01*
X64437Y136983D01*
X64691Y137569D01*
X64965Y138174D01*
X65199Y138799D01*
X65414Y139405D01*
X65590Y140030D01*
X65746Y140616D01*
X65824Y141182D01*
X65863Y141709D01*
Y141748D01*
Y141846D01*
X65843Y141983D01*
X65824Y142158D01*
X65785Y142354D01*
X65707Y142549D01*
X65629Y142764D01*
X65512Y142940D01*
X65492Y142959D01*
X65453Y143018D01*
X65375Y143076D01*
X65258Y143174D01*
X65140Y143252D01*
X64984Y143311D01*
X64789Y143369D01*
X64594Y143389D01*
X64516D01*
X64418Y143369D01*
X64262Y143350D01*
X64066Y143311D01*
X63832Y143233D01*
X63539Y143155D01*
X63207Y143037D01*
Y144737D01*
X63226D01*
X63246Y144756D01*
X63363Y144815D01*
X63559Y144873D01*
X63793Y144971D01*
X64047Y145049D01*
X64340Y145107D01*
X64652Y145166D01*
X64945Y145186D01*
X65062D01*
X65140Y145166D01*
D02*
G37*
G36*
X511272Y126300D02*
X508069D01*
Y141338D01*
X511272D01*
Y126300D01*
D02*
G37*
G36*
X540333Y141533D02*
X540528Y141494D01*
X540801Y141416D01*
X541075Y141299D01*
X541387Y141143D01*
X541700Y140947D01*
X541426Y137940D01*
X541387D01*
X541270Y137979D01*
X541114Y138057D01*
X540918Y138135D01*
X540450Y138252D01*
X540215Y138291D01*
X539981D01*
X539864Y138252D01*
X539668Y138174D01*
X539473Y138057D01*
X539200Y137784D01*
X538926Y137432D01*
X538770Y137198D01*
X538614Y136924D01*
X538497Y136612D01*
X538340Y136260D01*
Y136221D01*
X538301Y136182D01*
X538262Y136065D01*
X538223Y135909D01*
X538106Y135518D01*
X537989Y135010D01*
X537872Y134424D01*
X537754Y133721D01*
X537676Y133018D01*
X537637Y132315D01*
Y126300D01*
X534434D01*
Y141338D01*
X537637D01*
Y139049D01*
X537715Y139268D01*
X537911Y139815D01*
X538145Y140284D01*
X538340Y140674D01*
X538379Y140713D01*
X538458Y140830D01*
X538575Y140947D01*
X538770Y141143D01*
X539004Y141299D01*
X539317Y141416D01*
X539629Y141533D01*
X540020Y141572D01*
X540176D01*
X540333Y141533D01*
D02*
G37*
G36*
X595173D02*
X595368Y141494D01*
X595641Y141416D01*
X595915Y141299D01*
X596227Y141143D01*
X596540Y140947D01*
X596266Y137940D01*
X596227D01*
X596110Y137979D01*
X595954Y138057D01*
X595759Y138135D01*
X595290Y138252D01*
X595055Y138291D01*
X594821D01*
X594704Y138252D01*
X594509Y138174D01*
X594313Y138057D01*
X594040Y137784D01*
X593766Y137432D01*
X593610Y137198D01*
X593454Y136924D01*
X593337Y136612D01*
X593181Y136260D01*
Y136221D01*
X593142Y136182D01*
X593103Y136065D01*
X593063Y135909D01*
X592946Y135518D01*
X592829Y135010D01*
X592712Y134424D01*
X592595Y133721D01*
X592517Y133018D01*
X592478Y132315D01*
Y126300D01*
X589275D01*
Y141338D01*
X592478D01*
Y139049D01*
X592556Y139268D01*
X592751Y139815D01*
X592985Y140284D01*
X593181Y140674D01*
X593220Y140713D01*
X593298Y140830D01*
X593415Y140947D01*
X593610Y141143D01*
X593845Y141299D01*
X594157Y141416D01*
X594470Y141533D01*
X594860Y141572D01*
X595016D01*
X595173Y141533D01*
D02*
G37*
G36*
X518185Y125988D02*
X516935D01*
X512561Y141338D01*
X515686D01*
X517560Y134082D01*
X519435Y141338D01*
X522599D01*
X518185Y125988D01*
D02*
G37*
G36*
X505608Y141533D02*
X505803Y141494D01*
X506077Y141416D01*
X506350Y141299D01*
X506663Y141143D01*
X506975Y140947D01*
X506702Y137940D01*
X506663D01*
X506546Y137979D01*
X506389Y138057D01*
X506194Y138135D01*
X505725Y138252D01*
X505491Y138291D01*
X505257D01*
X505139Y138252D01*
X504944Y138174D01*
X504749Y138057D01*
X504475Y137784D01*
X504202Y137432D01*
X504046Y137198D01*
X503890Y136924D01*
X503772Y136612D01*
X503616Y136260D01*
Y136221D01*
X503577Y136182D01*
X503538Y136065D01*
X503499Y135909D01*
X503382Y135518D01*
X503265Y135010D01*
X503147Y134424D01*
X503030Y133721D01*
X502952Y133018D01*
X502913Y132315D01*
Y126300D01*
X499710D01*
Y141338D01*
X502913D01*
Y139049D01*
X502991Y139268D01*
X503186Y139815D01*
X503421Y140284D01*
X503616Y140674D01*
X503655Y140713D01*
X503733Y140830D01*
X503850Y140947D01*
X504046Y141143D01*
X504280Y141299D01*
X504593Y141416D01*
X504905Y141533D01*
X505296Y141572D01*
X505452D01*
X505608Y141533D01*
D02*
G37*
G36*
X509905Y148916D02*
X510061Y148877D01*
X510491Y148720D01*
X510725Y148603D01*
X510920Y148408D01*
X510959Y148369D01*
X510998Y148330D01*
X511076Y148213D01*
X511194Y148056D01*
X511389Y147666D01*
X511428Y147432D01*
X511467Y147158D01*
Y147119D01*
Y147041D01*
X511428Y146885D01*
X511389Y146728D01*
X511233Y146338D01*
X511116Y146103D01*
X510920Y145908D01*
X510881Y145869D01*
X510842Y145830D01*
X510725Y145752D01*
X510569Y145674D01*
X510178Y145478D01*
X509905Y145439D01*
X509631Y145400D01*
X509514D01*
X509358Y145439D01*
X509202Y145478D01*
X508811Y145635D01*
X508577Y145752D01*
X508381Y145908D01*
X508342Y145947D01*
X508303Y145986D01*
X508225Y146103D01*
X508147Y146260D01*
X507952Y146650D01*
X507913Y146885D01*
X507874Y147158D01*
Y147197D01*
Y147275D01*
X507913Y147432D01*
X507952Y147588D01*
X508108Y148017D01*
X508225Y148213D01*
X508381Y148408D01*
X508420Y148447D01*
X508460Y148486D01*
X508577Y148564D01*
X508733Y148681D01*
X509124Y148877D01*
X509358Y148916D01*
X509631Y148955D01*
X509749D01*
X509905Y148916D01*
D02*
G37*
G36*
X558222Y148642D02*
X558456D01*
X558730Y148603D01*
X559316Y148486D01*
X560019Y148252D01*
X560722Y147939D01*
X561464Y147549D01*
X561816Y147275D01*
X562128Y146963D01*
X562167D01*
X562206Y146885D01*
X562401Y146650D01*
X562675Y146299D01*
X563026Y145830D01*
X563339Y145244D01*
X563612Y144580D01*
X563807Y143799D01*
X563886Y143408D01*
Y142979D01*
Y142940D01*
Y142861D01*
Y142666D01*
X563847Y142471D01*
X563807Y142197D01*
X563729Y141924D01*
X563534Y141221D01*
X563378Y140869D01*
X563183Y140479D01*
X562948Y140088D01*
X562675Y139698D01*
X562362Y139307D01*
X561972Y138955D01*
X561542Y138643D01*
X561034Y138330D01*
X561073D01*
X561191Y138252D01*
X561347Y138174D01*
X561542Y138057D01*
X561816Y137901D01*
X562089Y137666D01*
X562401Y137432D01*
X562714Y137120D01*
X563026Y136768D01*
X563339Y136378D01*
X563612Y135948D01*
X563886Y135440D01*
X564081Y134893D01*
X564237Y134268D01*
X564354Y133604D01*
X564393Y132862D01*
Y132823D01*
Y132745D01*
Y132589D01*
X564354Y132393D01*
Y132120D01*
X564276Y131846D01*
X564159Y131183D01*
X563925Y130440D01*
X563573Y129659D01*
X563378Y129269D01*
X563104Y128878D01*
X562831Y128487D01*
X562479Y128136D01*
X562440D01*
X562401Y128058D01*
X562284Y127980D01*
X562128Y127862D01*
X561933Y127706D01*
X561698Y127550D01*
X561425Y127394D01*
X561073Y127237D01*
X560722Y127042D01*
X560331Y126886D01*
X559863Y126730D01*
X559394Y126573D01*
X558339Y126378D01*
X557714Y126339D01*
X557089Y126300D01*
X554160D01*
Y148681D01*
X558066D01*
X558222Y148642D01*
D02*
G37*
G36*
X606695Y126300D02*
X603492D01*
Y126905D01*
X603258Y126730D01*
X602907Y126495D01*
X602477Y126261D01*
X602008Y126105D01*
X601422Y126066D01*
X601344D01*
X601110Y126105D01*
X600758Y126183D01*
X600329Y126339D01*
X599821Y126573D01*
X599313Y126964D01*
X599040Y127198D01*
X598805Y127472D01*
X598532Y127823D01*
X598298Y128175D01*
Y128214D01*
X598258Y128292D01*
X598180Y128409D01*
X598102Y128566D01*
X598024Y128761D01*
X597907Y129034D01*
X597790Y129308D01*
X597712Y129659D01*
X597594Y130050D01*
X597477Y130479D01*
X597282Y131417D01*
X597126Y132510D01*
X597087Y133760D01*
Y133800D01*
Y133917D01*
Y134112D01*
X597126Y134346D01*
Y134620D01*
X597165Y134971D01*
X597204Y135362D01*
X597243Y135792D01*
X597399Y136690D01*
X597594Y137627D01*
X597907Y138565D01*
X598298Y139463D01*
Y139502D01*
X598376Y139580D01*
X598415Y139658D01*
X598532Y139815D01*
X598805Y140166D01*
X599157Y140596D01*
X599625Y141026D01*
X600211Y141377D01*
X600485Y141533D01*
X600836Y141651D01*
X601188Y141690D01*
X601540Y141729D01*
X601774D01*
X602047Y141651D01*
X602360Y141572D01*
X602672Y141416D01*
X602985Y141221D01*
X603258Y140908D01*
X603492Y140518D01*
Y148681D01*
X606695D01*
Y126300D01*
D02*
G37*
%LPC*%
G36*
X557636Y145430D02*
Y139463D01*
X557753D01*
X557988Y139502D01*
X558300Y139580D01*
X558612Y139658D01*
X558964Y139815D01*
X559316Y140010D01*
X559628Y140284D01*
X559667Y140322D01*
X559745Y140440D01*
X559863Y140635D01*
X560019Y140869D01*
X560175Y141182D01*
X560292Y141572D01*
X560370Y142002D01*
X560409Y142510D01*
Y142588D01*
Y142744D01*
X560370Y142979D01*
X560331Y143291D01*
X560214Y143643D01*
X560097Y143994D01*
X559902Y144346D01*
X559667Y144658D01*
X559628Y144697D01*
X559550Y144775D01*
X559355Y144893D01*
X559120Y145049D01*
X558808Y145205D01*
X558456Y145322D01*
X558027Y145400D01*
X557636Y145430D01*
D02*
G37*
G36*
X527638Y138877D02*
X527599D01*
X527482Y138838D01*
X527325Y138682D01*
X527208Y138604D01*
X527130Y138448D01*
X527052Y138291D01*
X526935Y138057D01*
X526857Y137784D01*
X526779Y137432D01*
X526700Y137041D01*
X526661Y136612D01*
X526622Y136065D01*
Y135479D01*
X528810D01*
Y135518D01*
Y135635D01*
Y135792D01*
Y136026D01*
X528771Y136260D01*
X528732Y136573D01*
X528653Y137198D01*
X528536Y137823D01*
X528419Y138096D01*
X528302Y138330D01*
X528185Y138565D01*
X528029Y138721D01*
X527833Y138838D01*
X527638Y138877D01*
D02*
G37*
G36*
X602164Y138721D02*
X602047D01*
X601891Y138643D01*
X601696Y138565D01*
X601500Y138409D01*
X601305Y138174D01*
X601071Y137862D01*
X600876Y137432D01*
X600836Y137393D01*
X600797Y137198D01*
X600719Y136924D01*
X600641Y136495D01*
X600524Y135987D01*
X600446Y135323D01*
X600407Y134581D01*
X600368Y133682D01*
Y133643D01*
Y133487D01*
Y133292D01*
X600407Y132979D01*
Y132667D01*
X600446Y132276D01*
X600563Y131456D01*
X600758Y130636D01*
X600914Y130245D01*
X601071Y129933D01*
X601266Y129659D01*
X601461Y129425D01*
X601735Y129269D01*
X602008Y129229D01*
X602125D01*
X602243Y129269D01*
X602360Y129308D01*
X602711Y129425D01*
X602907Y129542D01*
X603063Y129698D01*
X603102Y129737D01*
X603141Y129776D01*
X603297Y129972D01*
X603414Y130167D01*
X603492Y130245D01*
Y130284D01*
Y137510D01*
Y137549D01*
X603414Y137706D01*
X603297Y137901D01*
X603180Y138135D01*
X602985Y138330D01*
X602750Y138526D01*
X602477Y138682D01*
X602164Y138721D01*
D02*
G37*
G36*
X583103Y133682D02*
X583064D01*
X582986Y133604D01*
X582869Y133526D01*
X582752Y133409D01*
X582361Y133057D01*
X581931Y132628D01*
X581463Y132081D01*
X581111Y131495D01*
X580955Y131183D01*
X580838Y130870D01*
X580760Y130558D01*
X580721Y130206D01*
Y130167D01*
Y130089D01*
X580760Y129855D01*
X580838Y129542D01*
X580955Y129229D01*
X580994Y129190D01*
X581150Y129073D01*
X581346Y128956D01*
X581619Y128917D01*
X581697D01*
X581931Y128995D01*
X582088Y129073D01*
X582244Y129151D01*
X582439Y129308D01*
X582595Y129503D01*
X582634Y129542D01*
X582674Y129620D01*
X582869Y129815D01*
X583025Y130089D01*
X583064Y130167D01*
X583103Y130245D01*
Y133682D01*
D02*
G37*
G36*
X570916Y138721D02*
X570838D01*
X570682Y138643D01*
X570565Y138565D01*
X570448Y138448D01*
X570330Y138291D01*
X570174Y138096D01*
X570018Y137862D01*
X569901Y137510D01*
X569784Y137120D01*
X569666Y136651D01*
X569588Y136065D01*
X569510Y135440D01*
X569432Y134659D01*
Y133800D01*
Y133760D01*
Y133604D01*
Y133331D01*
X569471Y133057D01*
Y132667D01*
X569510Y132237D01*
X569628Y131378D01*
X569823Y130479D01*
X569940Y130050D01*
X570096Y129698D01*
X570252Y129386D01*
X570487Y129112D01*
X570721Y128956D01*
X570995Y128917D01*
X571073D01*
X571229Y128995D01*
X571346Y129073D01*
X571502Y129190D01*
X571620Y129308D01*
X571776Y129542D01*
X571932Y129776D01*
X572049Y130128D01*
X572205Y130518D01*
X572323Y130987D01*
X572401Y131534D01*
X572479Y132198D01*
X572557Y132940D01*
Y133800D01*
Y133839D01*
Y133995D01*
Y134268D01*
X572518Y134581D01*
Y134932D01*
X572479Y135362D01*
X572362Y136260D01*
X572166Y137159D01*
X572010Y137588D01*
X571854Y137940D01*
X571698Y138252D01*
X571463Y138526D01*
X571190Y138682D01*
X570916Y138721D01*
D02*
G37*
G36*
X490023Y145439D02*
X489476D01*
Y129542D01*
X489750D01*
X489867Y129581D01*
X490297Y129620D01*
X490765Y129776D01*
X491312Y129972D01*
X491859Y130284D01*
X492328Y130714D01*
X492562Y130987D01*
X492757Y131300D01*
Y131339D01*
X492796Y131378D01*
X492836Y131495D01*
X492914Y131651D01*
X492992Y131846D01*
X493070Y132081D01*
X493148Y132393D01*
X493265Y132745D01*
X493343Y133135D01*
X493421Y133565D01*
X493500Y134073D01*
X493578Y134620D01*
X493656Y135245D01*
X493695Y135909D01*
X493734Y136612D01*
Y137393D01*
Y137432D01*
Y137588D01*
Y137823D01*
Y138135D01*
X493695Y138487D01*
Y138916D01*
X493656Y139346D01*
X493617Y139854D01*
X493500Y140869D01*
X493343Y141924D01*
X493226Y142393D01*
X493109Y142861D01*
X492953Y143291D01*
X492796Y143643D01*
Y143682D01*
X492757Y143721D01*
X492640Y143916D01*
X492406Y144228D01*
X492054Y144541D01*
X491625Y144853D01*
X491078Y145166D01*
X490375Y145361D01*
X490023Y145439D01*
D02*
G37*
G36*
X71683Y143604D02*
X71605D01*
X71566Y143584D01*
X71507Y143565D01*
X71429Y143506D01*
X71331Y143428D01*
X71234Y143291D01*
X71136Y143115D01*
X71058Y142862D01*
Y142823D01*
X71039Y142783D01*
X71019Y142705D01*
Y142608D01*
X70999Y142490D01*
X70980Y142334D01*
X70960Y142158D01*
X70941Y141944D01*
X70921Y141709D01*
X70902Y141416D01*
Y141104D01*
X70882Y140733D01*
X70863Y140342D01*
Y139893D01*
Y139405D01*
Y139385D01*
Y139366D01*
Y139307D01*
Y139229D01*
Y139014D01*
X70882Y138760D01*
Y138448D01*
X70902Y138096D01*
X70921Y137706D01*
X70960Y137335D01*
X70999Y136944D01*
X71058Y136553D01*
X71117Y136202D01*
X71175Y135889D01*
X71273Y135635D01*
X71371Y135421D01*
X71429Y135343D01*
X71488Y135284D01*
X71546Y135264D01*
X71624Y135245D01*
X71663D01*
X71702Y135264D01*
X71742Y135303D01*
X71800Y135382D01*
X71878Y135460D01*
X71937Y135596D01*
X72015Y135772D01*
X72093Y135987D01*
X72152Y136260D01*
X72230Y136592D01*
X72288Y137003D01*
X72308Y137237D01*
X72328Y137471D01*
X72347Y137745D01*
X72366Y138038D01*
X72386Y138350D01*
X72406Y138682D01*
Y139034D01*
Y139405D01*
Y139424D01*
Y139522D01*
Y139639D01*
Y139815D01*
Y140010D01*
X72386Y140245D01*
Y140498D01*
Y140752D01*
X72347Y141319D01*
X72308Y141866D01*
X72288Y142120D01*
X72269Y142354D01*
X72230Y142569D01*
X72191Y142744D01*
Y142764D01*
Y142783D01*
X72152Y142881D01*
X72113Y143018D01*
X72035Y143174D01*
X71956Y143330D01*
X71859Y143467D01*
X71742Y143565D01*
X71683Y143604D01*
D02*
G37*
G36*
X94592D02*
X94513D01*
X94475Y143584D01*
X94416Y143565D01*
X94338Y143506D01*
X94240Y143428D01*
X94143Y143291D01*
X94045Y143115D01*
X93967Y142862D01*
Y142823D01*
X93947Y142783D01*
X93928Y142705D01*
Y142608D01*
X93908Y142490D01*
X93889Y142334D01*
X93869Y142158D01*
X93849Y141944D01*
X93830Y141709D01*
X93810Y141416D01*
Y141104D01*
X93791Y140733D01*
X93771Y140342D01*
Y139893D01*
Y139405D01*
Y139385D01*
Y139366D01*
Y139307D01*
Y139229D01*
Y139014D01*
X93791Y138760D01*
Y138448D01*
X93810Y138096D01*
X93830Y137706D01*
X93869Y137335D01*
X93908Y136944D01*
X93967Y136553D01*
X94025Y136202D01*
X94084Y135889D01*
X94182Y135635D01*
X94279Y135421D01*
X94338Y135343D01*
X94396Y135284D01*
X94455Y135264D01*
X94533Y135245D01*
X94572D01*
X94611Y135264D01*
X94650Y135303D01*
X94709Y135382D01*
X94787Y135460D01*
X94846Y135596D01*
X94924Y135772D01*
X95002Y135987D01*
X95060Y136260D01*
X95139Y136592D01*
X95197Y137003D01*
X95217Y137237D01*
X95236Y137471D01*
X95256Y137745D01*
X95275Y138038D01*
X95295Y138350D01*
X95314Y138682D01*
Y139034D01*
Y139405D01*
Y139424D01*
Y139522D01*
Y139639D01*
Y139815D01*
Y140010D01*
X95295Y140245D01*
Y140498D01*
Y140752D01*
X95256Y141319D01*
X95217Y141866D01*
X95197Y142120D01*
X95178Y142354D01*
X95139Y142569D01*
X95100Y142744D01*
Y142764D01*
Y142783D01*
X95060Y142881D01*
X95021Y143018D01*
X94943Y143174D01*
X94865Y143330D01*
X94767Y143467D01*
X94650Y143565D01*
X94592Y143604D01*
D02*
G37*
G36*
X557753Y136221D02*
X557636D01*
Y129542D01*
X557988D01*
X558261Y129581D01*
X558612Y129659D01*
X558964Y129737D01*
X559355Y129894D01*
X559706Y130089D01*
X560058Y130362D01*
X560097Y130401D01*
X560175Y130518D01*
X560331Y130714D01*
X560487Y130987D01*
X560644Y131339D01*
X560800Y131729D01*
X560878Y132237D01*
X560917Y132784D01*
Y132862D01*
Y133057D01*
X560878Y133331D01*
X560800Y133682D01*
X560722Y134073D01*
X560566Y134464D01*
X560370Y134854D01*
X560097Y135245D01*
X560058Y135284D01*
X559941Y135401D01*
X559745Y135557D01*
X559511Y135752D01*
X559159Y135909D01*
X558769Y136065D01*
X558300Y136182D01*
X557753Y136221D01*
D02*
G37*
%LPD*%
D15*
X44409Y394D02*
X104410D01*
X44409Y47638D02*
X104410D01*
X44409Y394D02*
Y47638D01*
X104410Y394D02*
Y47638D01*
X115669Y0D02*
X175669D01*
X115669Y47244D02*
X175669D01*
X115669Y0D02*
Y47244D01*
X175669Y0D02*
Y47244D01*
X186536Y0D02*
X246535D01*
X186536Y47244D02*
X246535D01*
X186536Y0D02*
Y47244D01*
X246535Y0D02*
Y47244D01*
X257717Y0D02*
X317717D01*
X257717Y47244D02*
X317717D01*
X257717Y0D02*
Y47244D01*
X317717Y0D02*
Y47244D01*
X328583Y0D02*
X388583D01*
X328583Y47244D02*
X388583D01*
X328583Y0D02*
Y47244D01*
X388583Y0D02*
Y47244D01*
X399449Y0D02*
X459449D01*
X399449Y47244D02*
X459449D01*
X399449Y0D02*
Y47244D01*
X459449Y0D02*
Y47244D01*
X541181Y0D02*
X601181D01*
X541181Y47244D02*
X601181D01*
X541181Y0D02*
Y47244D01*
X601181Y0D02*
Y47244D01*
X292835Y177165D02*
X352835D01*
X292835Y129921D02*
X352835D01*
Y177165D01*
X292835Y129921D02*
Y177165D01*
X334144Y102736D02*
X345394D01*
X345494Y117736D02*
X365394D01*
Y102736D02*
Y117736D01*
X345394Y102736D02*
X365394D01*
X334144Y117736D02*
X345394D01*
X334144Y102736D02*
Y117736D01*
X371575Y177165D02*
X451575D01*
X371575Y129921D02*
X451575D01*
Y177165D01*
X371575Y129921D02*
Y177165D01*
X193780D02*
X273780D01*
X193780Y129921D02*
X273780D01*
Y177165D01*
X193780Y129921D02*
Y177165D01*
X470315Y0D02*
X530315D01*
X470315Y47244D02*
X530315D01*
X470315Y0D02*
Y47244D01*
X530315Y0D02*
Y47244D01*
X35002Y9799D02*
Y7799D01*
Y8799D01*
X40000D01*
X41000Y7799D01*
Y6800D01*
X40000Y5800D01*
X41000Y11798D02*
Y13797D01*
Y12798D01*
X35002D01*
X36002Y11798D01*
X41000Y16796D02*
X37001D01*
X35002Y18796D01*
X37001Y20795D01*
X41000D01*
X38001D01*
Y16796D01*
X106502Y6299D02*
Y4299D01*
Y5299D01*
X111500D01*
X112500Y4299D01*
Y3300D01*
X111500Y2300D01*
X112500Y8298D02*
Y10297D01*
Y9298D01*
X106502D01*
X107502Y8298D01*
X106502Y13296D02*
X112500D01*
Y16296D01*
X111500Y17295D01*
X110501D01*
X109501Y16296D01*
Y13296D01*
Y16296D01*
X108501Y17295D01*
X107502D01*
X106502Y16296D01*
Y13296D01*
X177502Y6299D02*
Y4299D01*
Y5299D01*
X182500D01*
X183500Y4299D01*
Y3300D01*
X182500Y2300D01*
X183500Y8298D02*
Y10297D01*
Y9298D01*
X177502D01*
X178502Y8298D01*
Y17295D02*
X177502Y16296D01*
Y14296D01*
X178502Y13296D01*
X182500D01*
X183500Y14296D01*
Y16296D01*
X182500Y17295D01*
X248802Y6099D02*
Y4099D01*
Y5099D01*
X253800D01*
X254800Y4099D01*
Y3100D01*
X253800Y2100D01*
X254800Y8098D02*
Y10097D01*
Y9098D01*
X248802D01*
X249802Y8098D01*
X248802Y13096D02*
X254800D01*
Y16095D01*
X253800Y17095D01*
X249802D01*
X248802Y16095D01*
Y13096D01*
X319502Y6099D02*
Y4099D01*
Y5099D01*
X324500D01*
X325500Y4099D01*
Y3100D01*
X324500Y2100D01*
X325500Y8098D02*
Y10097D01*
Y9098D01*
X319502D01*
X320502Y8098D01*
X319502Y17095D02*
Y13096D01*
X325500D01*
Y17095D01*
X322501Y13096D02*
Y15096D01*
X390002Y6299D02*
Y4299D01*
Y5299D01*
X395000D01*
X396000Y4299D01*
Y3300D01*
X395000Y2300D01*
X396000Y8298D02*
Y10297D01*
Y9298D01*
X390002D01*
X391002Y8298D01*
X390002Y17295D02*
Y13296D01*
X393001D01*
Y15296D01*
Y13296D01*
X396000D01*
X532102Y6099D02*
Y4099D01*
Y5099D01*
X537100D01*
X538100Y4099D01*
Y3100D01*
X537100Y2100D01*
X538100Y8098D02*
Y10097D01*
Y9098D01*
X532102D01*
X533102Y8098D01*
X532102Y13096D02*
X538100D01*
X535101D01*
Y17095D01*
X532102D01*
X538100D01*
X93900Y86099D02*
X89902D01*
X88902Y85099D01*
Y83100D01*
X89902Y82100D01*
X93900D01*
X94900Y83100D01*
Y85099D01*
X92901Y84099D02*
X94900Y86099D01*
Y85099D02*
X93900Y86099D01*
X94900Y88098D02*
Y90097D01*
Y89098D01*
X88902D01*
X89902Y88098D01*
X94900Y93096D02*
X90901D01*
X88902Y95096D01*
X90901Y97095D01*
X94900D01*
X91901D01*
Y93096D01*
X163200Y86299D02*
X159202D01*
X158202Y85299D01*
Y83300D01*
X159202Y82300D01*
X163200D01*
X164200Y83300D01*
Y85299D01*
X162201Y84299D02*
X164200Y86299D01*
Y85299D02*
X163200Y86299D01*
X164200Y88298D02*
Y90297D01*
Y89298D01*
X158202D01*
X159202Y88298D01*
X158202Y93296D02*
X164200D01*
Y96295D01*
X163200Y97295D01*
X162201D01*
X161201Y96295D01*
Y93296D01*
Y96295D01*
X160201Y97295D01*
X159202D01*
X158202Y96295D01*
Y93296D01*
X231300Y83599D02*
X227302D01*
X226302Y82599D01*
Y80600D01*
X227302Y79600D01*
X231300D01*
X232300Y80600D01*
Y82599D01*
X230301Y81599D02*
X232300Y83599D01*
Y82599D02*
X231300Y83599D01*
X232300Y85598D02*
Y87597D01*
Y86598D01*
X226302D01*
X227302Y85598D01*
Y94595D02*
X226302Y93595D01*
Y91596D01*
X227302Y90596D01*
X231300D01*
X232300Y91596D01*
Y93595D01*
X231300Y94595D01*
X302199Y80000D02*
Y83998D01*
X301199Y84998D01*
X299200D01*
X298200Y83998D01*
Y80000D01*
X299200Y79000D01*
X301199D01*
X300199Y80999D02*
X302199Y79000D01*
X301199D02*
X302199Y80000D01*
X304198Y79000D02*
X306197D01*
X305198D01*
Y84998D01*
X304198Y83998D01*
X309196Y84998D02*
Y79000D01*
X312195D01*
X313195Y80000D01*
Y83998D01*
X312195Y84998D01*
X309196D01*
X382100Y85699D02*
X378102D01*
X377102Y84699D01*
Y82700D01*
X378102Y81700D01*
X382100D01*
X383100Y82700D01*
Y84699D01*
X381101Y83699D02*
X383100Y85699D01*
Y84699D02*
X382100Y85699D01*
X383100Y87698D02*
Y89697D01*
Y88698D01*
X377102D01*
X378102Y87698D01*
X377102Y96695D02*
Y92696D01*
X383100D01*
Y96695D01*
X380101Y92696D02*
Y94696D01*
X447200Y84099D02*
X443202D01*
X442202Y83099D01*
Y81100D01*
X443202Y80100D01*
X447200D01*
X448200Y81100D01*
Y83099D01*
X446201Y82099D02*
X448200Y84099D01*
Y83099D02*
X447200Y84099D01*
X448200Y86098D02*
Y88097D01*
Y87098D01*
X442202D01*
X443202Y86098D01*
X442202Y95095D02*
Y91096D01*
X445201D01*
Y93096D01*
Y91096D01*
X448200D01*
X515800Y85199D02*
X511802D01*
X510802Y84199D01*
Y82200D01*
X511802Y81200D01*
X515800D01*
X516800Y82200D01*
Y84199D01*
X514801Y83199D02*
X516800Y85199D01*
Y84199D02*
X515800Y85199D01*
X516800Y87198D02*
Y89197D01*
Y88198D01*
X510802D01*
X511802Y87198D01*
Y96195D02*
X510802Y95196D01*
Y93196D01*
X511802Y92196D01*
X515800D01*
X516800Y93196D01*
Y95196D01*
X515800Y96195D01*
X513801D01*
Y94196D01*
X590900Y84099D02*
X586902D01*
X585902Y83099D01*
Y81100D01*
X586902Y80100D01*
X590900D01*
X591900Y81100D01*
Y83099D01*
X589901Y82099D02*
X591900Y84099D01*
Y83099D02*
X590900Y84099D01*
X591900Y86098D02*
Y88097D01*
Y87098D01*
X585902D01*
X586902Y86098D01*
X585902Y91096D02*
X591900D01*
X588901D01*
Y95095D01*
X585902D01*
X591900D01*
X102800Y85199D02*
X98802D01*
X97802Y84199D01*
Y82200D01*
X98802Y81200D01*
X102800D01*
X103800Y82200D01*
Y84199D01*
X101801Y83199D02*
X103800Y85199D01*
Y84199D02*
X102800Y85199D01*
X103800Y91197D02*
Y87198D01*
X99801Y91197D01*
X98802D01*
X97802Y90197D01*
Y88198D01*
X98802Y87198D01*
X103800Y93196D02*
X99801D01*
X97802Y95196D01*
X99801Y97195D01*
X103800D01*
X100801D01*
Y93196D01*
X172700Y86499D02*
X168702D01*
X167702Y85499D01*
Y83500D01*
X168702Y82500D01*
X172700D01*
X173700Y83500D01*
Y85499D01*
X171701Y84499D02*
X173700Y86499D01*
Y85499D02*
X172700Y86499D01*
X173700Y92497D02*
Y88498D01*
X169701Y92497D01*
X168702D01*
X167702Y91497D01*
Y89498D01*
X168702Y88498D01*
X167702Y94496D02*
X173700D01*
Y97495D01*
X172700Y98495D01*
X171701D01*
X170701Y97495D01*
Y94496D01*
Y97495D01*
X169701Y98495D01*
X168702D01*
X167702Y97495D01*
Y94496D01*
X240500Y83799D02*
X236502D01*
X235502Y82799D01*
Y80800D01*
X236502Y79800D01*
X240500D01*
X241500Y80800D01*
Y82799D01*
X239501Y81799D02*
X241500Y83799D01*
Y82799D02*
X240500Y83799D01*
X241500Y89797D02*
Y85798D01*
X237501Y89797D01*
X236502D01*
X235502Y88797D01*
Y86798D01*
X236502Y85798D01*
Y95795D02*
X235502Y94795D01*
Y92796D01*
X236502Y91796D01*
X240500D01*
X241500Y92796D01*
Y94795D01*
X240500Y95795D01*
X325400Y69399D02*
X321402D01*
X320402Y68399D01*
Y66400D01*
X321402Y65400D01*
X325400D01*
X326400Y66400D01*
Y68399D01*
X324401Y67399D02*
X326400Y69399D01*
Y68399D02*
X325400Y69399D01*
X326400Y75397D02*
Y71398D01*
X322401Y75397D01*
X321402D01*
X320402Y74397D01*
Y72398D01*
X321402Y71398D01*
X320402Y77396D02*
X326400D01*
Y80395D01*
X325400Y81395D01*
X321402D01*
X320402Y80395D01*
Y77396D01*
X390800Y84899D02*
X386802D01*
X385802Y83899D01*
Y81900D01*
X386802Y80900D01*
X390800D01*
X391800Y81900D01*
Y83899D01*
X389801Y82899D02*
X391800Y84899D01*
Y83899D02*
X390800Y84899D01*
X391800Y90897D02*
Y86898D01*
X387801Y90897D01*
X386802D01*
X385802Y89897D01*
Y87898D01*
X386802Y86898D01*
X385802Y96895D02*
Y92896D01*
X391800D01*
Y96895D01*
X388801Y92896D02*
Y94895D01*
X457500Y84399D02*
X453502D01*
X452502Y83399D01*
Y81400D01*
X453502Y80400D01*
X457500D01*
X458500Y81400D01*
Y83399D01*
X456501Y82399D02*
X458500Y84399D01*
Y83399D02*
X457500Y84399D01*
X458500Y90397D02*
Y86398D01*
X454501Y90397D01*
X453502D01*
X452502Y89397D01*
Y87398D01*
X453502Y86398D01*
X452502Y96395D02*
Y92396D01*
X455501D01*
Y94396D01*
Y92396D01*
X458500D01*
X524500Y84399D02*
X520502D01*
X519502Y83399D01*
Y81400D01*
X520502Y80400D01*
X524500D01*
X525500Y81400D01*
Y83399D01*
X523501Y82399D02*
X525500Y84399D01*
Y83399D02*
X524500Y84399D01*
X525500Y90397D02*
Y86398D01*
X521501Y90397D01*
X520502D01*
X519502Y89397D01*
Y87398D01*
X520502Y86398D01*
Y96395D02*
X519502Y95395D01*
Y93396D01*
X520502Y92396D01*
X524500D01*
X525500Y93396D01*
Y95395D01*
X524500Y96395D01*
X522501D01*
Y94396D01*
X600700Y83299D02*
X596702D01*
X595702Y82299D01*
Y80300D01*
X596702Y79300D01*
X600700D01*
X601700Y80300D01*
Y82299D01*
X599701Y81299D02*
X601700Y83299D01*
Y82299D02*
X600700Y83299D01*
X601700Y89297D02*
Y85298D01*
X597701Y89297D01*
X596702D01*
X595702Y88297D01*
Y86298D01*
X596702Y85298D01*
X595702Y91296D02*
X601700D01*
X598701D01*
Y95295D01*
X595702D01*
X601700D01*
X20200Y54900D02*
Y60898D01*
X23199D01*
X24199Y59898D01*
Y57899D01*
X23199Y56899D01*
X20200D01*
X22199D02*
X24199Y54900D01*
X26198D02*
X28197D01*
X27198D01*
Y60898D01*
X26198Y59898D01*
X31196Y54900D02*
Y58899D01*
X33196Y60898D01*
X35195Y58899D01*
Y54900D01*
Y57899D01*
X31196D01*
X113500Y53800D02*
Y59798D01*
X116499D01*
X117499Y58798D01*
Y56799D01*
X116499Y55799D01*
X113500D01*
X115499D02*
X117499Y53800D01*
X119498D02*
X121497D01*
X120498D01*
Y59798D01*
X119498Y58798D01*
X124496Y59798D02*
Y53800D01*
X127496D01*
X128495Y54800D01*
Y55799D01*
X127496Y56799D01*
X124496D01*
X127496D01*
X128495Y57799D01*
Y58798D01*
X127496Y59798D01*
X124496D01*
X185900Y50500D02*
Y56498D01*
X188899D01*
X189899Y55498D01*
Y53499D01*
X188899Y52499D01*
X185900D01*
X187899D02*
X189899Y50500D01*
X191898D02*
X193897D01*
X192898D01*
Y56498D01*
X191898Y55498D01*
X200895D02*
X199896Y56498D01*
X197896D01*
X196896Y55498D01*
Y51500D01*
X197896Y50500D01*
X199896D01*
X200895Y51500D01*
X254500Y50800D02*
Y56798D01*
X257499D01*
X258499Y55798D01*
Y53799D01*
X257499Y52799D01*
X254500D01*
X256499D02*
X258499Y50800D01*
X260498D02*
X262497D01*
X261498D01*
Y56798D01*
X260498Y55798D01*
X265496Y56798D02*
Y50800D01*
X268495D01*
X269495Y51800D01*
Y55798D01*
X268495Y56798D01*
X265496D01*
X330700Y52200D02*
Y58198D01*
X333699D01*
X334699Y57198D01*
Y55199D01*
X333699Y54199D01*
X330700D01*
X332699D02*
X334699Y52200D01*
X336698D02*
X338697D01*
X337698D01*
Y58198D01*
X336698Y57198D01*
X345695Y58198D02*
X341696D01*
Y52200D01*
X345695D01*
X341696Y55199D02*
X343696D01*
X401200Y50300D02*
Y56298D01*
X404199D01*
X405199Y55298D01*
Y53299D01*
X404199Y52299D01*
X401200D01*
X403199D02*
X405199Y50300D01*
X407198D02*
X409197D01*
X408198D01*
Y56298D01*
X407198Y55298D01*
X416195Y56298D02*
X412196D01*
Y53299D01*
X414196D01*
X412196D01*
Y50300D01*
X472300Y50500D02*
Y56498D01*
X475299D01*
X476299Y55498D01*
Y53499D01*
X475299Y52499D01*
X472300D01*
X474299D02*
X476299Y50500D01*
X478298D02*
X480297D01*
X479298D01*
Y56498D01*
X478298Y55498D01*
X487295D02*
X486296Y56498D01*
X484296D01*
X483296Y55498D01*
Y51500D01*
X484296Y50500D01*
X486296D01*
X487295Y51500D01*
Y53499D01*
X485296D01*
X543400Y50500D02*
Y56498D01*
X546399D01*
X547399Y55498D01*
Y53499D01*
X546399Y52499D01*
X543400D01*
X545399D02*
X547399Y50500D01*
X549398D02*
X551397D01*
X550398D01*
Y56498D01*
X549398Y55498D01*
X554396Y56498D02*
Y50500D01*
Y53499D01*
X558395D01*
Y56498D01*
Y50500D01*
X44600Y54100D02*
Y60098D01*
X47599D01*
X48599Y59098D01*
Y57099D01*
X47599Y56099D01*
X44600D01*
X46599D02*
X48599Y54100D01*
X54597D02*
X50598D01*
X54597Y58099D01*
Y59098D01*
X53597Y60098D01*
X51598D01*
X50598Y59098D01*
X56596Y54100D02*
Y58099D01*
X58596Y60098D01*
X60595Y58099D01*
Y54100D01*
Y57099D01*
X56596D01*
X179100Y59500D02*
X173102D01*
Y62499D01*
X174102Y63499D01*
X176101D01*
X177101Y62499D01*
Y59500D01*
Y61499D02*
X179100Y63499D01*
Y69497D02*
Y65498D01*
X175101Y69497D01*
X174102D01*
X173102Y68497D01*
Y66498D01*
X174102Y65498D01*
X173102Y71496D02*
X179100D01*
Y74495D01*
X178100Y75495D01*
X177101D01*
X176101Y74495D01*
Y71496D01*
Y74495D01*
X175101Y75495D01*
X174102D01*
X173102Y74495D01*
Y71496D01*
X252300Y60000D02*
X246302D01*
Y62999D01*
X247302Y63999D01*
X249301D01*
X250301Y62999D01*
Y60000D01*
Y61999D02*
X252300Y63999D01*
Y69997D02*
Y65998D01*
X248301Y69997D01*
X247302D01*
X246302Y68997D01*
Y66998D01*
X247302Y65998D01*
Y75995D02*
X246302Y74995D01*
Y72996D01*
X247302Y71996D01*
X251300D01*
X252300Y72996D01*
Y74995D01*
X251300Y75995D01*
X320400Y53200D02*
X326398D01*
Y50201D01*
X325398Y49201D01*
X323399D01*
X322399Y50201D01*
Y53200D01*
Y51201D02*
X320400Y49201D01*
Y43203D02*
Y47202D01*
X324399Y43203D01*
X325398D01*
X326398Y44203D01*
Y46202D01*
X325398Y47202D01*
X326398Y41204D02*
X320400D01*
Y38205D01*
X321400Y37205D01*
X325398D01*
X326398Y38205D01*
Y41204D01*
X396600Y42700D02*
X390602D01*
Y45699D01*
X391602Y46699D01*
X393601D01*
X394601Y45699D01*
Y42700D01*
Y44699D02*
X396600Y46699D01*
Y52697D02*
Y48698D01*
X392601Y52697D01*
X391602D01*
X390602Y51697D01*
Y49698D01*
X391602Y48698D01*
X390602Y58695D02*
Y54696D01*
X396600D01*
Y58695D01*
X393601Y54696D02*
Y56695D01*
X467400Y41800D02*
X461402D01*
Y44799D01*
X462402Y45799D01*
X464401D01*
X465401Y44799D01*
Y41800D01*
Y43799D02*
X467400Y45799D01*
Y51797D02*
Y47798D01*
X463401Y51797D01*
X462402D01*
X461402Y50797D01*
Y48798D01*
X462402Y47798D01*
X461402Y57795D02*
Y53796D01*
X464401D01*
Y55796D01*
Y53796D01*
X467400D01*
X538800Y37500D02*
X532802D01*
Y40499D01*
X533802Y41499D01*
X535801D01*
X536801Y40499D01*
Y37500D01*
Y39499D02*
X538800Y41499D01*
Y47497D02*
Y43498D01*
X534801Y47497D01*
X533802D01*
X532802Y46497D01*
Y44498D01*
X533802Y43498D01*
Y53495D02*
X532802Y52495D01*
Y50496D01*
X533802Y49496D01*
X537800D01*
X538800Y50496D01*
Y52495D01*
X537800Y53495D01*
X535801D01*
Y51495D01*
X610900Y40200D02*
X604902D01*
Y43199D01*
X605902Y44199D01*
X607901D01*
X608901Y43199D01*
Y40200D01*
Y42199D02*
X610900Y44199D01*
Y50197D02*
Y46198D01*
X606901Y50197D01*
X605902D01*
X604902Y49197D01*
Y47198D01*
X605902Y46198D01*
X604902Y52196D02*
X610900D01*
X607901D01*
Y56195D01*
X604902D01*
X610900D01*
X79800Y92600D02*
X73802D01*
Y95599D01*
X74802Y96599D01*
X76801D01*
X77801Y95599D01*
Y92600D01*
Y94599D02*
X79800Y96599D01*
X74802Y98598D02*
X73802Y99598D01*
Y101597D01*
X74802Y102597D01*
X75801D01*
X76801Y101597D01*
Y100597D01*
Y101597D01*
X77801Y102597D01*
X78800D01*
X79800Y101597D01*
Y99598D01*
X78800Y98598D01*
X79800Y104596D02*
X75801D01*
X73802Y106596D01*
X75801Y108595D01*
X79800D01*
X76801D01*
Y104596D01*
X149300Y92800D02*
X143302D01*
Y95799D01*
X144302Y96799D01*
X146301D01*
X147301Y95799D01*
Y92800D01*
Y94799D02*
X149300Y96799D01*
X144302Y98798D02*
X143302Y99798D01*
Y101797D01*
X144302Y102797D01*
X145301D01*
X146301Y101797D01*
Y100797D01*
Y101797D01*
X147301Y102797D01*
X148300D01*
X149300Y101797D01*
Y99798D01*
X148300Y98798D01*
X143302Y104796D02*
X149300D01*
Y107795D01*
X148300Y108795D01*
X147301D01*
X146301Y107795D01*
Y104796D01*
Y107795D01*
X145301Y108795D01*
X144302D01*
X143302Y107795D01*
Y104796D01*
X222500Y92000D02*
X216502D01*
Y94999D01*
X217502Y95999D01*
X219501D01*
X220501Y94999D01*
Y92000D01*
Y93999D02*
X222500Y95999D01*
X217502Y97998D02*
X216502Y98998D01*
Y100997D01*
X217502Y101997D01*
X218501D01*
X219501Y100997D01*
Y99997D01*
Y100997D01*
X220501Y101997D01*
X221500D01*
X222500Y100997D01*
Y98998D01*
X221500Y97998D01*
X217502Y107995D02*
X216502Y106995D01*
Y104996D01*
X217502Y103996D01*
X221500D01*
X222500Y104996D01*
Y106995D01*
X221500Y107995D01*
X286000Y93400D02*
X280002D01*
Y96399D01*
X281002Y97399D01*
X283001D01*
X284001Y96399D01*
Y93400D01*
Y95399D02*
X286000Y97399D01*
X281002Y99398D02*
X280002Y100398D01*
Y102397D01*
X281002Y103397D01*
X282001D01*
X283001Y102397D01*
Y101397D01*
Y102397D01*
X284001Y103397D01*
X285000D01*
X286000Y102397D01*
Y100398D01*
X285000Y99398D01*
X280002Y105396D02*
X286000D01*
Y108395D01*
X285000Y109395D01*
X281002D01*
X280002Y108395D01*
Y105396D01*
X351100Y93100D02*
Y99098D01*
X354099D01*
X355099Y98098D01*
Y96099D01*
X354099Y95099D01*
X351100D01*
X353099D02*
X355099Y93100D01*
X357098Y98098D02*
X358098Y99098D01*
X360097D01*
X361097Y98098D01*
Y97099D01*
X360097Y96099D01*
X359097D01*
X360097D01*
X361097Y95099D01*
Y94100D01*
X360097Y93100D01*
X358098D01*
X357098Y94100D01*
X367095Y99098D02*
X363096D01*
Y93100D01*
X367095D01*
X363096Y96099D02*
X365095D01*
X436811Y92989D02*
X430813D01*
Y95988D01*
X431813Y96988D01*
X433812D01*
X434812Y95988D01*
Y92989D01*
Y94988D02*
X436811Y96988D01*
X431813Y98987D02*
X430813Y99987D01*
Y101986D01*
X431813Y102986D01*
X432812D01*
X433812Y101986D01*
Y100986D01*
Y101986D01*
X434812Y102986D01*
X435811D01*
X436811Y101986D01*
Y99987D01*
X435811Y98987D01*
X430813Y108984D02*
Y104985D01*
X433812D01*
Y106984D01*
Y104985D01*
X436811D01*
X503500Y92800D02*
X497502D01*
Y95799D01*
X498502Y96799D01*
X500501D01*
X501501Y95799D01*
Y92800D01*
Y94799D02*
X503500Y96799D01*
X498502Y98798D02*
X497502Y99798D01*
Y101797D01*
X498502Y102797D01*
X499501D01*
X500501Y101797D01*
Y100797D01*
Y101797D01*
X501501Y102797D01*
X502500D01*
X503500Y101797D01*
Y99798D01*
X502500Y98798D01*
X498502Y108795D02*
X497502Y107795D01*
Y105796D01*
X498502Y104796D01*
X502500D01*
X503500Y105796D01*
Y107795D01*
X502500Y108795D01*
X500501D01*
Y106796D01*
X578600Y93100D02*
X572602D01*
Y96099D01*
X573602Y97099D01*
X575601D01*
X576601Y96099D01*
Y93100D01*
Y95099D02*
X578600Y97099D01*
X573602Y99098D02*
X572602Y100098D01*
Y102097D01*
X573602Y103097D01*
X574601D01*
X575601Y102097D01*
Y101097D01*
Y102097D01*
X576601Y103097D01*
X577600D01*
X578600Y102097D01*
Y100098D01*
X577600Y99098D01*
X572602Y105096D02*
X578600D01*
X575601D01*
Y109095D01*
X572602D01*
X578600D01*
X61800Y80500D02*
X55802D01*
Y83499D01*
X56802Y84499D01*
X58801D01*
X59801Y83499D01*
Y80500D01*
Y82499D02*
X61800Y84499D01*
Y89497D02*
X55802D01*
X58801Y86498D01*
Y90497D01*
X61800Y92496D02*
X57801D01*
X55802Y94495D01*
X57801Y96495D01*
X61800D01*
X58801D01*
Y92496D01*
X133000Y79800D02*
X127002D01*
Y82799D01*
X128002Y83799D01*
X130001D01*
X131001Y82799D01*
Y79800D01*
Y81799D02*
X133000Y83799D01*
Y88797D02*
X127002D01*
X130001Y85798D01*
Y89797D01*
X127002Y91796D02*
X133000D01*
Y94795D01*
X132000Y95795D01*
X131001D01*
X130001Y94795D01*
Y91796D01*
Y94795D01*
X129001Y95795D01*
X128002D01*
X127002Y94795D01*
Y91796D01*
X206000Y77900D02*
X200002D01*
Y80899D01*
X201002Y81899D01*
X203001D01*
X204001Y80899D01*
Y77900D01*
Y79899D02*
X206000Y81899D01*
Y86897D02*
X200002D01*
X203001Y83898D01*
Y87897D01*
X201002Y93895D02*
X200002Y92895D01*
Y90896D01*
X201002Y89896D01*
X205000D01*
X206000Y90896D01*
Y92895D01*
X205000Y93895D01*
X276500Y74400D02*
X270502D01*
Y77399D01*
X271502Y78399D01*
X273501D01*
X274501Y77399D01*
Y74400D01*
Y76399D02*
X276500Y78399D01*
Y83397D02*
X270502D01*
X273501Y80398D01*
Y84397D01*
X270502Y86396D02*
X276500D01*
Y89395D01*
X275500Y90395D01*
X271502D01*
X270502Y89395D01*
Y86396D01*
X347300Y77100D02*
X341302D01*
Y80099D01*
X342302Y81099D01*
X344301D01*
X345301Y80099D01*
Y77100D01*
Y79099D02*
X347300Y81099D01*
Y86097D02*
X341302D01*
X344301Y83098D01*
Y87097D01*
X341302Y93095D02*
Y89096D01*
X347300D01*
Y93095D01*
X344301Y89096D02*
Y91096D01*
X418710Y75387D02*
X412712D01*
Y78386D01*
X413711Y79385D01*
X415711D01*
X416710Y78386D01*
Y75387D01*
Y77386D02*
X418710Y79385D01*
Y84384D02*
X412712D01*
X415711Y81385D01*
Y85383D01*
X412712Y91381D02*
Y87383D01*
X415711D01*
Y89382D01*
Y87383D01*
X418710D01*
X488749Y74834D02*
X482751D01*
Y77833D01*
X483750Y78833D01*
X485750D01*
X486750Y77833D01*
Y74834D01*
Y76833D02*
X488749Y78833D01*
Y83831D02*
X482751D01*
X485750Y80832D01*
Y84831D01*
X483750Y90829D02*
X482751Y89829D01*
Y87830D01*
X483750Y86830D01*
X487749D01*
X488749Y87830D01*
Y89829D01*
X487749Y90829D01*
X485750D01*
Y88829D01*
X561800Y76600D02*
X555802D01*
Y79599D01*
X556802Y80599D01*
X558801D01*
X559801Y79599D01*
Y76600D01*
Y78599D02*
X561800Y80599D01*
Y85597D02*
X555802D01*
X558801Y82598D01*
Y86597D01*
X555802Y88596D02*
X561800D01*
X558801D01*
Y92595D01*
X555802D01*
X561800D01*
X45602Y84499D02*
X44602Y83499D01*
Y81500D01*
X45602Y80500D01*
X49600D01*
X50600Y81500D01*
Y83499D01*
X49600Y84499D01*
X50600Y86498D02*
Y88497D01*
Y87498D01*
X44602D01*
X45602Y86498D01*
X50600Y91496D02*
X46601D01*
X44602Y93496D01*
X46601Y95495D01*
X50600D01*
X47601D01*
Y91496D01*
X116102Y83799D02*
X115102Y82799D01*
Y80800D01*
X116102Y79800D01*
X120100D01*
X121100Y80800D01*
Y82799D01*
X120100Y83799D01*
X121100Y85798D02*
Y87797D01*
Y86798D01*
X115102D01*
X116102Y85798D01*
X115102Y90796D02*
X121100D01*
Y93796D01*
X120100Y94795D01*
X119101D01*
X118101Y93796D01*
Y90796D01*
Y93796D01*
X117101Y94795D01*
X116102D01*
X115102Y93796D01*
Y90796D01*
X190902Y81099D02*
X189902Y80099D01*
Y78100D01*
X190902Y77100D01*
X194900D01*
X195900Y78100D01*
Y80099D01*
X194900Y81099D01*
X195900Y83098D02*
Y85097D01*
Y84098D01*
X189902D01*
X190902Y83098D01*
Y92095D02*
X189902Y91096D01*
Y89096D01*
X190902Y88096D01*
X194900D01*
X195900Y89096D01*
Y91096D01*
X194900Y92095D01*
X259002Y78399D02*
X258002Y77399D01*
Y75400D01*
X259002Y74400D01*
X263000D01*
X264000Y75400D01*
Y77399D01*
X263000Y78399D01*
X264000Y80398D02*
Y82397D01*
Y81398D01*
X258002D01*
X259002Y80398D01*
X258002Y85396D02*
X264000D01*
Y88396D01*
X263000Y89395D01*
X259002D01*
X258002Y88396D01*
Y85396D01*
X330302Y80799D02*
X329302Y79799D01*
Y77800D01*
X330302Y76800D01*
X334300D01*
X335300Y77800D01*
Y79799D01*
X334300Y80799D01*
X335300Y82798D02*
Y84797D01*
Y83798D01*
X329302D01*
X330302Y82798D01*
X329302Y91795D02*
Y87796D01*
X335300D01*
Y91795D01*
X332301Y87796D02*
Y89796D01*
X401902Y79799D02*
X400902Y78799D01*
Y76800D01*
X401902Y75800D01*
X405900D01*
X406900Y76800D01*
Y78799D01*
X405900Y79799D01*
X406900Y81798D02*
Y83797D01*
Y82798D01*
X400902D01*
X401902Y81798D01*
X400902Y90795D02*
Y86796D01*
X403901D01*
Y88796D01*
Y86796D01*
X406900D01*
X471602Y78399D02*
X470602Y77399D01*
Y75400D01*
X471602Y74400D01*
X475600D01*
X476600Y75400D01*
Y77399D01*
X475600Y78399D01*
X476600Y80398D02*
Y82397D01*
Y81398D01*
X470602D01*
X471602Y80398D01*
Y89395D02*
X470602Y88396D01*
Y86396D01*
X471602Y85396D01*
X475600D01*
X476600Y86396D01*
Y88396D01*
X475600Y89395D01*
X473601D01*
Y87396D01*
X544302Y79199D02*
X543302Y78199D01*
Y76200D01*
X544302Y75200D01*
X548300D01*
X549300Y76200D01*
Y78199D01*
X548300Y79199D01*
X549300Y81198D02*
Y83197D01*
Y82198D01*
X543302D01*
X544302Y81198D01*
X543302Y86196D02*
X549300D01*
X546301D01*
Y90195D01*
X543302D01*
X549300D01*
X278899Y119298D02*
X277899Y120298D01*
X275900D01*
X274900Y119298D01*
Y115300D01*
X275900Y114300D01*
X277899D01*
X278899Y115300D01*
X280898Y120298D02*
X284897D01*
Y119298D01*
X280898Y115300D01*
Y114300D01*
X361283Y172647D02*
X362283Y173646D01*
Y175646D01*
X361283Y176645D01*
X357284D01*
X356285Y175646D01*
Y173646D01*
X357284Y172647D01*
X356285Y170647D02*
X362283D01*
X356285Y166648D01*
X362283D01*
X361283Y164649D02*
X362283Y163649D01*
Y161650D01*
X361283Y160651D01*
X360283D01*
X359284Y161650D01*
Y162650D01*
Y161650D01*
X358284Y160651D01*
X357284D01*
X356285Y161650D01*
Y163649D01*
X357284Y164649D01*
X374842Y117186D02*
X368844D01*
Y114187D01*
X369843Y113188D01*
X373842D01*
X374842Y114187D01*
Y117186D01*
X368844Y108189D02*
X374842D01*
X371843Y111188D01*
Y107190D01*
X282228Y172647D02*
X283228Y173646D01*
Y175646D01*
X282228Y176645D01*
X278229D01*
X277229Y175646D01*
Y173646D01*
X278229Y172647D01*
X277229Y170647D02*
X283228D01*
X277229Y166648D01*
X283228D01*
X277229Y164649D02*
Y162650D01*
Y163649D01*
X283228D01*
X282228Y164649D01*
X460023Y172647D02*
X461023Y173646D01*
Y175646D01*
X460023Y176645D01*
X456025D01*
X455025Y175646D01*
Y173646D01*
X456025Y172647D01*
X455025Y170647D02*
X461023D01*
X455025Y166648D01*
X461023D01*
X455025Y160651D02*
Y164649D01*
X459024Y160651D01*
X460023D01*
X461023Y161650D01*
Y163649D01*
X460023Y164649D01*
X461802Y8499D02*
Y6499D01*
Y7499D01*
X466800D01*
X467800Y6499D01*
Y5500D01*
X466800Y4500D01*
X467800Y10498D02*
Y12497D01*
Y11498D01*
X461802D01*
X462802Y10498D01*
Y19495D02*
X461802Y18496D01*
Y16496D01*
X462802Y15496D01*
X466800D01*
X467800Y16496D01*
Y18496D01*
X466800Y19495D01*
X464801D01*
Y17496D01*
D17*
X0Y0D02*
Y177165D01*
X645669D01*
Y0D02*
Y177165D01*
X0Y0D02*
X645669D01*
D18*
X31496Y19685D02*
G03*
X31496Y19685I-11811J0D01*
G01*
X637795D02*
G03*
X637795Y19685I-11811J0D01*
G01*
X328898Y106299D02*
G03*
X328898Y106299I-19685J0D01*
G01*
X637795Y157480D02*
G03*
X637795Y157480I-11811J0D01*
G01*
X31496D02*
G03*
X31496Y157480I-11811J0D01*
G01*
X73228Y77165D02*
X77165D01*
Y74016D02*
Y77165D01*
X73228Y65354D02*
X77165D01*
Y68504D01*
X92914Y77165D02*
X96851D01*
Y74016D02*
Y77165D01*
X92914Y65354D02*
X96851D01*
Y68504D01*
X143126Y78165D02*
X147063D01*
Y75016D02*
Y78165D01*
X143126Y66354D02*
X147063D01*
Y69504D01*
X162811Y78165D02*
X166748D01*
Y75016D02*
Y78165D01*
X162811Y66354D02*
X166748D01*
Y69504D01*
X216929Y75197D02*
X220866D01*
Y72047D02*
Y75197D01*
X216929Y63386D02*
X220866D01*
Y66536D01*
X236614Y75197D02*
X240551D01*
Y72047D02*
Y75197D01*
X236614Y63386D02*
X240551D01*
Y66536D01*
X288583Y75197D02*
X292520D01*
Y72047D02*
Y75197D01*
X288583Y63386D02*
X292520D01*
Y66536D01*
X308268Y75197D02*
X312205D01*
Y72047D02*
Y75197D01*
X308268Y63386D02*
X312205D01*
Y66536D01*
X359449Y76772D02*
X363386D01*
Y73622D02*
Y76772D01*
X359449Y64961D02*
X363386D01*
Y68110D01*
X379134Y76772D02*
X383071D01*
Y73622D02*
Y76772D01*
X379134Y64961D02*
X383071D01*
Y68110D01*
X430315Y75197D02*
X434252D01*
Y72047D02*
Y75197D01*
X430315Y63386D02*
X434252D01*
Y66536D01*
X450000Y75197D02*
X453937D01*
Y72047D02*
Y75197D01*
X450000Y63386D02*
X453937D01*
Y66536D01*
X501181Y75197D02*
X505118D01*
Y72047D02*
Y75197D01*
X501181Y63386D02*
X505118D01*
Y66536D01*
X520866Y75197D02*
X524803D01*
Y72047D02*
Y75197D01*
X520866Y63386D02*
X524803D01*
Y66536D01*
X572047Y75197D02*
X575984D01*
Y72047D02*
Y75197D01*
X572047Y63386D02*
X575984D01*
Y66536D01*
X591732Y75197D02*
X595669D01*
Y72047D02*
Y75197D01*
X591732Y63386D02*
X595669D01*
Y66536D01*
X67618Y59055D02*
X81201D01*
X67618Y51969D02*
X81201D01*
Y59055D01*
X67618Y51969D02*
Y59055D01*
X137516Y60055D02*
X151099D01*
X137516Y52969D02*
X151099D01*
Y60055D01*
X137516Y52969D02*
Y60055D01*
X211319Y57087D02*
X224902D01*
X211319Y50000D02*
X224902D01*
Y57087D01*
X211319Y50000D02*
Y57087D01*
X282973Y57087D02*
X296555D01*
X282973Y50000D02*
X296555D01*
Y57087D01*
X282973Y50000D02*
Y57087D01*
X353839Y58662D02*
X367421D01*
X353839Y51575D02*
X367421D01*
Y58662D01*
X353839Y51575D02*
Y58662D01*
X424705Y57087D02*
X438287D01*
X424705Y50000D02*
X438287D01*
Y57087D01*
X424705Y50000D02*
Y57087D01*
X495571Y57087D02*
X509154D01*
X495571Y50000D02*
X509154D01*
Y57087D01*
X495571Y50000D02*
Y57087D01*
X566437Y57087D02*
X580020D01*
X566437Y50000D02*
X580020D01*
Y57087D01*
X566437Y50000D02*
Y57087D01*
X87303Y59055D02*
X100886D01*
X87303Y51969D02*
X100886D01*
Y59055D01*
X87303Y51969D02*
Y59055D01*
X157201Y60055D02*
X170783D01*
X157201Y52969D02*
X170783D01*
Y60055D01*
X157201Y52969D02*
Y60055D01*
X231004Y57087D02*
X244587D01*
X231004Y50000D02*
X244587D01*
Y57087D01*
X231004Y50000D02*
Y57087D01*
X302658Y57087D02*
X316240D01*
X302658Y50000D02*
X316240D01*
Y57087D01*
X302658Y50000D02*
Y57087D01*
X373524Y58662D02*
X387106D01*
X373524Y51575D02*
X387106D01*
Y58662D01*
X373524Y51575D02*
Y58662D01*
X444390Y57087D02*
X457972D01*
X444390Y50000D02*
X457972D01*
Y57087D01*
X444390Y50000D02*
Y57087D01*
X515256Y57087D02*
X528839D01*
X515256Y50000D02*
X528839D01*
Y57087D01*
X515256Y50000D02*
Y57087D01*
X586122Y57087D02*
X599705D01*
X586122Y50000D02*
X599705D01*
Y57087D01*
X586122Y50000D02*
Y57087D01*
X68012Y90158D02*
X81595D01*
X68012Y83071D02*
X81595D01*
Y90158D01*
X68012Y83071D02*
Y90158D01*
X138878D02*
X152461D01*
X138878Y83071D02*
X152461D01*
Y90158D01*
X138878Y83071D02*
Y90158D01*
X209744D02*
X223327D01*
X209744Y83071D02*
X223327D01*
Y90158D01*
X209744Y83071D02*
Y90158D01*
X280610D02*
X294193D01*
X280610Y83071D02*
X294193D01*
Y90158D01*
X280610Y83071D02*
Y90158D01*
X351476D02*
X365059D01*
X351476Y83071D02*
X365059D01*
Y90158D01*
X351476Y83071D02*
Y90158D01*
X426280D02*
X439862D01*
X426280Y83071D02*
X439862D01*
Y90158D01*
X426280Y83071D02*
Y90158D01*
X493209D02*
X506791D01*
X493209Y83071D02*
X506791D01*
Y90158D01*
X493209Y83071D02*
Y90158D01*
X568012D02*
X581595D01*
X568012Y83071D02*
X581595D01*
Y90158D01*
X568012Y83071D02*
Y90158D01*
X62599Y64075D02*
Y77658D01*
X55512Y64075D02*
Y77658D01*
Y64075D02*
X62599D01*
X55512Y77658D02*
X62599D01*
X133465Y64075D02*
Y77658D01*
X126378Y64075D02*
Y77658D01*
Y64075D02*
X133465D01*
X126378Y77658D02*
X133465D01*
X208268Y60138D02*
Y73721D01*
X201181Y60138D02*
Y73721D01*
Y60138D02*
X208268D01*
X201181Y73721D02*
X208268D01*
X277559Y58563D02*
Y72146D01*
X270473Y58563D02*
Y72146D01*
Y58563D02*
X277559D01*
X270473Y72146D02*
X277559D01*
X348425Y60138D02*
Y73721D01*
X341339Y60138D02*
Y73721D01*
Y60138D02*
X348425D01*
X341339Y73721D02*
X348425D01*
X419291Y58563D02*
Y72146D01*
X412205Y58563D02*
Y72146D01*
Y58563D02*
X419291D01*
X412205Y72146D02*
X419291D01*
X490158Y58563D02*
Y72146D01*
X483071Y58563D02*
Y72146D01*
Y58563D02*
X490158D01*
X483071Y72146D02*
X490158D01*
X562599Y59941D02*
Y73524D01*
X555512Y59941D02*
Y73524D01*
Y59941D02*
X562599D01*
X555512Y73524D02*
X562599D01*
X43701Y77658D02*
X50788D01*
X43701Y72638D02*
Y77658D01*
X50788Y72638D02*
Y77658D01*
Y64075D02*
Y69095D01*
X43701Y64075D02*
Y69095D01*
Y64075D02*
X50788D01*
X114567Y77658D02*
X121654D01*
X114567Y72638D02*
Y77658D01*
X121654Y72638D02*
Y77658D01*
Y64075D02*
Y69095D01*
X114567Y64075D02*
Y69095D01*
Y64075D02*
X121654D01*
X189370Y73721D02*
X196457D01*
X189370Y68701D02*
Y73721D01*
X196457Y68701D02*
Y73721D01*
Y60138D02*
Y65158D01*
X189370Y60138D02*
Y65158D01*
Y60138D02*
X196457D01*
X258662Y72146D02*
X265748D01*
X258662Y67126D02*
Y72146D01*
X265748Y67126D02*
Y72146D01*
Y58563D02*
Y63583D01*
X258662Y58563D02*
Y63583D01*
Y58563D02*
X265748D01*
X329528Y73721D02*
X336614D01*
X329528Y68701D02*
Y73721D01*
X336614Y68701D02*
Y73721D01*
Y60138D02*
Y65158D01*
X329528Y60138D02*
Y65158D01*
Y60138D02*
X336614D01*
X400394Y72146D02*
X407480D01*
X400394Y67126D02*
Y72146D01*
X407480Y67126D02*
Y72146D01*
Y58563D02*
Y63583D01*
X400394Y58563D02*
Y63583D01*
Y58563D02*
X407480D01*
X471260Y72146D02*
X478346D01*
X471260Y67126D02*
Y72146D01*
X478346Y67126D02*
Y72146D01*
Y58563D02*
Y63583D01*
X471260Y58563D02*
Y63583D01*
Y58563D02*
X478346D01*
X543701Y73721D02*
X550787D01*
X543701Y68701D02*
Y73721D01*
X550787Y68701D02*
Y73721D01*
Y60138D02*
Y65158D01*
X543701Y60138D02*
Y65158D01*
Y60138D02*
X550787D01*
X334994Y102836D02*
Y117536D01*
X336394Y103036D02*
Y117736D01*
X335714Y102750D02*
Y117350D01*
X2385Y19685D02*
X36085D01*
X19685Y3785D02*
Y36285D01*
X608684Y19685D02*
X642384D01*
X625984Y3785D02*
Y36285D01*
X608684Y157480D02*
X642384D01*
X625984Y141580D02*
Y174080D01*
X2385Y157480D02*
X36085D01*
X19685Y141580D02*
Y174080D01*
D25*
X70571Y78347D02*
G03*
X70571Y78347I-492J0D01*
G01*
X90256D02*
G03*
X90256Y78347I-492J0D01*
G01*
X140469Y79347D02*
G03*
X140469Y79347I-492J0D01*
G01*
X160154D02*
G03*
X160154Y79347I-492J0D01*
G01*
X214272Y76378D02*
G03*
X214272Y76378I-492J0D01*
G01*
X233957D02*
G03*
X233957Y76378I-492J0D01*
G01*
X285925Y76378D02*
G03*
X285925Y76378I-492J0D01*
G01*
X305610D02*
G03*
X305610Y76378I-492J0D01*
G01*
X356791Y77953D02*
G03*
X356791Y77953I-492J0D01*
G01*
X376477D02*
G03*
X376477Y77953I-492J0D01*
G01*
X427658Y76378D02*
G03*
X427658Y76378I-492J0D01*
G01*
X447343D02*
G03*
X447343Y76378I-492J0D01*
G01*
X498524Y76378D02*
G03*
X498524Y76378I-492J0D01*
G01*
X518209D02*
G03*
X518209Y76378I-492J0D01*
G01*
X569390Y76378D02*
G03*
X569390Y76378I-492J0D01*
G01*
X589075D02*
G03*
X589075Y76378I-492J0D01*
G01*
D26*
X291213Y114399D02*
G03*
X291213Y100399I20330J-7000D01*
G01*
D27*
X34402Y21456D02*
Y19207D01*
X33465Y20893D02*
X35339Y19769D01*
Y20893D02*
X33465Y19769D01*
X36145Y20706D02*
X36520Y20893D01*
X37082Y21456D01*
Y17520D01*
X640701Y21456D02*
Y19207D01*
X639764Y20893D02*
X641638Y19769D01*
Y20893D02*
X639764Y19769D01*
X642631Y20519D02*
Y20706D01*
X642819Y21081D01*
X643006Y21268D01*
X643381Y21456D01*
X644131D01*
X644506Y21268D01*
X644693Y21081D01*
X644881Y20706D01*
Y20331D01*
X644693Y19956D01*
X644318Y19394D01*
X642444Y17520D01*
X645068D01*
X640701Y159251D02*
Y157002D01*
X639764Y158689D02*
X641638Y157564D01*
Y158689D02*
X639764Y157564D01*
X642819Y159251D02*
X644881D01*
X643756Y157752D01*
X644318D01*
X644693Y157564D01*
X644881Y157377D01*
X645068Y156814D01*
Y156440D01*
X644881Y155877D01*
X644506Y155502D01*
X643944Y155315D01*
X643381D01*
X642819Y155502D01*
X642631Y155690D01*
X642444Y156065D01*
X34402Y159251D02*
Y157002D01*
X33465Y158689D02*
X35339Y157564D01*
Y158689D02*
X33465Y157564D01*
X38019Y159251D02*
X36145Y156627D01*
X38956D01*
X38019Y159251D02*
Y155315D01*
M02*
